<mxfile host="Electron" modified="2023-12-16T08:08:23.967Z" agent="Mozilla/5.0 (Windows NT 10.0; Win64; x64) AppleWebKit/537.36 (KHTML, like Gecko) draw.io/21.2.8 Chrome/112.0.5615.165 Electron/24.2.0 Safari/537.36" etag="VVOSlHJtKSHBZHwnSRgi" version="21.2.8" type="device">
  <diagram name="Page-1" id="wdU2vlvLfLhHSGHgqa0V">
    <mxGraphModel dx="4718" dy="820" grid="1" gridSize="10" guides="1" tooltips="1" connect="1" arrows="1" fold="1" page="1" pageScale="1" pageWidth="3300" pageHeight="4681" math="0" shadow="0">
      <root>
        <mxCell id="0" />
        <mxCell id="1" parent="0" />
        <mxCell id="08-NsosBbDU-mmR43x8U-31" value="&lt;span style=&quot;font-size: 70px;&quot;&gt;cmake-init&lt;/span&gt;" style="text;html=1;strokeColor=none;fillColor=none;align=center;verticalAlign=middle;whiteSpace=wrap;rounded=0;" parent="1" vertex="1">
          <mxGeometry x="-3150" y="150" width="800" height="382.5" as="geometry" />
        </mxCell>
        <mxCell id="W6zOZZep94BeXWEkSGmd-1" value="" style="shape=image;verticalLabelPosition=bottom;labelBackgroundColor=default;verticalAlign=top;aspect=fixed;imageAspect=0;image=data:image/png,iVBORw0KGgoAAAANSUhEUgAABOMAAAK+CAYAAADg2NrOAAAAAXNSR0IArs4c6QAAAARnQU1BAACxjwv8YQUAAAAJcEhZcwAADsMAAA7DAcdvqGQAAP+lSURBVHhe7N0JfBTl/T/wz+ZOkCMhB2dADkHCEQ5BjCigIF4UqiK0KhS09aStVKv1L1WsR22xFbXaKhaPFs8fiFoRlYAIiKJAIAhyCCESkpBwk4tk//PMPLM7u9nZnU02m83u5+1rZO7jmSe7M999DltS62Q7iIiIiIiIiIiIqMlFyX+JiIiIiIiIiIioiTEYR0REREREREREFCQMxhEREREREREREQUJg3FERERERERERERBwmAcERERERERERFRkDAYR0REREREREREFCQMxhEREREREREREQUJg3FERERERERERERBwmAcERERERERERFRkDAYR0REREREREREFCQMxhEREREREREREQUJg3FERERERERERERBwmAcERERERERERFRkDAYR0REREREREREFCS2pNbJdjlOREREREQUNHEJrRAbF4/oqBjlzcQm51KLZbejtu4MaqqrUF15Ss70jyNPRMfKORRpamtrmIeoRWhMXmUwjoiIiIiIgioqOgaJrdogOioasNfCBr6ShAu7cjdhi0ZtXS0qTh1HXe0ZucS7aCVPJDBPhBx7VBxsddVyKjiMeahSyUO1zENkQUvKq0LIV1O1iV/IlEH8GxXlOhiXERERERFRyyACcTHied5+hi/MYUbcT3Ffxf0V99kqEURhniDBmIdEvrCKeYiCraF5VQjZknFafM2GDh1Scf1PL8Pw80ciPiEO73zyKTa3sqP1WTEYWhOLLw7txqFVO3B4f7myvl2UjCYiIiIiohAlqpAlJCSpLzAU3uy2GFRWnvZZhYt5InQ1R2kjI+Yhsqql5FVdSAbjREm3Vq0S8dfH7saNUyeioroOtWeqcdZZqThYVI67X3oWPw5PQMaJ9jinewccTTuCtNwCvPX8KhzY+yPsjMgREREREYWkVm1SEC0quLDkimVxsTGIjolGdHQUotS6TWY1g+yoqxPtGIn3p1pU1zRvYEJU4apVbvOp46LghDnmCXPNfe+bPcDBPBQSrOdDKyI7r+pCLhinBuKSzkLfvp0w77dXolfvTOWi4pUbdRrxsXFIyxyK7XuO4Pc73sXx9hmoPlKHzAGdUNMhFSeqqrFz9os49uF6BuQiQN+emejeNR3p7VNwVqsEOTf4Tp6qRElZOfYdKMGOPQVyLhERERF50qZdOmz2GjlF3ogX4Lj4WLWJnoaoq7OjuqqmWYNydlssjh8tkVOetUnOaNaX6FAUKve+uQMcgjiH40eK5ZRnzENNo7H50IpIy6u6kArGqe3CwYaEjHZIOTcN943qgz592iMmLh7x8dE4tP84jh2tw+SbbkDu3hL8qXgjytPPQnyXDLQ9Kx1tY9vjdHw3FPz2QRS8/A4DcmFKBOGGZ/dFaflR7Nl3EEUl5Thx6rRcGnytWyWhY3oKenbvhLSUdvhq8w4G5YiIiIhM8KXZmoSEWMTFBaY3yOrqGlRWNk8AlIEU/4XSvY/UYNyMK1LVfxf977D6byQKZD60IlLyqi46Nj7xITnerEQgLi46HhVnqmGPjkLfpFboZI/Cjs0H8EP+AXy3di+2r9+Lwi378OO+3cgZNgCX9hgKW+sEFNhrlW1sypUDR8uO4f7zL0C748exZetOuXcKF6NGDECPzI5Y/eUWbNq2G2VHj6O6pnl/WRXHF+exe9+PaoBw6MBz0D6lDQp+9P4LIBEREVEkik88Czbl+Z3MBfolODo6WnnfAs6cqZNzgsgWjSofbSg1Jk90SG+PWT+/GhPGnI+E+DjsUZ7JjcT8n197GbL798b+A4dw8lSFXBKaQu7eK/ev2f9emzgPueuYEotHb+mCwb2T8PGGYzhZ0Qx/N80s2IE4IVLyqi4kgnEiwZUTUW52CsZe0h+DOyWiXUE5TheVo+bwCUSdqER7Wy16p8WjXesE7N1Riu/XbUN6XAJOby7GxFYdkZXaEX1jE/FA2244v11rbD56FN/kfqncSBaBDxciEHdWUiKWrViHEyH6JSrOa/uu/cg6pzs6ZqQwIEdERETkJhAvzSLoMjS7Ly696DxMuvwijL5gCLp37ai8QMahrPwYztQ28wtZI4hqYaLjukATL7r2OjtqRWNNwdTEgZRZP7taue/x2LOvENn9z8GxYydxqFRrsyk7qzcuUfLIzt37kZrSDn17Z2LDN/nqslAUkvc+AoNxd12TgV5dtGaQzkqKxhd5J9XxSNFU+dCKSMirOrXpveZnQ0V1FH527fm45vweOKvgKHq0jsfZndti2MAMXDg4HRk903A4IRFntY1Ft26tUXCkHL999Dn88e//xt7n/w8/PPZ/KH95HT56YzGu/sXd+PbdXFw7tLe675ZrJuZ//hU+Uob50+WsppbUF1fe8zT+dM8kZMpZfgvEPtyIqqkZqcn4KPcrOSe0ifMU5yvOm4iIiIgCp3vXDvjV9ElqiafE+DisWrdJHcS4mCeWiXVaKtE+U1Npyn03l3ZtW2PfgSI1DwhtlWmdPi6W7VfWadfGuSwU8d43P1EqbsKItnIK6riYF0maO69ESl5t9pJxonpqHWwYc+F5uGPKMCz/zwpUFZ9Aj/REnFK+UDfEnIVt1bHYfRpIr6vDzgOH8dTa7/DViUocj09CVFwixiQDX3y7Df/8YgOqqo7ju417MDY5CnkHq/Dj8WOAvaUWKx2My34xDGnKWOmmF7Fiiza3Sf3sCSyYOgyd+lyAs6sX4pOtcr4/ArEPN1eMHaFWTQ3VEnGeHD1+EqOGD8SW7/bIOURERETUmBIsoqTT9ZPGqaWf3v0gF5+u2agGWcSwccsO9d+zu3ZEzohBLiWkjC6e/Syut/0PawvlDAzDvYtmodu3n2Or8uqgOv+XeOOnNryz4aCc0VAe9u2FKJESGxcjp+obefOTmDtjHK6+fByGx+Qj9/sTyLz6HvzlzknqPOfQCYc/2gLHJUri3SvopeOauFRTYny8WgV12KC+qKyqxoefrFP/FUQeEMvOH5qllowTpeJ273NPFTPi3v0Bd026AtfKIScmDx9vPy6XW2H9/vu694Lz/mcjLm8dvjuhzBw6Hf+6/+fqfdfzhCcNvvcRUDLurMQo9OueiOzeiZhxRRo6tncNBvVUS8nZlfWicbKiFtVnGtg2vfhc+dMvZH7qgtKl32C/XBQ83vOklXyo5blsj58xgutnkv5ZlI07F9yIrnq+9SLc86qu2UvGiWwcGxuHqZPGoKrqFBKi4nFWfDQqa+zIqKlCVlkxOpccwpDT5Yg5ehz//no3jlTUoGtqOnomJ2PqgDQMz2qLi3q0Qd+01qguPYZRw7pgS2YsthwvQ3xMvHoMsmjXDyiqAepObsW3a+U8f5ntY+A03Pv021j837kYIWdZIUqXibbYDhaXyTnu+mDGI7/DU45hJiZkyEVeie3M1jUsy8jBfZb36STOV5w3S8cRERERNZ4IxP3k8ovUKoeL3vwf9h04JJc4iXlimVhHrCu2cbf6qzwMGT5MTikyO6EjMnDe8C5yBnB2lwwUHay/fyfxQvsgfhbgx7zomGg55kHny9Fp07345Wwx/BfF436OazoDBe//Rc7Thj99UoriTz7BermZO6/HaIGW536Jzdt2qeP/fGUpjh53vumLcTFPEOuIdf1TjGVz78TUGdrw23esBvL85+u+iEDcFcV/l/f5L3hXbRovG3dOB/7tlifMhNu9b6zBvRPx4ZO9leEcPP3rTNx/Qye1nTh3Yp5YJtYR64ptxLZ+yZyIv90KPC/z0tS5h9D5fLGgaT5LGsp7HumEax54Ev8aDOTJOZ50zkhD3iv6Z9Irpp9F3kRCXm32YJyoRNq2XVt06NAOdfYaRJ+ViBLltKoqz6C6FkiJjkEXZTq+JgpbDx1HWUUV0tJSka6s+9usVphzfjLi6yrRPbEOiZUnkRBjQ2K7GOzJSkHc+M6wnxHl7siydY9i5iXDceUVv8TifXKev8z2MfgSjBncDe3ifUTa3XTvmq72mupdOVY8+1fc/eBf8WQuMP76HASsckLxWjzx4MtYbq1TFBfivMX5ExEREVHDiUb6Lxs7AsUlZXhj6aeOkk8i2PbrX05RB71qqlgm1hHrim3Eti4OHkJRx044W06ePXwQij5Yobxn6k+PXTByKPD1V00XeDETHe3l9ezHj/DuN3JceWMq8vhsmo2J40rwv/fNn529HqOFEjVSBNFmoDt9XnGp2Q/7ocH7fcnG0IxcvOh+X4cOwsC8LTLYsRnLPlHWHNJJnfIkHO99YxwqOyPH/Of3tsrnS8eiQyiQkyhYhv/6GxsOAu955CDeffRe/PIlX1X2SqFcaqNEQl5t9isUnTckxcXCVleBmsqTaN+1HfYnJaDkjB0nTtTgRFUtTtfWoaKiWlleo27Q1VaHW7u1Qt/WwP7dxfjxQDmiK6rQL6YW2/YU4XhtNTqVV6FW1GiMi1ePQS1XevsUFJXUr2Jg5tDKtchL64NsP0uyNQVx3uL8iYiIiKjhRl8wWPm/TS31ZnTZ2PPVdsDEcNkYtZiJg7auTW5rUPAtvsYgjFRLomiBt8KvDqJoyBBcrK7QAV06Ku8Y8q1ZVGt9Y5EcZosSdaIkywwMQQYmztPnCV3ws8ed695rPJ1OE/E3Of9v1zpL4LmLsvx2lo6OGSU46NpxqBqcyfBSKk6wfoyWY8u2XWoQ9lc3TcIffzfLZRDzxLIduxxhkMYTpZzk/XS911opp3tnP6jM/6XMTzqxTFnfkV9ceb0vIuhWnI6JC57Ev8TwwOVq29yZndJRXOzsMK7gYAkyMswLAgTr3vft1a3efdAHUWU4VBSV1+DXCw6oVU+tEuuKbcS2fvnyW3zbcTxmu/z9e/4sqf+ZI7jnLQ95zSVfGvKfYf7frjUP1gqNzyOd0CkjDZf9Xsurj1zt6Xiiyqqy/OZsOV1fJOTVkPgoTkuIw+kTp1FdfQYZHc9Cu+RYnKizq9VRD5WdUj48z+CksiyzVRKmnN0FkzsnIzEO2H+gHIcOHEPRweP4sew0zlXumF35MPro/S2w7TyKhG8OK9+//lxiMobe8ne8uGQ1lsmOE5Z9vBR/+9WFcrmxQ4WzMeHB17H4k/XK9Hosfe91/PqSZGWdJAyc+Tz+/fFadb0PP1mO5x5068ggqS/GzBbHWYmlq7T9ffjJSvz76V9iYP1SsW6ScMGD7+FD9TxWqefh0H0cfvX0UryrnpOy/LPVyj5vw9B2crkVF8zD6+q+P8S9F8h5Ltct0sh4fe/jb3eMgUsh3Xr7kNvPGqguRtoEPOTYnzbLm7NaJeDEqdNyyl/uVVE9VE1NF9VQtSqu941NlTON3LdJxYTZzmqxMwbI2R6I8xbnT0RERESN5b3xGc+/v3vaphA/FmWgi/qO2AFdsAXrCzZiw7cZ6Cwe2s8fgiHffovVYrFi9QK9muIifDvkcvwscyOeFON6FcYFG5W1RCDuPpz3zROOKo1POkq9KC/aPwEWiPkv5KHjVVe4BWn8N/Lmn3kIunXCNRPSsfnbxrVzd8noHDz20O89DmJZKNKro36c+6XaWcPRYyfUQYyLee7VV62TQRIZyNCCbsNw77zxKHpB5ou5K9DxVmM1wwx0PPhvZdm/HHlIyx8zALGNml8aYGA6iv6sVf37d/EY3OIxyBEaduzej/c++lxOOYmqwl+GWG+2uwsr1eCa+NcXf9atT3xuPIGvh95nyEuePks8feaosxXuecs4LfLlIHytV6t+AZikBv5c8+sCDMIQddumIkvPmVadFlVdfwaIaqwvbZbzmk9z5tWQCMadrgL2HDiC+EQbomOBC7qk4YeiUiyvrcK6tknYfaoa1bYoJLWKw8XdUpHRJh4njp3GvpIq7D9cjcMnz+BIRR2iau0Yk9wadUcr8PWyLagpr0DdaYvdECeNwZ2vLsGfbrwAXdonIrrqJE4crwASO6HvoHPkSk4ZV/0dd13SDXFV1ahBNOKTz8GEB5/Gr29fgIdmZCO5rgIVNUoCx6egx7jf455fGT4sr/sd7r32AnQ6C6gu3o/CsgrUxp+FDoNvxry/zvRavTLxovvwq0s6KjfuNLYv/AXmvPKDtqD7TMx/4VFMGtwJsXXF2Lt9P47WxSn7/AXmvTgPF/gM8lmTcdUizLtxINrW6NeXgb7X/xHzfu7ty6AKFceP44TYQKirwmkxrQwVDfkc86HD2BwMLN2JzZaqlaZg/Bhg0YN/xd3PKo8zYyb6aBtOBOJmIHvbIrVKrBgWBaCDCiIiIiIyp/WUacP066/QZkgfr/zSEXhxbw9shrquzdHLppGj3TgReCs6CPFEXXAQartx9dqLE42uq8EYUYLFROYQnNcxD0s9timmvGg/v0w9hlo6RnmBVoN+Hvhur1xrs0m0Hfage5XFzoOQXfyJbEvMnK9jfLZqrTJ8IaecxDyxLFSJYJt4eV697lu12qoYxLiY17BAnODaZpwaYFXbGMzDBj27FSzD0m/14K5QXK+K83m3aYFaZ4C2Pp/3Ps95b9dvyvdaAs6Mv+3hN8bm/F0uQQ4R3Hhvef2gRygQwbVn/8/3y6NYp2GBOF0h/nu/kpfUAK5b6Vkj088c97xlmJZtXzqCx7cOREdR9V7ML1qBt2Xe++Gdj5TPIHOBzSOb8U1emkvV6ewZv0F23t/xrKPKvWeRkFdDIhiXEJOEDRt34ExdFGprq5HROQWne3dF9q0/wfRrxqBNq9aoxhmclRANW7QdNSdP41Cnc1EY2xqHTlSgqjYKZ87U4vjpCsTGJKJnUgJio6JQIwJlFdZ63xx9//24snuScteLsP6pm3DtuLGYctXFuP7mP2N9Yf364O1bl+L1GaNwjbLOjQ+vhNoCQVRfTJjaCz8s+gWmXX4pfnr177GqVCyIRq8R1zqDbGdKse21X+Nn4hjXX4dbJl+MO9/YBZHf4vtfgqs6aqvV030m/vSHCUiPqkXJJw/j/+mBOFHM89Fb0E85/bL1j+HOyybhjluvw7Sf/EE9flTGBNx8h3kRUH+I637j5nH46VXK9V3z/7BGvb4k9L/EcH31/Af/T1l/yn+/0ybLcvGkmFaG//emNsubk6cq0bqVr2hiCsbfqZVUu3dMGV5bsBbWqqmXY8Wbct3itfg4PwUdvH2vZfRBdtou5cHvsJzhnThvcf5ERERE1HCHSsrUwJto/+36SZciIV5rB0y8RD394lvqoHfoIJaJdTKUdcU2Ytt6ZLtxF3fJwLdfaaVRfvhqC9BpiGt7cS6Nrj+BZUXa7KZSW+vtDVQE4n4OLLq3fiBOkTmkP4o3+S5p4v0YGveAXKgH4ozE/TcOzU/80l+sBUa8sHJf3LlXS3WvtuquIcdoDD3IIXqxDdVAnK5Vou8OA6ysY0nBMiz4oNi1Ixldoz5z8pwdRIihAaUwmyKPFB/UP6/SlKHUUiA5EvJqswfj7HagouIojhQfx/HTUYiKqkNcUjR+e9stuKiqDba+tgKxtmpkpZ8F1NWi5shxnEjrjk6XTEDbqgq0iU9AdU0NohNao67TQBw+XYGamlokJLZGzZk6RMXEqMfw7nqMP1/U5azF3rd+g3lLd0AP4VV8/y7mPfaqnHLau2yuo3OCY5+9ii8PaOM4uAL/fllufzoXn3wj/3rapqKbNgb8537c8+J6GHsSLliyAdru2iHFUPPUIXoM7v2LFnCr2PYiHnwk13GOuOCnOL+r8sFQl4cPH17qbBRSOf6qzWq0DB3PvchriTurxHW/9r2sMnp0BZZ7ur4AKykrR8d0X+2uOTtwuPvB91D/908rUpWHNjkaIOK8xfkTERERUePoL0uijR9RQk7vsMFIzBPLxDpiXbGNR2q7ceNx21VAof6eWCDajRuPiYb24lwaXVdLv6lz6xP7Kxooq4U1XO0ZL21XDR2Hy0xLvnXCeQNhqdF0r8cw0ANyLSkQJ4gSkSJoKwb3kpQBIfIJBmKEXqopcyImDTGUlKunGF8//wiexwyv7QV6vS/fbEHewHGyup+ojpyFPBF4PVSC4oGDMFJdSXTeofydeKmmbPXeB5L4G/S/F9vg69XFd9NCVtYxdf5EQ3VT0ValSY/NVj9z3Ml8We8zSMzvOB7Xyfx69rWXe62m2rA8ItqAu6d+T76dL8cVA42dOZRi86K/4N/4mUlbck6RkFebPxinDIePHUWHqCqUFJxCUqu2qKo+iZqivXj8X2/j/R8OICU+CpWnanGs7CSOJSRj0M2/hO3AHlSeOIVTdVE4daYO8SndcDilO0qqqpHRfwiiYlshTrQhF2X30bqE4oIsZMaLkR/xXa5e2sy7ylPGD7ntKJORtZN787BNG1V9+6MWDHOVhPQLr8evH3kBf355Kd76YCWWLr4BPeRST86e8keMyYhW8u8K/PV3LzsDbkLvTlD7iIoaiJuWa22x6cND40T0WaEHyxztuRkHY/tw3rlet9n1Bda+AyXo2d37H6u5MhwqNZR2G9BX+YgySkF2lmwnTpZ62+Kt2mnxTmwu7Y3LPLYtV584b3H+RERERNR44mXplTc/VEs8Tb/+SrVxftFBgxjEuJgnlol1TANxqkKs/6YYKBLtxclZEO3GKf8Y2ovDl//DMozH46La120dUOQopaK1MedsdF1UP1uEoqu09qCcbUL5p7rmDOrqPL+9iFJPGPgzrQF/OThfaE06dHAj9i2OYZUWkGs5gTgRjFVLRCov1GIQATlPQdvG2YgnZTVD9V6r7XQZ24fzbPUC2V7Y4xMdPfkaebv3Ss7Hs3/ehmy1Ufzf4LLi/2rV/H78CA++AvxCzQ+iHa6/mFZT9vfeR5renV0Dbcs3HFMHI/d1/PLlQXRxtD94HyYWLcJv1Wrtbp8lpp85vmj5EobPIO2zSZn/Qh6GyPw6G1u8VlP1ng+tkJ0ziOH3Y1DsIU+uf+nv2DzwN46OSNxFSl61JbVObkxKN5rNZlO7rR2Vnob+g7si59KBOFa8H/tKa/Du4m8wOC0Jp2tq0DMpFnXxCcj57T2Ij7Eh758LUFR6AnW1dYiLTURS9pVYvO4jVJw4ikkzJ+LbL77BN+u2wxanFW+0eyseJwJUT0xAe+zCu9f/HC+ZZnjREcGt6KeMbV84HHOUDz7dtH98hZv6A2Wf3I0bHjG0sTD9Ja3jgtLleOiaudiATpj4l5fxqxEpiEKN2pZaWeF+lFcrXxTZ3dAGpci970o8uU5s7DxeWXERkjM6IqquCLlzp+HJzw0dGujHqD6MvdsL4LGVvKPr8fLcV7Dz3On4w20j0VbO1hzFN8/fh7dELVJHWng+D/frrn99Co/7UHha16KbrhmPT5V7erDYU5fkooOFHBx69mUs91TVf8BP8NSU3tq48lCWl9Verqtth3zluSZLK3mX95beBpxxn+77F9NXO4J6zm1cdcpoj0svHIpX31U+FImIiIhI1SY5A7a6ajnVMCLglt2/N/r06obuXbWiI/sOFGHn7v1qez+i98yWKi42Bgmit7omUFlRHfSXXHtUHI4f8d4eVyDyhCB61f31L6c4qiaLYNzT/3qrEW3GBVco3ntx/wJxbxojGHno6dldkd27lRqAW/S/w47eUjumxGLGFamYMKItNu86pXbgEO6aMh9aEe55VdfswThBBORSElqhY0ZH3HP7lag8vQdVp2vw5bLvcOrISSQomSE5phbV7dOR3rcvsGMbTpSX40xULKJRh9h2mfj8RDW+P/gDYqKjkNotBdkj+uDTN1fj+IkK74E4oeNsPPemKJlWi93/uQZ3/dOsaG8AgnHn/h4v/vMadEEpVv2/6/BnPajmOAezINj12Dji38oxkoDTeXj11psd1WRx0Z/w3z+NR7LPYKIFIRqM69szE/37dsc7H4Z2WwNG1155Ebbt2Icde1zKMRIRERFFtEAFXsJZQkIs4uJi5VRgVFfXoLJSdqgWRMEMxgnZWaIWi1YsUbQZ6L2EZOgJtXsfKcG4wb0TcajsjCMI504E5Tq0j8GmXdbapG/pmiIfWhEJeVUXEh04KKeM4zUVOHbsJLZsP4CaM9Gw286gc0ZrxNfWotYOlNREobKkBEWffYrDZUdREx2HaHsdTp2xoSgpDQWlB9C2dQJs1VXosO8Qum3eh7ozolSchVhj0Tv4YluVMhKNXpP/hl9fkqzNVySecw3m/uEmORUAya2QqI6cwNECvXRbMkbfdpnXaqrAD1j8u4eRW1wLJA3EDX8x9JD6+efIV0vQ9sYVj9yNoaL5O11SX1z5yPP4tcVqqEHRvicGdJfjFomAVvHhI7h8zHA5J7SJ8xTny0AcEREREflLvIyKl9JAaa5AXHMQwbc/P/OaOrS0QJzAe988RJDNLBAniGWREogTAp0PrYi0vBoSwThRcO1MbR3KTpZj+84fcPrUGcTFxsKe3haVtUBy1Um0ra5AbE0t4uISEa+sn3CmEkUnTqGyXWfsKdqFmPhY1JysQHacDZOHDMB3pSdwsqLKQucNwkEsfvLf2HZSBLrOxoQ/foxlH3+Ktz5YjTdf+j1GdomR6wXAD/tQLOJ+6IFJC1crx1CO8/EHmJ1ahP3qCl6czsWT97yI7aeVG5cxAfe9PFcG5FbgqX/k4midCB5OxZ+WrsG7Yr+iLbr/vYo7L86E2iRec9t1UPY62xvXqNe+Gk9OV5dYsmbDVpw8XaGWOBNVQEOROC9xfuI8xfkSERERkRtrD+gRT7yUiupajWm/SWwr9tGsL7i8334Lm3tPLVog8qEVkZpXQ6RknPiMtqPiTDW+3rYbJ0+fQVStHYlnd8LOMZdi46CR2NP9XBzs2B17ouKxq9KOVVUZ2GtLRdvYJBw8eRpHjh9H+7oadExKwn/ydmL5/h/VfVq272Xc87O78eaG/SivqEFsYhu0PisKNUXbsPyjXLlSABS9jHlPvIkdxVWoi01UjhGPyh2v4KHfrcMpuYpXynn+v8eWo6QOiO10FX7315lqo4cVH/0et977b2wsKENFbTyS2ojzj0Vt8Tbkvvgn/FOvKtqc1j2Bfyz9HkerapWTV649sRonjsplFokAl6j6KdpiE6XPzjm7C1q30osINg9xfHEe4nzEeYnzYyCOiIiIyLPaujOwwyanyBvRbtLJkxXqi2pNTa18Kfb2jmNX1xHrim3Ets3ZELq4z+J++1JbW8M84aal3/tAUfOQkj98YR5qGv7nQysiO6/qQqLNOCPRflz/Hp1w+/XZqI5OwuvVvXGk6gyqv8/HqYJ9qDp0SK3GesSegatTopDe/iy8tXUTEuKjcXaMDWcqq7FTLREXUpdFTUC0I9e9a7qSB1JwVqtG9GzTSCdPVaKkrFztNZXVUomIiIi8i0tohYSEJNjsLf/li7yz22JQWXka1ZXeix0wT4Su5m6Hi3mIrGopeVUXcsE4QQTkMtLa4PILz0VslxEo2rMHh8sPoaikFLV1taitqEaXWmBM+2Rss8fg2yOlSImLwu6Sw6iuqWUgjoiIiIgohLVqk4KYKJvy9iLaeKawZIvCmTo7Th0vlzO8Y54ITc0a4GAeIj+0pLwqhGQwTrCpJUxtSE5NxTl9+yHh1CmcVIaK6DNIO1KGNjV2nGnTDltPnkb5iaM4XSkS3c4mCYiIiIiIQlxUdAwSW7VBdFS08ghfqzz18yE+XKhVBW3RaiGKilPHUVdrraRStJInEpgnQk5zBDiMeahSyUO1zENkQUvKq0LIBuN0opScOEERm9MCdE4i8KYvY2k4IiIiIqKWRVQti42LV16eY+o/7FPLo7yTiTbiaqqrLFfVcufIE9Gxcg5FGtHuFvMQtQSNyashH4wjIiIiIiIiIiIKFyHTmyoREREREREREVG4YzCOiIiIiIiIiIgoSBiMIyIiIiIiIiIiChIG44iIiIiIiIiIiIKEwTgiIiIiIiIiIqIgYTCOiIiIiIiIiIgoSBiMIyIiIiIiIiIiChIG44iIiIiIiIiIiIKEwTgiIiIiIiIiIqIgYTCOiIiIiIiIiIgoSBiMIyIiIiIiIiIiChIG44iIiIiIiIiIiIKEwTgiIiIiIiIiIqIgYTCOiIiIiIiIiIgoSBiMIyIiIiIiIiIiChIG44iIiIiIiIiIiIKEwTgiIiIiIiIiIqIgsSW1TrbL8WZz+00T5RgREREREREREVH4+cery9R/QyIYR0REREREREREFAlYTZWIiIiIiIiIiChIGIwjIiIiIiIiIiIKEgbjiIiIiIiIiIiIgoTBOCIiIiIiIiIioiBhMI6IiIiIiIiIiChIGIwjIiIiIiIiIiIKEgbjiIiIiIiIiIiIgoTBOCIiIiIiIiIioiBhMI6IiIiIiIiIiChIGIwjIiIiIiIiIiIKEgbjiIiIiIiIiIiIgoTBOCIiIiIiIiIioiBhMI6IiIiIiIiIiChIGIwjIiIiIiIiIiIKEgbjiIiIiIiIiIiIgoTBOCIiIiIiIiIioiBhMI6IiIiIiIiIiChIGIwjIiIiIiIiIiIKEgbjiIiIiIiIiIiIgoTBOCIiIiIiIiIioiBhMI6IiIiIiIiIiChIGIwjIiIiIiIiIiIKEgbjiIiIiIiIiIiIgsSW1DrZLsdDQlxCK8TGxSM6KkY5O5ucSyHJbkdt3RnUVFehuvKUnElERFZkZ/XCOd07I7V9WzmHiELN4bJj+H7fj9icv1vO8Q+fawMoAM+d8X3bIK5rIqJax8IWxfsRDPY6O+pO1KD6QAWqdhyXc4mIKGSCcVHRMUhs1UZ5WIlWPrVrYUNIxQjJhF25U7BFKw9Htag4dRx1tWfkEiIi8qRdm7MwftRQHDl+Att27kNRSblcQkShpmN6Cvr36Y7kNq2xYs03OHr8pFziHZ9rm0ZDnzujW8ci6fwURLeLUSbqYLPxfgST3a7ct9oo1B49g9NflqP2RI1cQkQUuUImGNeqTQpixC9U9jo5h1oUWxTO1Nlx6jhfKomIvJly5cXY+UMhtmzfI+cQUagb1K8n+pzdBW99uFrO8Y7PtU3Mz+fO1uMyEJMcrQbiqBnVKvftSC1OfFIsZxARRa6QaDNOFOHXfjnkF2SLpdw7cQ/FvSQiIs9E1VRRIo6BOKKWRfzNir9d8TfsC59rg8CP505RNVUvEUfNTLkH4l6Ie0JEFOlCIhgn2tIQRfiphVPuoXoviYjII9FGnKiaSkQtj/jbFX/DvvC5NkgsPneKNuIYiAshyr1Q7wkRUYQLiWCcaNSWbWm0fOIeqg0UExGRR6KzBrYRR9Qyib9dKx2u8Lk2OKw+d6qdNbCNuJAh7oW4J0REkS4kgnHsXSqM8F4SERFRJOOzUPBYSGv2mhp6eE+IiEIlGEdERERERERERBQBGIwjIiIiIiIiIiIKEltS6+Rmb0ShTXIGbHXVcopaMntUHI4faXh35Z06pOGm669ESrs2WPPlJrz/8Rq5RHP1hFEYNqgfKiqr8OqbH+LgoVK5hAJhWHY/XH3ZKCQm1G8Q+WBRKd5a9inTnKgRbr9pIv7x6jI5RURNKS2jA9q1S0Z8QoIyZfb7cx2qKitx9OgRlBYfkvPMWfkb5nNt8Fh57mx3bVfYYmvkFIUCe00sjr5zQE4REUUmloyjkDJ96pVISohH/o49GHX+YDU4pBPjo0YMxt59heo6ImhHgTXxslFqsO2TVV/WG1KS2+BX03+qBkyJiIhCVVx8Inr3ORdJSa1QUlKCXTt3KMN2k2GHuo5YV2wjtiUiIiJqai0+GJeRloI7Zk7GA7+5EeMuGibnOo27eBjm3Ha9uo5Yl0Jbcts22L2vEJ+s/kpOn6X+K+jjYtkeZR1Reo4CKyEhXg12ijR2H1545f8gmttlQI6oeYkfJn7zy2l48o+z1UGMDx10rlxKRN26d8eJ48dxqOggKitOy7nmxDpiXbGN2JbI3f2X34WXbnpKTjn9b/bruG/CXXKKWq6ZmP/5V/jo3XkYIecQETW1Fh+Mu+7qi5EQH4fv9xzA8CHnYlC/nnIJ1PHhg89FQWGxus61yroU2tZs2IT+fXviN7+ahsrKKnyzZYdcAnVczBPLspR1xLpW9brtHXykfMk+NEHO8GDw1N/hqUeMw08wWC4LnlRMmD0TEzLkZAgRJeb8CcjpaV5/mI9L5TpAX8z6j2HZf2ajl1zirv79kcPsHHSQ6xCFMxEsF4G3KT+5FBVVVY5Sq2L8+knj1GVincY46+yBGDf6fJfhgrOT5NLmkoSew+W5DO6v/DsQPVuJ+e0xaHRvhODHJTUjUTW1puYMjhwpl3OsE9uIbcU+mlXmRPxt0bO493w57Y1Y9/GJOFtO1uNrObrgZ48/izeU4/1t9mzl3wfxs0wxfxjuXfRL8MlZC8RN6D8WWwrz5RynNbs24PIBYxsVkDtn9HNYfc8S5zBrOs6Ry/yWMR2vN2b7sDUeD7yvPWsu/ds0sPwrEYWCFh+Ma9vmLOwvLMbnX+ap023aqE/oKn1cLBMBuXbKuiHn/F/ijdn1S/RFqveXr8E3W7ar43//52KUHz2ujgtiXMwTxDpiXWuuwg3T1CdLn0pyF+HuB/+qDq/l98aNER7oEYFP8YKv8ycgt/v5a3H5RcMNwzxsUOYXLn4Rn6priEDcq7i26xrM15d3vQHPmATkNr2h3Ze7H3wfediF1+R9unvBWvhu5Yeo5btV+ZsT1cXF3+A/lUEvtSrGxTyx7NabfirX9pcIbJ2PkUk/ulRP/+TrQiCpEa8t6b0xLqu9nGiYs87uhR6ndqnns27TNuXfPOw5JRcSuRFtxB09ahKI630b/vHybXD+bFuf2FbsozldPGk8ir7Nw5DhTf98ePa1v8DEokWYOuNO/HbBAuXfR/DfArmQHIG45dtW4pmVC+Vcp8c/ekZd1rCA3Bg8fs8SvNjzK9zyl8m4WB82dMYv+stVKDAuuQQD2wJ1dbWIH3w5pnaU85vVZbjt5aV4979zWRqPKEK1+GDcV5u+Q5+eXXHzz69EZVU1tm7fK5dAHRfzxLJzlHXEuhT6yo9oAThjIE6nl/rYs++g+q9vIuAzF53XroHySumXTfm75FiEE5E3A39LyOl63TZDedhYgzef10s79kLXrso/a3NlcO4DvL5YeQPo2g2sJETkSlRNFX9ri978UK1K7k7ME8s6dUxzaWvTqoys3kgv3YVP8svkHOlUIda5z2sGp05XyDEi70RnDRWnfVdNNSO21Tp8aC7DMGJIHjYs+BbfDhkSlJJpRQf5k5YnxkCcCLqZaWhAbsJPZ+OCPQtw8cJX8L2cp9r2GO7fJscpAJLw06suQBvswooPlffEqN4YMrGTXNacOqNXr05Iio+R00QUacKiN9Wrx1+Agf164rmXl+Do8ZNyrkaUhhPtxeVt34P3V6yTc60QxfZ/Aby3BefdOh7qDyjfLsLUBcC9i2ZgiLpOHp6f8S+sVscVopTbrQPlRDGWzXX+unj2tQ/i8av0yjTadgUu85Tdv3AnnvxSjImqAfoxjPPdzykPU5X9+EMEJa+7erSccvXJ6o2NDlg2tjdVYdzFw9XqSKLHVI+9espgkKiy6ouoKvnMhZ/jroeB3790A358bDgeWi4XuhHVIC8rWYQnVh5WpkR10RnI3macngjk7kT2lJFIV0tmvYdNA36Cp6b0VrcHyrHi2ZexXL18uf6ba9Hhzquh5Qq5jTouaMcY74hlieVrkeFzuz6Y8Yi+TMlNb/0Vi7Zq4x3GzsS9Y/S2Ed238020P6WWhlmttdnnjQgMiJI64gPkabdSjPVdhYc+n4vOi2/CLY5gHHDp419hTo4oGTcHn8p1Rqydh8vv/0Cu4Ym4/r7Yol+b6T0Q3NIqdz069AcWydJ0jU0vIn81tDdVUUpV0EsHm1HXU/4o//4v7+u5aNUFF5yXguKvrZQ4E1VGB6KHXnP1dCHWf1UI129ejajyOrKbs4pryfYvsaVEjFndh9t6ipLtu4B+KTi0apfyLStK8+njglZtNV0dNx6PIkn/QUPVjhncjX14NWaPlBPS13+5GI9+IicMevfph21bvpFTrpq8N1XxLDn8W+V5cyMunv0sJh18Ar99xxiAd3tG/GAFOg4FFty/DD+oc3wt14lnyvsw0VBC6NsXFgG3DsEG9dlW7EcfF8yeTf0T6OfQpupNdUbO9fjFBVN9BuKM9ODdv9e9gUVr35RzTYjqpDcNxxev3oEXvJ5+D9w6az6m6Y8q5Utxi0vwTpSum40L5NS6r5eia09gnmMdt+UfTW5QoG9U7xH406T75JSrZ1e+jLe/eV9OWRPU3lSTZmL+/25Fvx/fxW9+V4HZb96AHgeX4p6pj8GZFKLNOGWd0uX48z8qcd1vr0SPNrGoqypG/uKH8ceXN0L/SSjxnGvwy7tvxMW9OyExFso65Ti4+f/wzB//hTz1dwDnvh66Zq5aK0SY9o+vcFP/UuTedyWe7P0SPpqlP51KbusTUfhr8SXjBD0A5x6IE+Lj49R/RTVV/2Vg4k+UB5gZd2LqjEX4dsgMvLHochTOFdN34v4PMnCboYrpxV0O4X51XWVQvlkn3ibb6MiciNlXFeN5x7Jv1fV/eOcRZTxPeaLRqgc4A24z0PGDJ7R1lePiVr39DsF4Tv4F4gTRtt4HHoKSIlgZaiUH1Y4EjNWllOGt9z61HIjDhPl4RnkvfefhBdgtZ/mSPmaGbItsBsZjPRapgThdCsaPARap1SO1oM3gtMN4Uq8u+VYZxl9vrNaqrH+nCBppy9Vqr1P7yGUyEFfyvratMjyZqx/L13ZXo4OjOq3y8DNFtjGXkYMZY8rgqL75ljPoZZUIdF54/mBLpd2MJeSuvmyUNtOEViquAF9+5npOn94/HPPXjsIctc04K4G4+szvgXtaLcKh/iKQKgUgvYiCRfxNil6mfRHriNJxfmmViFany1FsNRAnq4yKYX1pCkYO7wJPjUCc/CEPn2wvU14wtPVdAnGW9nEae75Slu8/jVP7lX059uGJ2G9vtJLrfbJKBO30tuWIgJV/vBiT7ngDBwvfwJzxyrgyeArENbeLlb+Pb7/aqI6v/ioPHYcOMbT35v6MeCc2dJI/GKt8LTcqxH/vF8+yxSiS65sH13w9m1rXkp5DBXtTFVlI64yu5V9hpZVA3JEFjiqst+wZjhcdbcKJ5bPR9es5juWrUyZBVDrQuC9fAFz+HG5tQEObom28JzwEJUWw0t9AXLB1uHE0+ipvvIXKee4segebxEtBp2G4ZJC23EXC+bhtznCUr34NSz7ZhiNRGRgw46948KfyV6HuM/GnBb/HhL6tceTbpVj8ylJ8ezgWnUbcjIf+OhOW/yQ2vads+wWKxPiJfHz8ystY/PZK7FcXElGkCItgnE70mip6VTUOoopqcWk5dihf/v4rxrLn9V8SN+Jt9YHl347Sbj98tQVFHTs5HpJWv2P41fHLb/Ftxw6GD+UMdNYnvtzoLE3n7vwrMBErsMDxK+hGbPg2A+cpLyq6b99z/3XTP1uUBx7jg5D/pQaD45U3P3S0iaQPGzdvtxaIO2c2XvzDKGx47FosdCn7752xzbi7c1Nxr1snDnm5ru2TbVppmN66A3lpqYaHXlFKy1nSalPuepSkp2qBogE5GJ+2C6+9sVNdJhxS9qWt62M7lyDhTmzJT0F2Vqqcbo8M/SFr606/S3mJ4NqRo8f9qn7q+zm1Ly6+UMn8Bz7Hapd7oXXeMCfzddwl25Wbj7luHTz4ZnoPMvogW0njjx1pdRjL31TSUk5pGpdeRMEk2oTzRaxj6TPSB5eOHPRAWasUZCSVIc9QbfXkD7uxF8p8q0GvQOzDk/TOymtnIfJ+0KsnluFQaRIy0g3F6ohCXeZETBJVVPWgmPosOQgj9efHzCE4r2MelhpKyq1eukJ7oRd8LW8oC8+m/mgJz6GiZJs/VU+NVVp9loqzKmMULkz5Go//X66cAXy/aj4WYzjGqj/CastfX+Vsomf52qVwvPH0n4ppWIp5juW5WL2nEy48t4ec9s9HyrUZA3L+lBpsPtm4fkxf5YW3AFs+EiVmD2LNNvEi1wUXXDteXcNF65NYd/8kPPiXF/CvR2biln9+jSokod+FV6uLR8+ain5Jtdj71s2Ydc9jeHXhY3hw2hysOAgk9r8GU/UiiL7kva9suw1HxHjlAaxf+AJefWMV20AmijBhFYwTpd8+/3KLyyC+7F975xNUVTW8Gqxlsvcr0SPVG4ai/ChYht/O3YLz5mnLfPaO1XE8Hnfs51nc5tiRUIxCq82leaE/CIlfIUPtAUh/4Uxp5/vF08ylv7hB+ZoFRvxB9tL5kmHaS4+dLrauxYrS3hg0QE6jHIfcS2Vk5OA+R8+ezuqQlpQebtgDctpI3Os45u9wY5acX7wWTzy7E9l3avNnOM7bOvESbzUgJ5aJdUTJuPc/9tKZxjnjcX5XoPCLFa4lFCfcgmuV+Rtec5Zc/PTfryuv08rDpZdeb+sxuwfpqUj3lsYBSC+iYBElUTum+w6Qd8xIw4/Kun45VYFTSYkwxsLUUm2ihNnXhXAUmFNL0CnryskGCcQ+zCR1wUg9gKgMA/0sIEjU3M4ePggdlW+x2xzPgOJZMgMTJ8laGJ06oGPRIZj2r+BreWN4fTb1Xyg/h+qstgVntW05F6U/4kCK+BHBC7X03I9whtrc+FoupEzCi4aeWu/31nuJBXpA7p1vPmgBgTjFoCswSDQPd/BbrJIFL3d+9LXajnSbIePq//hbug3K66NDxQdbsE/5N75rH+VvcQSG9m2nTO3El4uMxSI248t88b2bhgy91RQiIgvCKhj39vursObLPJdBfNkHJRAn2viY1wFLZbUAtVqrXKQSATlH0X4fAbmiFc7qrnJwbS8kMETaiPY5QsnVE0Zh6CCt8fFf/2pagwNyovqjS0+eN4sgD7DhMWX859arrXol2iq7MxUf6yXp1F4+g6B0vbNaphy0du0UIsAkzwVTmi4gZwzEiXW9tRfX65KL0MVDFdWA8PceiACdHFUFIL2IguGLDVvU6qejRhjL6roSy8Tf5jdb/PxbO1WO4tPt0fNsC6XI3IJ2DRKIfXgi2p6TVV/1YZ2jpByRYtcP+LFLJrrJydDSBSOHZqhtsRmf/9TmTIwdObjUulCIAJwcVfla3lBN8Gwais+h7nwF5BoUiBOK1+CL8vNww2gfpdR8Bezcl4sAnRxViTbmZBVWfbjBUJKuIURAzlPPsqFo9LWjtfzfaRL+ojaJogz/vEb9gR6tz8elU3x873VL1r6vThxFAMpCEBG5CItgnOikwfhvszH8Gnn2tZc7S8ad/0tD8O0QCr0Vh1KrJIzH7GsbVvS/pRMvk6LNI9FIuei8YeigvnJJ8HUYO1GtSrpFdo7gkaHkVYexOdZLxqnVKUdixli9eqm2vflrtuRhO4cBPzEEk0QVLTnaAN4Ccu6BOFFix5xZFVXF8ly1kdoRNzpLKmolGpUHVJNONjwyuwf10ioVE8YYfrIMYHoRNTVRRV/8rV06ejguHJEt5zqJz06xTHR8I9b1z2nsyVdeqrsNxLis9nKeByU/Yu/p9hhoWOess3uhx6kfLXT8IAViH56UlKMkqQsGWgkoUtiz2cQ3lCfLsX79BZi9YjWWKsMD4+RsA/Ntm5isYuqooqr78n9YVjQQI8RzpHhGVL7lJjmeEbvgZz8xPHn4Wt5QEf5sqgfkLjpnhJzjJDo28DsQp9qLFz5YCpw3H6t/OkbOk/r/AY/3V/7d9gYWl5+H+w3Lzxk9B9OOvKN1+rBtPdbBGNDrgVtHnCfHFWJ5yiTM9RXwC1tX4aIhoiTbaRza/i3yNhuGgqPK/HgMGD0Vieq6UvueGGDo0j9zzECIgnXHf9yhvMFtwK4DohmInhg61dmSo/LWh+xe4jm5EAWbxfQP4isJSFP25YiEX4iuDWirj4jCW4vvTXXcxcMwfPC56nhlVTUW/udDjx05+E80VvsL4HnXHlFn49/OXwJFtdTb9B6qxPrOXqmKPliBoqs6aL1QifXmGRrQVXtl1X8JdPZOZdabKhy9ttY/p1DT2N5U7//NDCTEx2PPvkL079tT7bDB/xdLD0QbchZ6U3VU+VQZe9cUnQGIXk6NPXXKThhknKokdz0OjUmVvXx6WF9Up7ze2ZOne0+faom3BTuR7e92+nmK9e40dFCQ/z7uNrRJ1xAJCfFqj6nJ7drgn6/8nzrPeiBO8NVDqlwupwC9Z1VvjL2persHCpc0KceKt5T0FZ1wiLRsgvQi8qWhvakK+t+jCIiL0qj635+YFqWIRRBdrCM+M8Vnp//q914qXmL2uvSy6tpjqbfeVDXO9Z29m/q3D9F+3UDslqXcjD2oGscFt/2iDHmOZRQp+g8ajP37fkB1VcPaToxTnkG6dT8b27Z4bkW0qXpTFT2n3gbj86GT2iN/p4+0ZS7PlMVY9sIWnCc69tJ7S/W13I3rs62xB1Xvvak6n02bV1P1pho8br2lCnsW4GJHO3GuvaHW601V7ZVV77ThIBZ/9BUuVB6qzHpTBb7G4395DP785tkUgtGbauKU57D4zvMQX6/nVEXHO/DM4unohR14a9pN+HeR7AG1rhY1pw9iS+4nOJw+DqPO64pWynP2uzN+jpdEfdVBc/DPp65HZvQJHPz6M6zeAfS+9BIM6ZyEig1/x433vIkK5bv0p3/7GLcMjUdF0TqsXlGC1PHKOhmtERUle1NVa2ZfhbkfzsXI1qdRsPo95VsuCp8/OJ+9qRJFkBYfjBOdNIiemT7/Mk/trEG0Eyeqp1LzaGwwTrxUTp96JZLbtsGaDZvw/nIvbZFRUBgDcoL1QFwIEtVas3Yw6EbNpjHBON2w7H7Ky9Yg9fNSBOBEG3GiaqoIwl0/6VK1qn/DA3JELVvvPueiouI0SktMu971Ki09HYmJSdi103PPnk0VjKOGafnBuMjU9MG4TvjFS+9iyjnA7v9cg7v+6V7J1BkwK3r/l5j5lyFaMK50BRZ+2B4Tp2UjLR6oKv4Oy1+Ygxc+U7taUCUO+SX+cPdPMaBLCuKjgJqKg9jz6SL87S9Lne01dp+Eex+8Axf2bovYmmPYu+o55HX8Ayb1NwbjgMwpf8efbhmhHWvXW/j9rL+BT6hEkaPFB+PunDkZ8fFx2F9YjD49u6qNwYo2KKh5NDYYR6FJBOSu/4nWzK3orMFbG3GhSytRiLf+ikXeqh4TNaFABON8YUCOIllaRgckJ7dHeVkJTpzwr6ZE69ZnIaV9Oo4cKUNpsed+DRmMCy0MxrVMwSgZR0QU6lp8m3Fvv79a7aBBBOJEj0wMxBEFnih988qbH6pDywnEiSqsei+rWk+rDMRRJHhz6af4Zst2tao/UaQRQTS7vQ5t27ZFSvsUxMXHeW0HTiwT64h1xTZiW7NAHBEREVGgtPiScRRaWDKOiMhcMErGEUW6uLh4dMpIRnRMHOps0UBUtGlAzm5XHoPrahFlr0XtmWocLD6C6mrz9uZYMi60sGRcy8SScUREoVIyTjwIUXjgvSQiIqJmJIJp+w4cwtGjR5WX/grE2qsRU+d5EMvEOmJdsY23QJxlfBYKHgtpba/j/Qg1vCdEREB0bHziQ3K82cTExau/WDZTZ/IUIHblDtba61BTVSHnEBGR0dldOqD82AmcPMXPSaKmVlFZpfawX3bkmNdBrCPW9aVjegrSktsif9d+OcczPtcGh9XnzrguibAlRin3RM6gZmW321B3tBbVex3ddBMRRaSQKBlXI36FFNUIqGVT7qF6L4mIyKPv9/2I/n26yykiaknE3674G/aFz7VBYvG5s/pABVDb4pvJDh/KvVDvCRFRhAuJb6bqylOoratVvlT5RdliKfdO3ENxL4mIyLPN+buR3KY1BvVj5wpELYn4mxV/u+Jv2Bc+1waBH8+dVTuOo/boGQbkQoFyD8S9EPeEiCjShUQ1VaH2TI04GeW7NUaZEgXPqSVQ75QtRnkgqkPFqeMQvZAREZG5H4vLMGJQX3Tq0F6tGscqq0ShS1RNHTnkXHTpkIYVa75BZZW1jhn4XNs0GvrcWVtajejUBNjilPshdsEbElSiaipqo1F7tBanvyyHvZrvC0REIdGbqlFcQivExsUjWjy88JsytNntysPQGbWKAEvEERH5JzurF87p3hmp7dvKOUQUag6XHVOrplopEecJn2sDKADPnfF92yCuayKiWsfCFsX7EQyis4a6EzVq1VSWiCMicgq5YBwREREREREREVG4YuMJREREREREREREQcJgHBERERERERERUZAwGEdERERERERERBQkDMYREREREREREREFCYNxREREREREREREQcJgHBERERERERERUZAwGEdERERERERERBQkDMYREREREREREREFCYNxREREREREREREQcJgHBERERERERERUZAwGEdERERERERERBQkDMYREREREREREREFCYNxREREREREREREQcJgHBERERERERERUZAwGEdERERERERERBQktqTWyXY5HhKys3rhnO6dkdq+rZxDRERERERELdHhsmP4ft+P2Jy/W84hIqKQCca1a3MWxo8aiiPHT2D77gMoLTsOWxQL7hEREREREbVE9ro6pLVvg369uiK5TWusWPMNjh4/KZcSEUWukAnGTbnyYvUXk+27DjAIR0REREREFCZEUK5f765qDai3Plwt5xIRRa6QiHqJqqlqiTgG4oiIiIiIiMKKeMcT73rinU+8+4WEC+bh9c8/xL0XyOlmNu0fX+Gjd+dhhJxuEPWavsL86XI6nIXY/bOkme5PQ/KWpW2mv4SP/LkH6vovYZqc9Hv7MBMSkS/xC4momspAHBERERERUfhRA3LKO59492tqaiDhc7Mhcl/+m4qn9NYDTiMe/FCdfv3BC7UZHs3EfLFdY4ORRC1ISES/RGcNoo04IiIiIiIiCk/inS8YHfUtvn04Lr9IGx76pFQ58HI8JKcvv+hKPLlOrhhC1HO+Zi42yOkGWTcXNyjXOOcVOd3UZEmvK4vudqS3OizMQ0amIfhWqtyD7PHmgbbpF6CfHA1rAb8/WhDTV0m7huQt923UoKp7sPSVmxv399TY7Vu4kCmKxlJxRERERERE4YvvfOFkJuY/MQHFC4fjhke+kPOkV26uPy9tAqZ4DBpdiHsnDsT2bXlymigy8NOQiIiIiIiIIpSsIimH+tUpXZdba0frJUxT/3XdRq+y6Wk/alXPf8yUUwrj9mKwssy9HTX9XGQJNn39eiWp3Ja//uBM3Puu96qlIx68Bv1Kl+MtS6W8vsGHn5Si3wjDNeguGI+BaXnY6KHYlkt6qedloaqrsU2yht47r3niQpk2WhqJ5c70dDuee5Vo9/uj8n2O7umg3m/1XG9VSxT2m6XNNysh55639GnX/RrTzbiNdr0PjUtTA6oPiXX1c3Skl5N7lWWvpfaM26vjrtuqgzE93PKp8Zq835fQxGAcERERERERRaA0jHniAmw0VK9sP+5+Q7BEBEpuBRbK5crwavEEPOQrqIOBuGnEOrnNC9gugxgPdXzXZd5dZsElEXSY1RG59+nHVdaXi7wu80g5lznAM+q6WrXdfrMMARSxP1nCTdvfcHzY8VaMSZPLPboQF2enoWzzCstVH/c+8i6297+mXnt9026YAHyyCIvltNNMTHGklzLctxwY95RJgEUEYm5Fv20vKOveLPfViHv3uSFPyOO6BwLbj7sGmK+to1Y7VQNFtyLjE0OV3YVFSv7yFhTyfY4iuPXQuCK8qu9Tv99qFU9tfLvc3q/qr/1vxV14XO7zbuSWKtftEtzSfYEnr3Gr7m1W5VVJg2HGKsvK31O/WRbbaFSvR24ntwXy8Kp+LDWfDkWeI98r55xxq1tAzsN9CWEMxhEREREREVFE2r5QD94oXlmE3NI0DLxEC7yopb+2veDyUr/49eUoSxuKi70GGPLw6u0vy/GX8ZYIZHiY196sHbXendAeRTjgaEvrZczRt/W2zKNS5M53Bk82iKAYBmKYDBCJYFh792u8XQRn5IQXxQVuVVG9ehkbtznTVjMTw/rn4UP3Kq0qt+tatwJ5yjm5tEWnEoG4pzAGy/GQYf2G3zslve4z5Il1c/GMp3u17V2Xts70dHSpnvvKzXh1GzyXCFT4PMcL5uHK/m7n4/N+W1S6HM84zvULPLksD+h/gUspN78paTXH5frXKXktDRm95bRVIvA2a6DL36YWtH3ckOYm5+x2X0IZg3FEREREREQUgUpRvEuOetCjY5pagshRLU4MT0xAe7ncL6UHsVeO+qQGBUUJLQ9VM70t88gYuHN3IbpmANs3NCy4Uz8w5p0INGHcDEfwRAtGrTMEmtwZq3A+5bG03sA5MhDnVlqr4feufnptKCgC0jqhh5wWyoq+l2OCeTou3pCnJFR3j0FXn+coAq+l32B1UwSXivdZLtXoF7WEoH49WjVa/1yIe+e4B4i19G0/7inXtJo1UC53cr0voY3BOCIiIiIiIiIPyozVDh1DU/cAqVUNFNUQi2UAwhl487YsWL7AgWKgfcdz5LRF6+biw216qTxR1RXIfd1zIFBrz8xYhdNTaT0RnVNmugXKdM1z7/zTEs7RKrW9OJeqpL6qUNc34sH765Vy1OnVcV0HY6nBloXBOCIiIiIiIiI3e4u8VCUNipcx5yKtva765+FtmX/qV6M8BxkeSqEZqSW+PLQB54soHZcxcR5GTJ+BMcVmVQplm3Sf3O1ShbO+UuTNvxKvbhMlBV07EgjkvZs2YiDgtQSfFpz0VB1V3dakFJrPc9x10EK12lAhqhyLgFkjAokXzMNd4+BSrVpjnr4tGYNxRERERERERG42fPYNyup1tDAT8z02dB9A018yb/Tf2zK/6e1u3eqyz2n/sFC98JWb8dAn8NxBgXKOpqX1RNtvGIq7JnY0LRXnqeSdWmLKJEC4+Pbh9QJyDb93yn6MnTwo13KTCDL5qMqrtvWmpKPLdavblppep89zVEsSik5GjIFG4zV8j2KP7egFnqequq7qn4ulfOSgXNcT7u3COWnBX9d8KoJ3883yWQvAYBwRERERERGRu3VzcYPsTdPZVtU1KDYNIgVOv1n68b7CQ9nfuLSJ5m2Z30Qvlmqvl859DttgrQOHDY9cqfY2mmHYVh1mwaRTBkEEAIvQHt7bQlt8+wvYbmhP7S686/WctE4ntLb01IBNg+9dHl5d1knt/Va7FtGRgIWeOT0dT0mHV71VObVwjs5Ao778ViXh9eVaMFVvSy1wQVoPDG0VfuSxR1rlXOa7XsuwDdarqeqBu3rtwunH8pBPP3qiEzaa5rPQZ0tqnWyX483m9psmYuFbn8gpIiIiIiIiCkezpozDP15dJqcoNGk9lA7cfLdr76DhbvpLMoDWRO2Qic4NnuiED1twO2cUOCwZR0RERERERESaC8ZjYFop8j6LoEBcMIjeUeUoUcQG42w2Mdjkv85xIiIiIiIioohQr303re2u9tvMOleghrkQ904ciLJPFrFUHKkiKxgnA26XXzYS/3ruT/jwvVfw63t/hS6/moBLfn8dJt9zLc654hwtKMfIHBEREREREYWzXQfd2iy7Ff22vYDLb2/6dvEiw0zMV9P1KYwpfiGyqv2SV5HRZpwIwilXmd6+Dd5+7U/oc04vnDh5EomJiYiJSsU9ixdiQ8eTOLsuEwk9otFT2ST377nY9OGXsIuYnL3Zk4iIiIiIKGJ1TG+P7P69cXZmJ3TM0Cp6FRWX4YeCg9i8bReKSsrUeRT62GYcEREQHRuf+JAcbzbnDeqDTfl75VSAiUCc8k90XAza9UhBv9RKtIo9isqKYpQVbcfJE8dw2fCL8HXxQXwZcxzV7dqhoFcP1Fw+EraUDJxetZGl5IiIiIiImkFCQhzGXXQefnrlaHTtnIHD5Uexaev3+KGgCLGx0RgyoA/OG3yu+rgu5lHoG5LVE19v2SmniIgiU9gH40QorramFsfOVKBDelv0jInB3h0/oOC7H7Dl8z1Y+95qtG8NXDU4B3FpbbEr2YZq2NE6tj3iuvbGjR064MtVDe4omoiIiIiI/PTAr6dj9w+F+OkVF2Ngv15Yt3ErXn17Ob7evAP7DhSpw9bv9mL9N9sQExONi87PVkvNbdr2vdwDhSoG44iIwj0YZ7MhJi4BHTpm4MIhndH54FFUF5Th2L7DOKOMp9ZVoU1sDDZ98R2iy06gb1QqOhedwdCu3dArOhb3p3TG2R1S8PEna3Di2Em5UyIiIiIiakrjRw9XS7wlt22NJf9bjTVfbsGZM7VyqZOYJ4J2x46fxMhh/dWSdGKaQheDcUREYd6Bg02UcGvdDr+dMQrnVJ3B2TE2pHdsjXMHdECPgZ1RndEe7VITENM2Fi8v/RTX/3YedrywFMcffheHn/8Mry/4J26/4xFM7NlV3ZdVYx9ejaUrxPA4xsp5rs7B9JeV5S/fprZPF2g9b3ldOfbrmN5bTDXtsYJp4DV34PEHjMMEDJTLIkK/Cco1/wyXpsnpFmDIb0biysXXySkiIiJrMi76GR7/1QhkyGnB+Rzg9l2ofj+6PROo87T1775Ia19Mpc9X990LN5h+r3pbZk3/Sbfgkd9rw+wLk+XcpnY2pv3+WoxNlZNhoKKyWm0bzuj2X/wU5/buLqc03279Xi09d8GwAWoAzxv1WdnxbCyfldVn99V4YJw6UzPuccf8f9xyjpzpies+mvW5u/dt+IfjPYCIiEJVWAfjamqB3/xiHOJPHMXB7w4ipXUcopUrXnsC+KykBpWnqrFi6494NHcT1lbV4HRSayQnVaIwbz1eWPw23v1gJTJtJ7F57wHYYuLlXn1QvrRnjwS+/svFmDT+fqyUsykwSte8gfsffU4dFu/oiWluD+phbfty5br/i09L5XSIE4G4bpf0QNEG/jpNRET+6IVxo1yDVyIQd2mp/gygfxe2x6W/ugOPnwvkq2vpeuGGySn47F9i3Y9RMuoyGVQT83sif4ky/58bUKyu20RShyB954t48M9i+BSlOZeEVYAsmBIT4vCLaVfJKY3ozKFDeoqccvpyo5YTzh+Wpf7r2QRMva6rHBd64MBi8dyuDHe8gc736D+mT8AD93TFkjvEssfx43VzPQe41ODXi+ii70MMjwMXGoN6wbTredw+/ga8sktMKNfAwBwRUUgK22CcaMRVVE8dOrg3TldWI6FVAiqqapFSXY1hx45iyInjiD5yAkvz9yvLWqN329aYl9MJ1wxLQU6P1ugapzyytY1H5dA0bOmfhKg6u6V+HHp2F1/uB1C4T5v27Hu8MlP5op75PPbIOeS/vO+YeqFKD8Tt/2wvvv37ejmXiIjIt4yLhgNrNsL521MvDEzdiP987t5bZhk+/edzuP/d3XJaSmuP9MN7sFXdwW7k7UhGB0cJtyM4FIwftQ5/i5XfyXEcRfFhOUqWaYFMbXjs6VfkXO+OHDuh9q4qgnVmet5yA/D2Gzgop4HlWPmJHN31A36Uo+h9NjoXrsUXalBrOdav74ouroXxFOdg+v1T8eNfLsaj+j6EXc/jFeM0ERGRmzAuGWdDu1YJsNeeQuu2cTjUphUOVdtxsqIOZ2zRqDtjR8mRChytrkX3xDjclhmPyzoAx4vKcFZlBTKqT6Gsqgq2aDuiu7ZFXaIoGec9Gieqp85Xf2nrisnPrcbShyco4+IXKTH+uPavWnXVU9VRuZ4cnEXh9e1vMy9Cr/4ipy97HVO7yPn16EXoXavPqtVq5bk4q9hqg1/n4XYNzqqygpXt/dEel47qidLvdstftkV1Eg9VVK7pJSfEr+c/w6X9RuBuWW1FWya2k9Mu2+v7My43r64ifrF3qQajcK1iY9zPHbihnzpT4X5e2jmo2zrW18/L/RpliQB9PZdSgnK/aWbX13QYiCMiogZLG4Gfp32F1x2BLEW/Xsg6nIxxHr/vPCjdjTzlqWaALA03sO8e5G0X34eXIQvJuOSXbt/ZyjH1ZwP373Kvyyxrh4zUIyhxC8iJaqzTzpUT7tVLU4dg9qSzneOyuusjv78E/bW55vMdxD6VZep+kjF2lr6u8bhOxmq12jaS4TizLxxS/zz1bZTB036bimgbzpOikjK1IwePlGfmOV1ex6Or5LS7cRfjvPWrtZotuz7DBuTgQvVZdgJGjlyH9e4Btt6XYEQXD/ONXJ7Tjc++4tlYeVYe51wulmnNzWjTrs/hfq7bW/x7P85zeS/xUiWXiIiCKoyDcXa0i49DxcnTiI8H2ndrh8N1tThUfgrFZSdxsqoG8crl/ySzA67r3BYZMbXYvv0Q9u46jIPFJzEg2o6v1+aj4JtCJK8vhb1KtBnnvd24lX+8GHPePqCMHdCKtP9xubZAGNkVhWoxd09VV+WX5frHtaLtf1mHTte96PoFOTIHeFxsfwuWFALnGYvQPzcVnfRtx7+uHsuz7/HK4nXKvxdgpOFBYORI4OD6z7BH+YLuWqjv52IsWA/lPNyK5I/0ch7iGgrfwBzH9uLL361ovOn21qSNmioDS1NxCTz9Su6N8gA+CviPWsXlY+T3vUzZz3AcUquxPIe/r0nBNEfwTuiJaQ/0Qp6sFnv/knLlAd5zQEuU0ksbdZ5LoGzAucnIXyOqwYjA2GVIX6NXr/kYmGwM7BnPaznyxIvIqHIsdhzX7Rd/ldinkgaHP5b7VM7/u574jcsLinjhcJ6/Wq3X5foabuyCK9SgmzsG4oiIqOGU77af9kTe5x6+9/qmOL6vFx8ehp97DYyV4dP/24OBvxTPC5cBS5TvVuzG6+K7H0fU6qtPOZ4fDN/B/9oIOKq0Ct6WWdd/0qVIW/sttslp3bade9Gvjwx6ndsDaYeVdftq1XMz+vYADh9Vxs7GtFk9sG2hLCW2TPkOVtufM5uvE8G3S4FlyrKlPyj7H4IxZZ86SpotNgY7pW1L5b7+/Cm29xkqA27iOENRKvajLHsTPeD4PdFt2YMLv0HaxMC1VyfahRsywHM7bUePn1Dbhrv71qn12o6rrKyWY+5EKbYcbHjd8HwuOYJaF642PL8rz82Pr8UIEchSnnHxF5PmZwoLsF+O1qc9p4uSc+rztVoN1vhsrDwrTwPmi2XK8/9596zGHMzT1lXfB35heE72Z11hOR4d/zi+Nr6XjPsFJh9wPuu7lOYjIqKgCus246oqbCg8dATR8TYMy0zFwcPl+LhdAraltsWhihokJMbisl4d0PWsWOwpPY2dh6rw45FqFJ86gxQ7MLJ1Erat3ImSbUWwn25kb6rrX5dtN3ggfoUTX5T6w8Enq5UvTuC8C8UvWJJj++/xxXoR8OuKruKL3H1b5Yv3DTUgaMJ93+r26/DOi6IbeOWh40XnA8rKL0Tgzq1Ivq/zeNxZ9Xbl66IKQFeMGG14kDLb3iJjm3H3r0nGb/wq7aU8gP+f3kbMbnyy5oiyv48dbbAVf7cHpantDcEs8cAuHuCl7V/js8M9MdD5FOrkviytl3JeG/HJdmW833lugUOtyszAc50vElrQzigF6foD/3bxC78bsf/UPVhsqJpT/PnH+MxREkBwPf+8zze6XV/DHd17RA26GQNyDMQREVFjZFx0GQZ+5/xedrHjK8d89QewNC8dIojSbD/Vf+R6DnnnGkukuzM8G5RuwKduVVrNl+lE6TOzAJRWGm3s4Xew4Isjcp5BqfIc0j5Z/V7u3ycZ29btBfqcrUwnI6sPsG2Hsk1qMtKU6TF6qbaJPZCW2s58vtT/J9ei/853nEE3caw+l3rvSOLcS2QJt0udATdxnMPfOKrcFn/xDcSjjUo9h73Yqh9DVM3dqVxPAwKWZvr27ibHXM1//g21h9Wjx05gzIVD5FxNx4z2auk4dz1vmYsR6+d5fB7f8+INWoDqi4vhqNkhSrTdL4NfyrD+QpOSZF0y4fksFaKqq/Kc7Sg5t+t5vONS3dXw7Kw+ox/AhlXimVyfNj4n+7OuiX0FODjyfh+dURARUTCEdTXV06eqsHnbAUTFRqHVWdHocfnFmDZzMsZkdoY92oa2yjycqcJxezyO9zsfhyvO4HSNHbW1dhyricJZMfFIi49BzRm7slqVus+moLUzJ4uQq8XGRZFya7Rt/SGDdSMvVn89G3vhBYBeHF8w9Bq19B5lmUUez8PY7kZT8BYcC4hylLi8EJSpVUzSUz39Gl+mPIweQda5WsmzgRcNAxxVaBWpw/AbWc1FDNP6yvkqt/ZrlAf+p/6l/6Jv8gKhvISkHT7iFsALHhFsE0E3PSDHQBwRETWO1mmDowT8L4chTXx3NqCjpoxze7p8B4vgnf797F175TtejtbjbZknIhB3CfDei54DccLhH7ANPZCVejYGtN+L/O/EtJIGynR/KNOOaq178aYs0aYOoqSb1/ki4HbEJTgnAmULlHXehBZwq1edVFQ3nQi5v3eQGwJt3B0qKUP3rp1Mq6OK3lNfXvwh/vHv/5NzlCtv21otKSe2daV12iBqnqjPuKJWSZepmO/e6+kn96s1O0SwrOfoHOUZWdQc0YgfqV1+KBdEVdZCY42TEKd27nAx5mOumg6spkpE1HzCuppqdeVRnDh0HLV1Caipq8TkUSPw3Ydb8OHHa3BeF+UBpaIG5WUn0P6KnyKtXRsk1pxBdW0tos5KRVW34WqbcfFtMhBti0ZUXIy6z6ZzQPbWZBiM1VwDaM+qtWqJta69tSqqX3+hHUcton/PBbInWGX4iygZZ82efR5K46m/BrZkhtJpKu1BvOSw56qxasm6vqJEnNY+zafGKrSHN+Lveok+OTiryHggAnLqeqJKq0lALlX7Nb25GANyDMQREVHjiGqkhu/Jf21EqfjuFL2ebt+N/L7DZRXR9mqbsfnfeWrCQVN8uBxp5/ZyfEcOPLcnSktNAmIwlFSXpc7zHEW/vC3T/YDFf34HK92DV2q10G/qz3dxBPk7RSm2oUjb+QOK1elkDBCl19RpxeEjKEUPtyqoCrP5qiPY9t47eBP1S8IVf/EOnl17BGnt3baTP/Kpvw2KYKAeeBTzUodirAzeZVw41FlqTp7DAD2wlzoEY/sYSso1Uu4X36o9qY4cWr81PDN6L6piW1eiyqbhGfuON3BQNK0iOlMbN8FQvVM8G2sdsYln204jL3EE68QP2AcL98opndYEjKgy6hLY6n0bpotp9YdpQ7BOmX+tp7bngkyUBBRN63TuzhJyRETNJWyDcXY7UF5xArXFh3DyaB3anJWI7Xnrsf6LjUg+qzW27T+KorIKdLnmRnTu3ROHv1qHE7ZYVNXaYOvUH6sL9qMmsysGjxmC6spK2KPt6j6bwp4XX1eLlk++wfBr2zjlS9xC9U09sObc1r27dg/UX/G6YsT9N6hVVF0fCJw9waql5qySxeMn3+/8hXHsDVPRyVEFNvBEdZZLHA/GR3DocE9c6mhDRntYb5xkXHKR85d09Xh61VNP1CosPTHwml7I2mGoWipeIlJ9tW9j0G+CIfgmrkuOGslSgcY24NTzO+ysxhMMIvi2e9kOdWAgjoiImsZuvO4oMa61l/q62XexsH251o6qXhodH3v5AewIStJEG7JaabwStX05nbdl3mWIYFefS2W1T23wVEW0eMdeIFVWSZXTaaLKqpxWg30LvwFyrnXuS+1cwWy+07al72BbH2X5rCHIcFRBvQV35hzBSvfSet99i1wMxZ1inZ8ko9Tx7KEcZ9le9JuobXs99jqrqcpzSJPLHlHbsPusXtt4DSV6Rl23cavyPDrUtO04I7GOaEdObCO2tWzf2bhWrxWitg13g1aV9ZP7MWd9DubLZbPxOG739EyrrKe1BafvQxmU3XyhPl8vx6PGZc/lYMMdJm3PNQmtF1hHBw6GGjDzrzvQZM/oRETkmy2pdXJTFvey5PabJmLhW4H/ichmA1Ki4nHNpIuRM7QtCg/8iI3/242Ko6fQNt6G+FaJ6JAzCvad21BWeBB2WxQSzkrDFrTGV3u/Q1xSLM4f0w87Nv2AogOlloJxonTZ/OuAJXfIL3K9YwPRwYKjpJvoyehFTIb8RU7MEu1SiCLz6nJhHRaonT3U377eMcQXq6NK6ToseVv50nUs93AsQW5z8O1bDA8W8lhy6uv163DeSK2k3KOfWDgPt+2d1yBY2d470WOpa/XOPVgsOjyQU2obMaJaizpxBJ+tKcclabtxv9qumtaJAv7vv45gleix9OfGB3S9jRnxK7zac2kv5C0Bpk3Wg3pux/NE9OA6OQWf/ct5HI3ei5tO31f983K9DsWOj+U1yHNynIPbPvUSBOqEyX4d10dERETkJ1GddVYyVv45cEE3X0RHDh3T2yN37TdYt3FbvQ4aRNXU0TlD1GCcaCvOWG2VQtOsKePwj1eXySkiosgU1sE4EY0TrUwM7tMX11zZG7baMuxbU4iD3xXBnhinLLYjtqYK8fHxiI+LRUVVFU5l9MW6gwWoqD6NVidP4YqenfHFsVP4vuyEVtwuXKjBuK6WA2GRxz3wRURERBTZ+k+6Bde3/wbPLvw2qD/sXX7J+WqpN2H7rn0oLilTnt3j0DEjFR3S26vVWUWJuI8++1Jdh0Ibg3FERGHem6oIntXYgR379qGgoAwJsfGo7toBpfFJiLXXISYqBlGJbRBji0LpqUqUx7RDaVUFTlafQlJFJXLS2qEqNhG7DodZIE6UzJsmOm7w0sMrEREREUU4rUdYvYrr9X324s0gB+IEEWR76oU31ICbKAk3JmcoLjhvAJLbnYVN23aqyxiIIyKiliS8S8YJNpvaB+qAHh1x+zVZ2FmVhLerMmH7sRDRPxagpmAfqk/XodSWhmu7JGJDaRF2lh5ETutERNmi8O3paq3bhjAJxo19eDVmj1RG9EZrtdlUD0vGEREREREFGkvGERFFQjBOEAE55SpHDuyMnPP7Y2tdNxTv3oGi/Xtw8ugxVNfY0NsWhws7Z+Cdg4VIiLXjxImTOFFth11E8sKqVBwREREREVHzaNZgnGhU3BYLe1Ss8m+UNoQie5062OpqlH/FEID3UavXHuhjh3qaN2dah4umSMMIEOa5QlIyg/hv3dYf8dcXl2P/l+vQpqoaHe2xyGjXBtmxZ9ArugqbTx1TVq3GwfLjOF6jbcOMRERERERE1LLZoxNgj20De0yi8hYcE9oBEnFuyjmKc1XPWTn3xvDr2gN47BaR5s2Z1uEiwGkYKSIgZxiIoJwd+G7bVnz+5Xps3r8Pe/f9iK+PnsayYyfxVWEhyk9UaPE3BuGIiIiIiIhaNls07LGtgeh4OaMFUs5dvQblWvwSiGtvyLFbcpo3Z1qHi4amYYSJrGCcgYi12WVwzjhOREREREREYUAESGKSlH/D4LVXuQbtWiwGOAJ57f4cOxzSvDnTOlz4m4YRiLmFiIiIiIiIwk7YBUj0AIcFAb92i8cOmzRvzrQOF36kYSRijiEiIiIiIqKworZbFY4BEhHg8NEmV5Ndu49jh12aN2dahwsLaRipmGuIiIiIiIgofIjeLMO57S5xbeIaPWnqazc7drimeXOmdbjwloYRjME4IiIiIiIiCh+2WDkSDJOROW8p0jPkZLCYXWMwrt3TMYKa5lLGHPQJRto3Oq0bmEdcri/Q+SzI+bY58keIYzCOiIiIiIiIwoY9qilf/Jsp+ObG7Bqb9to1no5h/biNST+3bYvnY+fcSSgpltNNpNnSOkjXZy5weT0Y+bKlYTCOiIiIiIiIwkcktOFldo3BuHZPxwjnNG/OtA4XTKt6bEmtk+1yvNncftNELHzrEzlFRERERERE4WjWlHH4x6vL5FTTsMe1lWO+iJI/01H59hokXzcNicqcilWzsHMlkH7XQiSsGoaCrdqaGPA0skfH4ljacDj2vv1RbH4DJvvYoq0jqhreoc0Xyt/W9ymPvWo/Oo3OUZe5bGeBrfqYHHOyfu3CIPU6O6VpU85z88392NaOK675AaTIKS39lril0VrsnftrHK93bo8C17lvK9P+OVF6zEd6Go5RsWoxKkaPkttpi31pXFqb5TOLecR4ffo5e0wzbR1sB1L67VfmrUI70+O67q/N1I3o0U/dmSFtrd4razylYSRjeJKIiIiIiIgiVBd0Gg3smzsMm59bDIx+GOkZW1Cyai1SsibLdYA2WTkoX3U7fpj7KMpRiIPPKeuL4ITKsI+31yJx9Ey0UedPRuYd01DxtjJf7j/xOmO1P2W79FXaMpftgkELdiXnz9KOrwxWA3ENtwQF9dJPpNEoHBHTajoAHccOAgbMRKfSRw3n5mlbd2bp6Xof9mGUM8gUNJ7ymZjvK494YpJmqi5ILPmjMl8Pkpkd19XxN+S+RBr3m66s48e9ogZhMI6IiIiIiIjCh71OjlhRiINvzUeVGC2ej6LtXZCQroxvXYXyfqMdwZx2aYtRbBqsMuxDbIduSBABj4weSMRaHNW3M+5fpWyXK4NKxu2sMLtGq9eecSmS09aiyI+SeA6ejuFXmhuoadQFne7YiOx5ynBdDhLTewAlBajo9wD6+BXsMUlPcYxS5/2rWvmKsswPjU1rlUk+85lHPDBLM1UhjuQb76nJcd2Jkp9iX8bScO68HteHhuaPMMZgHBEREREREYWPBr/4D0KCrBYpSnEVr+qmlvyJHzsdifmfagGNUBGQAFEDeTpGo44rqjvqJbNkKaxi0XmBKMX2sBr4yRwgV20OAU9rYz5rKA9p5pPJcUXV0+sg9zcLB0vlfI8aclxFMPJlC8NgHBEREREREYUNW12NHLOiC5KzZOkrWVpML6VUlb8GyJqJjCy4lTayqHgvKpCDdnogKWMOOvYzlIJqBLNrtHztxZ/iSGlOg6oZejqGf2luINPI7DyqVk7Cd6sKkZjWiOqQ4hhp05Ah74MIrvpTTbXRaa0yyWcNySM+0syVef52SM9EYmmBFmxW11Hn1ufXcV01OH+EMQbjiIiIiIiIKHzY/XnxL0RFulb6Klttu8vQIL2o1leag5TSVwwN/S/B0e2yqt5UZ5tyni1BgdoGmKzWp7a3Zb3Be6/MrtHytW9ByTOPomL0Qu3c/Cl95ukYlo/rnn5aGsFwHup8R7XJjTh39H5ZndaftDdSjvH2WqTI+9Ada/ysptrYtBbM8llD8ohJmnnkJX/rtr6Mg5iGc8U6UzJR4SgZZ/FeWeFXWkUG9qZKREREREREQRGM3lQFe3QCEB0vp8xMdu2h0gPRy2S7/GB0buCH2irYaivlRH3Wrr2BvBy7SY8bSGqPoJkostITaHOmdaP5zt9B4SMNI1XIBOOIiIiIiIgo/AUjGCfYY1srb7zeKoP5CFaIoM0UYN8zsgH8UGCvg63mhJww5/vaG8DCsZvkuAEmAqw90hbjO1/3tTnTOiBCIBhnMQ0jUcgE44L1gUxERERERETNI6jvfrZo2GOSvARKzIIVg5B+10J0SivEweYuVWQkAhtnTiv/1soZXvi8dj9ZPXagjxsQ+v2Uk2onBD5KxTVnWgdMMwfj/EnDCMRgHBEREREREQVF0N/9QjZQ4qeGBDYCde3+Hrulp3lzpnW4YCDOJ+YUIiIiIiIiCk/2Wq2aXG3IVDT1n2hzS1yDv4GNQFx7Q47dktO8OdM6XDQ0DSMMg3FEREREREQU1kQD8raa47CdqQDqzkCU3AlZ4tyUcxTnqp5zIxu/9+vaA3jsFpHmzZnW4SLAaRgpWE2ViIiIiIiIgoLvfkRELBlHREREREREREQUNAzGERERERERERERBQmDcUREREREREREREHCNuOIiIiIiIgoKJr13c9mU4ZY2KNilX+jtKElEw3nK4Otrkb5VwwBeLUP5TQK9PU29bWGyv1pivOgRguhvywiIiIiIiKiwLNHJ8Ae2wb2mETlLTgm8IGX5iCuQbkWcU3qtSnX2Bghn0YBvN6gXGuo3J8AnwcFRhPkOCIiIiIiIqIQYIuGPbY1EB0vZ4Qx5RrVa1Wu2S8tNY0acr3Nea2hcn8aeh4UUAzGERERERERUfgRQYyYJOXfCHrtVa5Vu2aLgZaWnkb+XG8oXGuo3B9/z4MCjsE4IiIiIiIiCjvNHnhpLnqgxYKwSCOL1xsy1xoq98eP86DAC5tPpvMG98ejD9yJpx75nWP4f3NuQeeO6XINIiIiIiIiigRqu1ihEHhpLiLQ4qNtsLBKIx/XG3LXGir3x8J5UNMIm0+nyVeMQWKCayZKadcWt8+cosyPgPYBiIiIiIiICGqPk83RJlioEWkg0sKTcEwjs+sN1WsNlfvj7TyoydiSWic3e7+2gejeWpSEa4iKykos/d8qfL1pm5xDRERERERETSEQ734+RcVB7XGSYDtTAdRVyymDkEijycicNx2Vz01CSbGc1UgerzeE80OT3Z+MOehzxygcsZi2pudBTSaCy+1qRGm6SVeMllMBNmE+Pvr8Hcw6R07X0xez/uNtuS9X4aHP5+NSOUVEFFpSMWH27zBjgJw0GvATPDW1j5xogIwc3Dc7Bx3kZMsi0mUmJmTIyUbpgxmP/ASD5VTTMxxP3MNHAnUdLUCkXS9RpFH/xp3N3TTqO6rRAvk9EZnsUbFyjMzSIlzTyNN1hfK1Ntn9KZ6PnXOtBznDNT+EsogPxgnu1VsDZvkcXH7RtVj4vZwWwbnHr5ITREQUFI0N/JFnW9/D3Q++jOUB+iU75LlfL/MVURhJxYQxwGsP/lX5OxfDIqxIv9rzj0nUMoRS22DNzSwtwjWNPF1XKF9rqNyfcM0PIYwpTkREREREEewwli94D5vklDqduwsDsxhwb7H8CiwMQvpdG5E9Txsy9SCsqOYn5znna+s61hEGPI3su+ZAbd3LZZun0UZdQVTFXIrMqUsd89pMde43e+pkdS2VYfs+Y+eo26XrJSQ97tuCgAR7PKWRdl3pA5znJebHjxXXqU33GTtI3VowvWYHsT/DskBebxNcq/PavC2zoKnvj9UStn4djwIh4tuM04lfwRpGVBWdixFyasPi19H5QuDPP1+A3eqyMfjiojnYd9s7eGZaplxLWe+x4Xhouaim+ifg4UXo+pK+jzWYr6z/qTru3F6bVojSdRfn4vL7P1Am9OW5uNBxDgV452ZDaTwiomYjqtnMQIfcv2LRVjlLJ0oVZe3A3W/sVCZE1ce+2PLgDgx65GoMVFcox4pnjaWuxDr6MiAvdz069AcWLViLQ2KG2N+U3uoy47Ydxs7EvWNS5Hxlu7f0c3Hbn2O+q8FTf4fLShbhiZWH5Ry5z/478aR6bO0ax6fJhdiF19Tr8HY9YpuJwJtyWp57Sa5+HB/X6sJC2pmkjeCaPuLc9ZdRs/TRjyfWM47r17QWHe7UtzPuTzDbpyee0lU/jmF+6Xp5HwR5Drk7kT1lJNS+1PPfV/IYDMc1npO/6zuvt8g0XxFRuBCfjzOwzOXzX+f+3eD6vaCo9x1n9tlntkz/TPX8PWH+2e3Gy+d/vWPX+67x9nnbOMFoM84e11aO+SKCGAuRnD8LO1dukfMEEch4AHh7GArEPRGBIb39rfSnkZ21CpvfWKKuKYJM7fLFemIbQ/tnA55Gn7SXlf32UPeVuMr9GIJxG9djiqDWuaOBg45lnvbtvj/PbNXH5JhToNIopXQxvntmPqpEUPK6HFTo16lOA3vn/hrH5RYa92sW438EpixEwiqZ3i7rKJONvN6AX6sxP8j75nmZ3NyHprs/hjS0wNN5UNNh+LNRRDBtLjovvgmXXzRcGW7CgQtvQBe51Gj389fi8sfWAGvnqes+tFwuQCaufUkE1MT2wzF/7SjM8asqq7K+GpDTtr/8sf3K/tiOHBG1NL1xoxrokFWE3irD+Dv1ttDEC8HV6KC8hGjVh/6KLekyeCINTjuMJ43bXq+1J3do5cvK9C4tyKIsc77kGPf3vvIA6Lltnk35u5A+JsfQJlsqsvunKC8t4oVEvqiUaPsWw5O5+kubt+sxEG3fTWmvvCD9Vb7UuZ/bIhzq73qt9Xk/llnaiGPPGFOmvMTpy3ao6/uTPq5SlOM6z+O1fOW8HNU4/dmnWbp6mL+tD+51aTtQOYcxysukPEZe1tV46pEcHFLSV9tPe8M5Cf6ur/Gcr4gofPRRq61uzq8fiBPU74b09nJKfC8AJcq/HeWcwVm9kZcvAnHePvssfi66f0+YfnbXZ/r5X+/Y7t81Vj5vQ5y9To74kHEpktPWosg9yJPRA4lYi6P653vxfBRt74IEkUhbV6G832hHqbd2aYtRLNZTt+mCTnfIEkrX5SAxvYe6FlCII/mGY4hAlVqK6QHlm0gS25fKfSmqVr6Ccm3Ux759MEuLxqaRqhAH35qPKjEq0sV4nep0NyToedrTNUvJU7RgkhaIUwT6egN9rcb8oPK2zIcmvT9+sHo8ChgG4xrjnPE4v+savPm8/iW4Awsffl35U/SHKMnmLPn26b+V7TN7oJec9s11eyx/Ee8cGIULJ8hpIqIWQfxib/hlf+tarCjtjUGimH1GH2Sn7cLHhtIJm3LXKy8+TptWGn6t37oDeWnOl6J6BuRgPNZjkWN/O7ElPwXZWaly2sB4HoI4F2Xb5eJhUexHOa/X1JIPmkPKeWjX4OV6dOnKC9adfbDZWFKh3rUexvI3Xa+1Pu/H8p427ZGhPyRv3antw5/0ceF6Huo9Sk/VXtz82adZusq0cZ2/DCuUl+Zsx8urcg5v6te7E8tzy1GSu8yRvoeUl2PHOan8XZ+Iwp4Ifj1yNfCWsRSZG/FZmtVX+9FDfDaVrMXHJfrnbh8MytqFLfr3hNlnn5XPRU/fEyoPn90emH7++/qusfR5G+KaNLCwBMWruqHj2EGIHzsdifmfakEY1VrsnTsMm/VBlp5zIUpOqSXGxDqzcLBUzvfJwr49aWywJxC8XrMoylLoIdgWwOsN+LUOQoKj9L47b8s8CIX7IwT7eMRgXKP06IYuB/Zjn5xsHvux36VK6g7sLwA6n91XThMRNZfDKFae7DsoD//uOqS1R0lJmZwSylDs8qJh2DY9Femlh1Ekl3ikvjzpveA5q92YShuJex3r/w43Zsn59RzG5m3ljnaDBo8ZCWzb6Xy5MT0vL9ejSsH4Kcq+DIEflZVrrcfHsczSpngtnnh2J7Lv1Ja5NFRuOX384M8+PaVBg9KGiMg6Uf3zqTtT8fGDvkq8luGQ/NGjg/h+UL7PRGk59XM3IxUdjJ9V3j77vH4umnxPePvsdmf2+e/r8zQMPm9tdTVyzIfiT3GkNEcNrLko3osK5KCdnr4Zc9Cxn7OkXFX+GiBrJjKy9jtLJMlt6u3LXXomEksLtACeWqpJnattnzYNGfKYItDnKEFmdd8emKVFo9PIH2bXrCrEkbcmYS8ecLa1FuDrDcy1dkFylpwvS6M5Sk56XeZdSNwfheXjUcAwGBdoIkAnR4OjG7qdI0dVfdEtE/jxB/Mi60REweSsyuPUMT1FeZHRf5EXDL/yq1KRkQ7nOsoLjktJN/GiIEfVNnHky5NWneZ95MlFpkTbN471tcFTu0CCWjpKLQGhlXYwltAz5+N61FJk7+PQmBm4b2z9YKUL47V65OVYvtJGvNTJ+ZhieKnzI30sC8Q+3fMBEVGAqO2wpa9VPptM2l9zof1QI4JvHZXPW7U6a4ky9O+DwSI45/KjjZfPPq+fi16+J8w+u438/W50/65p6Z+3dquBhS0oeeZRVIxeKKtQ6o3fL0HBc4uReJ2sJqm2AWZo+0wEQJCDlNJVhvbQtG1g2JfHjgq2voyDmIZzxfIpmahwlBJTtn97LVLkMbtjjZILdBb37YlZWjQ6jfxges1Ox9+YhSNZyjHUzjACfL0BudZCVKQ/rM2/Yxoq3ja2hedtmQ+hcH8Ey8ejQGEwzl/nzMaLn7+DWSIAtjwXG7regN/fppdC64tZN46S44GwGwcOjML1XvefiWt/4Wxjrtdtf8K1eB2vO9qkIyJqPmpVxayrXV8UlBeEG/UqPA6i7S5n21wdxk5Uq++o1UFF1Rr0xmWOl5FUTBijN0gtGX7B7zA2x3vJOLWqzkjM8BUE0ykvPR/n98agqX0xMH+HoTpo/f2IY2tttXm5HoedWKS8HLm8aNXbp4drrcfHsczSRrkPzvsiSnnIUX/Txwp/9mmWrrL6rbENN/VaS9aaVyUjIrJEtBFX5lIt0xfxQw36T8Rl6TuxWXwGFSv/Kvu5rL+hrTlvn32WPhc9fE+YfXZ7Yvb5X+/Ybt814fB5a7cDtc7Ko94tQYGhOqSj3bLi+djpmO/eCL4IgHioOumyjb5c7N+4vdxWLH/m1yh4xrBs668d2+7MBxKxH5X6Mo/79kGkgUgLTxqdRu7X5W3a7Jo9rCM6QRCTgbzeQOQHRWXuJI/zBW/LTAX1/njh7TyoyTAYp6istJrJ3X2Ah25+HZj2Kj76/Ctl+BPwmpc240TwLmeuuu5Dltp009qgc9n/F2vkMt0azF89Ri7/Cs9M24/5ak+uREQhQK1Osx4dpjir4Tw1RfmorFfyYBdey+/rWOde8VLk6LVNeRlR9gHlZURbLnrANLRtI14a4KzqM0NZ3+XXf/HSoTbMr5cecL7c6Md76hEPnSsYiOpHA7PaY0Wu8UWt/n7uVV7CtBcfb9djZLg2tWFsH9fqkZdjeUubksOG+6I11K1Vy/I/fXzzZ59m6XoYyxfonSzo83fiST9engOqXr4iohZLVC1VO8PRP5/0wctnnxp8SzGUghOl5YB05TNMDc6pvH32Wf1cVNYzfk+Yfna78frdaNinutz9uybEPm8byFZbiZbcDlabMdOcVTsbQrl2NQ28aOlp5MLH9YbctYbK/bFwHtQ0bEmtk5s9BBqI7q3PG9wfk68Yg4SEeDnHGhGIW/K/XHy9Sfn2DIQJ8/HRxbm4/P4P5AwiIvKuD2aovYFaqRrUEgT4ekRVo6wduLuFvQQREVELEsTvmkC8+1lmi4Y9Jkn5tyWUQRmE9LsWopOjPTXRgYEf1R2NRIDlzGnl31o5w4sWlUYmrF5vg691MjLnTUflc55KmnlbZiJU7o8/50EBFzbBuNBwFR76fC7w2HA8xGqiREQWMRhnTuxL9OrnqzFxIiKihgrud03Q3/3CIdjkj4YEWFpyGvl7vc19raFyfxiIa3YR8onUVPpi1n+06qHawEAcERE1RiomzNarH4mBgTgiIgq0CPuusdfCVnPCj/a3WjDlGtVr9TfA0lLTqCHX25zXGir3p6HnQQHFknFEREREREQUFM367mezKUMs7FGxWimjll5azl6nDra6GuVfMQTg1T6U0yjQ19vU1xoq96cpzoMajcE4IiIiIiIiCgq++xERsZoqERERERERERFR0DAYR0REREREREREFCQMxhEREREREREREQUJ24wjIiIiIiKioGAHDi1QqHRE0NIFOh1DLQ2bIp+EMX76EBERERERUVizRyfAHtsG9phE5S04JjKCP4Ei0kpJM5F2ahoqadkYEXsvApiOIZmGAc4n4S5Ccj0RERERERFFHFs07LGtgeh4OYMaTUlLNU2VtPUL74WrhqRjS0rDhuaTCMFgHBEREREREYUfEbiISVL+5WtvwClpqqWtxUAL74Vn/qRjS0xDf/NJBOFfAhEREREREYUdBn+amB5osYD3wguL6dhi09CPfBJJ+NdAREREREREYUVtr4rBn6YnAi0+2gbjvbDARzq2+DS0kE8iTcj0pkpEREREREThr8l7U7XZIBqQp+Cx1RyHx94zeS/84jEdwygNTfNJBAqZYFyzdW9NREREREREQRGUd7+oOKi9TAZTxhz0uWMUjjw3CSXFcl7QTUbmvOmo9PccAnDutjMVQF21nDJojnvRZLylbwPT3o3HdGyWNAzM9bgzzScRiGVFiYiIiIiIKGzYo2LlWEOIIMRSpGfISVNu6xXPx865gQ1cBE0Azt0szRt3L4LF6j1vep7Sq2WkoTXhdC2NxWAcERERERERhQ+2TxZ8ZmnOe+EfT+kVTmnI/ODAlCAiIiIiIqLwYfmFfxDS79qI7HnakDlAlJB6ACnogk53KPOmTlbXajPVuY42z9N67qWr3PctZ3tQf/+C3N/Ypx3L+owdJJeZbaPTju1yzAHKfu6ag3iP52U8d+vn7cIszf0JvojqsvK42fOeRht5Lo7rdlyDVG99na9rFPRp8a+Ve26Q7jyu8Z64MD03Hzyll6U09HbPBS9pMsDX9Yj1lOV6Ohiurc/YOW7p6oM/+SHMMSWIiIiIiIgo8gyYiU6lj2Lz3GHqULB1CQrmPopyFOLgc8q8N5aoqx1/Q1u+WSzrNx3pGZ7XcxKBj4VIzp9l2Ldc5EH9/csFIkCUvkpb9vZaJI6e6QjqmG8jbEHJqrVIyXIGkdpk5aB81XxU1btmuYLO1/ImMxmZart18rreBjqOBUqeeRQV6nUry68D9j6jXIPp+iKQ5F/aA1bvuTpbodyT0cA+sey5xcDohz0EoszOrSl5uede08TX9YhtHwDeVparaSOubRoqxLSyzT6MQoq2IvmJwTgiIiIiIiIKH/Y6OeJDSQEq+j1gXrpJJ0oYqSWBRAkqCzIuRXLaWhSt3CJnSGalpUz3X4iDuTLQt3UVytENCXqgxNc5ifX7jZbHmIx2aYtRLAIwvq7Zapq4M0tzq/ciowcS9dJp4rquy0Fieg9lwRIUvA30UK4Tb/8ax7W1zdc3S3t/ebsnb8mAYPF8FG3vgoR0dYGT6bVY4Cm9rKah2T33miberyd5ihbEcwTvxLWVyv0qqla+ouRLP1i9lgjAYBwRERERERGFD6sv/GrHBaJ0z8Nq0MRjlUwRQBMlstQSRbNwsFTObwh5PK10kgwsNWT/lrZZguJV3dQSWfFjpyMx/1NHwMXrNVtJE0/M0tyv4MtaeU1yqFfi0J2/61tk+Z4MQkKaHK2ngefmKb0sp6HJPbfM/Xq6KEOh9UCiFX7lh/DGYBwRERERERGFDVtdjRyzpmrlJHy3qhCJaR5Kg6VnIrG0QAtqqCWM1LneFX+KI6U51qomNmT/Frepyl8DZM1ERhZwJN+1VJTXa1b4Wu7OLM0t34vivaiApzST1VPnPgpcZyhNaLa+adrvRWWpodTXgNHmpRy9pm8XJGfJfcsSZ0cdVT4l02vxzVN6+ZOfnfd8v7MknNf86O16CnHkrUlKyhlKSoprS5uGDBmkFUE/S6VFJX//NsMZg3FEREREREQUPuwWX/gdVRE34tzRevBiCY5ul1UMRYP1W1/GQUzDuWK9KZmocJSSclvPxRbZ1tlCx/5NS5iZ7t8Lq9uIaoelOUgpfQUlxXKex2s28LXcjFmaW70Xojqq2maZM82yp96ltleWuOplHJelvno4OiTwtL64D2ZpL9tUu06umwVD9Uqr91woREW6VmowW207zVB11sHs3CzwlF6W01AhAm8Q93yV4by85Uff13P8jVk4kqVsq6a9qDbsTMfuWONnNVU/riXM2ZJaJ9vleLO5/aaJ+Mery+QUERERERERhaNgvfvZoxOAaEe/mxFL9AraLr+JO2KorYKttlJO1Md7YZGXdGyaNJyMzHnTUfncJGew1l+iSu8dmSjSq1174yOfRBqWjCMiIiIiIqKwor70R3r7VBlz0FFvxL+pKGnsK8DCe2GBj3QM1TRsM2aas0qvNxbySaRhMI6IiIiIiIjCju3M6QgNAg1C+l2i2uEoHNF7ymwKIsAi0tiCyL0XFlhMx9BIQ5m3ZHXXHv3WYu8zPvKYH/kkkrCaKhEREREREQVF0N/9bNGwxyQp/7IcSkDpARZ7rZxhAe9Fff6mY0tLw4bkkwgRNsG48wb3x6QrRiMxIUHOAcqPHsO///sefiwqkXOIiIiIiIiouTRXQQy2WxZAjWz7i/dCakQ6tog0ZBtxXoVNSHryFWNcAnFCSru2uH3mFGU+/9CJiIiIiIgilQgK2GqOw3amAqg7o5bYIYtEWilpJtJOTcNGBlgi9l4EMB1DMg0DnE/CXdiUjHvqkd/JMf9UVFZi6f9W4etN2+QcIiIiIiIiagpsooiIiB04qKXpRPVWIiJqQhk5uO+R32HGADntjVh3dg46yMl6fC0PaX0w45GfYLCcsmzAT/DUIzMxIUNOh4VUTJjdwq4pLO+DRQG69g5jZ6o/oDoGw9+yWHbf2FQ5ZRDJ6U5hpIGf/0REFJbYcqLCvXpryJgwHx89fpWcICJquQaPGYlD+bswMKuPnEN+2foe7n7wZSwvltPUPCL5PjT62kUg4ne4t/9OPPngX5V9ySE3FRN8BemZ/4k0IjA9ld+jREThgME4IiJqYn0wKGsXtryxA3lZfVkqgCgCDZ56NQbmv4+7F6zFITlPtfU9LNoqx4mIiIgiRMS3GacTv85aJkqs/WGUnCjAOzdfi4Xfa1O9bnsHz0zL1CawBvMvmoNPlTGz+cBVeOjzuRihjgMbHhuOh5a7r28237gfIqIQJX7Jz9qBu9/YqbyQ/w6XlSzCEysPy4WCKDGjvKjLqbzc9ejQH1jkeGn3tdyd2/pv/VV92RdV4NRSOXI7dTp9rXpe6jlO6a1tgHKseFYvhSOqUk4Ecncie8pIpItZIqDwBgzH2IXXHnwPm9Rxcey+2PLgDgxyLDfuT19uXL/+udZn3M7fc1KYXp/gdg6+0t9wjmoajknRJtyPaeB5PXkdb65FhztNzltdZwbGp8nJ0vWO++eel9zvrzHf1duPfhwv6eL5nD3cB6/n7yttjYz7llyuwUt6N9H9deXvtRuIquV39sFml/OqT1zfDCxz+3wQ3NPGPF84/matnhtR0LjlYz8/f4pc5nn+W/X4HSuOM+aw/Bvx8vduej7yb8rxndP4v6dmbTPOZlOGWNijYpV/o7QhkokG95XBVlej/CuGAIQGQjGNA32d4ZyPmiJPkEcR/unTMJeevR93XTQcl4vhsf249o+z0UssOGc2fj9tP+Y7luWq65vOR1/M+s9cdF58kzb/onnAH97BrHOA3c9fq6y3Blg7T10mAnHm+yEiCl2Ds3ojL18LJmzK34X0/n0M7b2Jh/yr0SF3kaPa2pZ0GWBS+Vruzn3994EpWltTh1a+jNdKRmpV4jJyMEMEbmSQY3Ca8qIi93/3W2UYf72xTboUjB8DLJL7y8u6Gk89koNDz2rrP5nbHje6VBvqjRvVFy7D/u701E6Q+bn65t85mV+f+zkswqH+3tLfcI4iDceUKS9l+n53aJu487qech13OtPqtXwl7RznLY49A+NL3pfHVq5rWx/cK9sYU/NSenttVWXd7P5AifJvRznHme887CdXe1E1TRer1+bz/L2lrZ+8nFOT3F+fvF27m/RUpJfuxGYvgTjrvOcLjR/nRtRM/P38Ed9hd7+1S/vxRZnvKWiufi6OyTF83yh/L2OUz8JcEYjz/vdu/Xuw5Qa27dEJsMe2gT0mUXkLjgmvAEpDiTRQ0kKkiZo2Sho1RsimcQCvM+zzUYDzBJkLs5wTHJ8+vwC75TiW52JD127oLieBbuh2jhxd/oGh1JqH+RNuwbV4HX9+Xn+g/gBfrM3E+Zf0ldOemO2fiCgEKS8Vl4kqqvpLw9YdyEvrg2z9ZT9DGU/bhY8Nv+Jvyl2PEjnuc7m7ATkYj/VY5Fh/J7bkpyA7S2sUXmzbQXlRmTCmDza/6SydtGmlc1w7R2dQRy0h4Fh3p/KxX46S3GWOEgyH8neiJD3V8NIiShQYXla2rsWK0t4Y5N4ulo9z9c6/czK9vnrpexjL3zSkr89zbI8M/V5u3enlBc1sPde0Uu+tft7y3F6TAVPh0MplWAGZf8R16NWexbola/FxiZ7Osmq0yHfiGurtZ616TO/33cq1+T5/07RtEM/n1HT31xsv196UfOULVTOdG5EfGv/544H79438e3F8Fnr7fvR6PqJUrWF5S2OLhj22NRAdL2eQKSWN1LRS0swvLS2NG3KdkZqPGponyCcG4xrinNl48fOv8JE6OKuY4vsFuOXmz3H+S9qyhyb4mC90vQHPOPb1FebkyPmeeNsPEVEI6pDVB+lqSTG990RRPUb8wi5LqSgvyOmlh1GkTdXna7knaSNxr+N4v8ONWXK+ULwWi7YpLyclzsCVKkPr7dV5jo1RhmKXEkCHUVyipIXyYlOPt3MNJLPrs5K+ZueopOUTz+5E9p3afNOecq2u587nuZXhkHzpFPkMJWUQpULUdM5IRQfjtmb7MUuXhp6zUUPyrjfezqkp7m8glRxGiduLfYMFOl2JmkuTfP4cxuZt5Y7OktTPxlztxweVt793r9+D5TjUuF8Smo8IoMQkKf/ytdcyJa20NLMYfGmpaezPdUZ6PvI3T5Al/FTyl2gv7qVueFOvKnrRPGyQi1QiYCbn4w9uATlP8w+87qzyKodbHCXlPDDbDxFRyBFVB1PUNmm0KjF69ZddgLEjB/eXdPGyLUdVvpa7E+1HGY+nDM72c/pgQv8yHOo/0VkVT7STc2cqPnas/z7y5KKGMZRoUKUiQznhQ6X6ORh4PdcA8ff63NPX2zmKl0a5T0zxEZCzsp47rwEc7aVTBN86Kie8OV85pxJl6N8Hg8UL6Lad3ktx+EqXhp6zN77yri+ezqkp72+gFO/E5tLeuGyslRJ3FgQqsEfUXJrw80eU/NVKDSvfd2PkZ6PO7O894N+DoSOiAyiNoQdfLGjRaWzxOpmPFH7kCbKGn0wNcWA/9snRXrfNcJaMmzDfEBzbjQMH5KjZfLWK6w34/W3eqqUamO2HiCgUGavHGBmr0YiqMDC+pGvt2zj4Wu5OrVozEjM8vvRr7eUg9z0senMnso3t4RhK2nQYm+NWIsBfhpJ/ig5jJ6pVg5bXSwdv5xpgZtdX7xw8pL/ZOSovb84XRFFKTY66s7qeO5lPjG19qWlZstalOi76T8Rl6bI9MhH0UV5AL+tveAH1cA0iDdRgsFm6NPScjXylbT1aST/TvO7tnJri/gaUVj0WY2bgKfe221yuywIL+YKoRWiyzx9R/VT5jp3aFwPzDX8Xvv7eA/o9GBrUtq4iPYDSGCL44qO9sLBIYx/XyXxkYCFPkHXMVYrKyio5ZsHyF/EOnFVLf4/PnSXj9u5H5z/oVU5fxbUF87SOF8zm4wM8dNE8/DjtVblMDPNxqVgkiGBdzlx1vhqEM90PEVHoGTxmJNLzd3ho68ZYjWYnFj0rX9LVqjGixzZju1q+lrtT1n/wfRxyrC8GrfOEwVO1Rt/VRq+LRftiI3GveKEXL/dwVt2ZoeyjcSUCduG1/L6O498rGuL22Hum+bkGlNfrs5D+ZudYchgdpujzDGnrzup69RzG8gXvy84ptO3V3lINbYVpwbcUQyk4kbeAdOW8nZ0F1L+Ge/sDRd7SpcHnbOQrbd0ZAlb6+tt2yWUKs3NqqvsbaGpJn0VYke68n+qQtcMlbdNdzkUZXDpmECzkC6JQ19DPHxFQk3nfWxBbVNkfaOg8SePl7z3g34MhQPR2GWltezUFkYYiLT0JpzQ2u07mo/q85Qnyiy2pdXKz91UbiO6tzxvcH5OvGIOEBP/+WEQgbsn/cvH1JuXpnYiIqFH6YIbak6qhA4eWZsBP1ADJ3QxuBF4opC3vL1H4E3/nYw7jSY8/BDW/QLz7+RQVB7W3S58mI3PedFQ+NwklAS9d25T7tiIwx7edqQDqquWUgeU0bhk8XmfIXWMg81TD92WaJ8gvYVMyTgTT/vDoM7KdA+uD2IaBOCIiIqEPZkxxL01BgREKacv7SxT+tOroJb7azQxz9qhYOUaNZZaW4ZbGnq6H+cgzpktgsJoqERFRxFJe2mbr1ZXEcDXw1l8bUCWT6guFtOX9JYokg6eKv3OtamvAO2JpadjGV+CYpWW4pbGn62E+8ozpEhBhU02ViIiIiIiIQlsw3v3scW3lmC+yqt7ba5B83TSICokVq2Zh58ot2uKMOehzhzYfWIu9c3+N48pYm6kb0aOfOhPY/ig2v7FEGzesX7FqMSpGj3JWA/S4L+342A6k9Nvv2H89LtsC5W8PQ4H6w4o8/1X70Wl0jrrMef56NcQ/AlMWImGVvo1iwNPIHl2A756ZDyutp9uqj8kxJ+tpLAxC+l0L0SlNm3Kcf4Ouyyz9vW9jhft1Nv4a5Tl5zF/elgn+7k9hkl+97kvNn2L8AaQY87IPnvIE+YchTSIiIiIiIopQXdBpNLBv7jBsfnstEkfPRBt1/mRk3jEKR55T5qvLgI5jB6lLjr8h5819FOX9piM9Q19/Gire1pbtwyjRxZBkvi9x/MSSPyrzTQJxbvvd/NxiJF63VB5TUM4/fZXcr/H8dVtQsmotUrImy2mgTVYOyldZC8Q1nhYISs6fpZ2jMjgCbg28Ls/pL/hKi6Zido2CIX8p14jRD7uer8dlFvdnKb9625cglj8AiPtgMRBHgcFgHBEREREREYUPe50csaIQB9+Sgamtq1CObkgQAZGMHkgUgY87NiJ7njJcl4PE9B5iLa1kmZgnShNpc7T1SxejWAY6qla+ouxL8rYv5fhH8g0lm9T9iuFpLciibrsWR/UASvF8FG3vgoR0OS3OP1cGUYznbyTm9xvtCNq0S3Oep09maWk1jTMuRXLaWhS5l1BrzHV5Sn+VhbQw4+l6GnuNKkP+8nSNnpZZ3Z+V/Op1X0DyFC1Q5xqg88Gvvy8yw2AcERERERERhY+ABQtEVT9Z0kgMouSQCJhdBzl/Fg6WylV98rAvd8XzsdOxjllJuYZYguJV3dSSUvFjpyMx/1PrpeLM0rK5AjINTn8fPF1PwK9xEBJkVdH6vC2zykIec9FFGQoNgWGLmuvehxkG44iIiIiIiChs2Opq5FgjFO9FBXIM1Uml9EwklhZowSy11JE6V1s/bRoyBmiTIujlKLVlti8r5Lbt5H5FMKpjP0OJMouq8tcAWTORkQVnSTwLzNLSchoXf4ojpR6uvaHXZZb+jeTpehp9jaouSM6S82UpNec1mizzuj8TZnnM674KceStSdiLB9DHj2MF5O+LGIwjIiIiIiKiMGIPRLBgCQrUdrwWyiqRyjB1MrD1ZRzENJwrpqdkosJRMktZ/+21SLlOW7c71jirqZrtyxJt20S532y1XbAGlJoT1SBLc5BS+orWoYRVZmlpOY23oOSZR1FhuPZMNQDXwOsyTf9G8nQ9jb5GoRAV6Q/LaxRt5Bmv0WyZt/2ZMctjvvd1/I1ZOJKlLL9rDuLlPK8C8vdF7E2ViIiIiIiIgiJY73726AQg2lJoIWKIXkjb5bs34O9FbRVstZVyor6wSWMv19m4a5xs6LFUznLwtiyE+cgTZB1LxhEREREREVFYUQMGbNvKSVQD9bPjBl9Bl7BIYx/XyXxkYCFPkHUMxhEREREREVHYsZ05zUAKBiH9LlENchSO6L1w+iKCLiLtLGjRaWzxOpmPFH7kCbKG1VSJiIiIiIgoKIL+7meLhj0mSfmX5VAs0YMu9lo5w4KWmMb+Xmck56OG5AnyiZ9IREREREREFJ7stbDVnFDbuiIfRHtgIq38Dbq0tDRuyHVGaj5qaJ4gn0KmZBwRERERERGFv2arFWWzKUMs7FGxWgmnSC8tJ6peilJPdTXKv2IIQGggFNM40NcZzvmoKfIEecRqqkRERERERBQUfPcjImI1VSIiIiIiIiIioqBhMI6IiIiIiIiIiChIGIwjIiIiIiIiIiIKErYZR0REREREREHRrO9+7MDBmqZoxD+S0z7Q6RkpadkU+TCE8NOHiIiIiIiIwpo9OgH22DawxyQqb8ExkRUM8pdIGyWNRFqpaaakXWNEfNoHMD0jKi0DnA9DTYT9FRAREREREVHEsEUrL/Ktgeh4OYP8pqSdmoZKWvqFae9ZQ9KTadnwfBiiGIwjIiIiIiKi8CMCGDFJyr987W00JQ21tLQYCGHae+dPejItnfzNhyGMd5OIiIiIiIjCDgMYAaYHQixg2ltgMT2Zlm78yIehjHeUiIiIiIiIworavhQDGIEnAiE+2u5i2vvBR3oyLU1YyIehjneViIiIiIiIwofobZLtlDUdkbYijT1h2vvPLD2Zlt55y4ctAINxREREREREFD5ssXKkoSYjc95SpGfIyWAY8DSy521E9l1z0CLCL2Zp3Oi095N7ullOR2/32LAsYw76BCMveEq3lpiPjbymXYDOLdj5LYAYjCMiIiIiIqKwYY9qaS/ok5F5XQ7K3x6Gzc/MR5WcGzz+B0bM0ji4ae+ebk2QjsXzsXPuJJQUy+km4indWmQ+NuajIKRdy0sjp7AJxp03uD8efeBOPPXI7xzD/5tzCzp3TJdrEBERERERUdhrkW1sFaKyRI62BGZpHPS0d0+3FpaOOk/p1iLzcZC14DSyJbVOtsvxZnP7TRPxj1eXyamGeeyBu5CQUL8gakVlJf40/0Xl3+D/vkBEREREREROgXj388Ue11aOWTEI6XctRKc0bUqUqirYKkr4TEflc1qpnjZTN6JHP205tj+KzW8sUUbkOqv2o9PoHHVRxapZ2LlyizquVtG7YxoS1fmLUTF6lGN/rsR+HkCKnHLsw7C9oJ2XGNOOi+1ASr/92Dt3FdqJ83h7DZKv09YX6xanLcW5o7uIDVzOq/61wOX4zuvzzVZ9TI45WU97T+kuxjzP93XeFateUdJ4ut/p6LgnpvfLuF6g7rln7unZkvOx8x75SuM/AlMWImGVfl8Uoqrx6AJ8Z7F0o6d82BKETajVUyBOSExIwKMP3OVSYs44iNJ0olQdERERERERRRItgJGcPwub5w5TB0dAwOD4G9qyzXMfRXm/6YbqnF3QKX2VtuzttUgcPRNt1PmTkXnHNFS8rW23D6OcQYp6lqBA7BeFOPjcMBkEcd1+83OLkXidsRppFySW/FFZ9mscl9OdRgP75HmkXLcR3SGWu5+Xp2txPb7VQFyjDZiJTqWPynPR0938fvg6750rn2lAOur8uV+BuOeBFnr5uH4+MtvXFpSsUvJs1mR1SmiTlYPyVc1RXTu4Ir7cowjWTbpC+eQKKX0x6z/vYNY5crKxJszHR59b3J8/6xIR+TB4qvuPID/BYLksIgz4iXLNMzGh3kMfERGFFPXz2vB9NbWPXNAcUjFhNr87GsVeJ0d8yLgUyWlrUaSXAjKjdwpgLPmjKsTBXBl02LoK5eiGBHHfMnogsXQximVApGrlK8oySZQOUvclhqcdQTIXYnusxVE9oFI8H0XbuyDB0QJTIY7kG89ZOY+3ZPBCPQ/DcuN5CabX4iezNLaa9iUFqOj3APqMHSRnKLzdj4act890lLzdr3oacM+t8JRuLT0fG3nblzhmv9GOAGC7NOd6PllNoxDESsgKEZALa8vn4PKLrsXC7+W0N+7riuDc41fJCSIi/5XkLsLdD/5VHV7L740bZ+egg1wW9ra+p1z3y1husXoCERE1h1RMGAO8Jr+r7n5wEVakX40ZA+RiankC+YIugg7XAXvVEkWzcLBUzm8otVF7rXSQs2RbkATyWszS2Gray3TYh4fVgE6mt7+3QN+DUOQp3SImHy9B8apu6Dh2EOLHTkdi/qfWS8UFMo2CjME4IiIKmk35u+QYERFRqDiM5QvewyY5pU7n7sLArOYsHUeNYaurkWM+FH+KI6U5ahDAVHomEksLtOCAWgJJnetd8V5UpE1DhgwwiQCDX6XQxPbIQTs9QJUxBx37GUp4NVRDrsWEWRpbTnupauUkfLeqEIlpyj0wux8NPW+r6djY+yU0ch+e0q3F52MjH/uqyl8DZM1ERhbcSn16529+CyUMxjWIqEb6FT76XB/m41K9aumE2XhRn6+WKLsKD7msZ6BWCdWXeakaKtd78ba+coZxn1/hoQlytimxvn5svQqs2Xk51+112zv46A+jgJy5Fo9DROSNKHnQGyXbduKQOt0HM9yrrYpqQo6qQbKazoAc3OdSbUhsp1clMm6v78+43Lyaj6hCe9/YVDml6TB2Jp5ylNwz7ud3hhIS7uelnYO6rWN9/bzcr1Fs69yn81iC3G+G2fUREVGwdEhrj5KSMjnlyv37w/W7Q+HyXWb2XSJ4W2Ygq9Dqx/T8feOBS9Vb9+9Dt2OPVb7T6n0nOZe7fl+1AHarL+hbUPLMo6gYvVBWt/NQQmvryziIaThXLJ+SiQpLJYqWoEC23Sb22R1r/KuyKLZX2zeT1QDvGIUjzwWgFJ3ptSzB0e1d0OkOZf5UZ9tdXpmlsdW0d1SZ3IhzR++XVSxN7keD7oFgNR0be7+ERu7DU7q1uHzsLR/52JeoQlyag5TSVyx3eKGynEahJ2x6UxVfEo0hiqRbI4JZr+Lagnm4/P4P1Dm9bpuN7s+vQDcxH6/jrp8vwG41qDUXI1CAd27Wqn2K4NYzmYsc212qbLfvebGuQgTcbtwvtxXH+BPwsLIdZuPFly7Cl3If+vHP/+Im3PL8DmVaHGcGDjiWeyLWGYMvLpqDT/Xz77oG89Vp5Twe/wpzoF+PcV2FOK+Lcx3nTETkD/HCcmOWnBBK1+PJBWsNwbi+2PKgoTSCeHHI2oG739ipTIgXgRkYD30bsf7VGKh8da94Vqv6KV5I7k1fK9fXl+/Ca/o+xf6miKpHxhIPUr1l2vE65P4Vi7Zq49nbFuGJlYeVZWLfOTikHtf9vBQZykvMnan42HHcPhi8dacybrxGuV3J+/J85fn33yn3I5enOc9fTT841yciomAwfubLWUb1vqsmIhtl+FiWrhOf3YPyrX2XmC+bCLypjEN8v/TBZv1cTL9v6hs8NgdFK+X3lDjnMYddvm+cx9amnd9rctr0+6pxgtGbqmCPTgCiPXfyF3SiiuAdmSgKdrXUplJbBVttpZyoL6TSvrn4c8+9pGck5WPR22u7fM+dT3jkIx+GOpaM89eEW7RAliE4tfv5BVrgSgTeHpbBNXyA1xcXoHDx/3MEyXZ/9jkKM3uglzaJT/VAnLA8Fxu6dkN3Oanq4R6IU4jj43X8WQ3ECR/gi7WZOP8SvdScFSJAKINtik///brLeRERBZKxzbi7c1Nxr1+lvcqx4k39wX+n8lFZruxvmePl6FD+TpSkpxp+rReBOvmCImxdixWlvTHIU2kD92UZfZSXqfVYLh4ABuSoLyWL1JcUYSe25KcgO8tZEiIv1/2FpD0y9FIHnl6MxP5FoM0QWDu0chlWKC9g2Y7SCq7nvyl3vdv1ERFRkxLBrkeuBt4yCcQJW3cgL6uv9l0mPttL1uLjEv37pA8GZe3CFl/fJRa+Z5DuFohz8PF9I23SA3GCOOe0VHQU4/L76GPHsQ9j+ZvK942csvZ9FfrUl/QQaU+qzZhpziqCLZ2Spr4CIKGU9s3F8j33kZ4Rk49FFWI/O27wlQ9DHYNxDXFgP/bJ0UY5x1ClVS1FZ5SJa/9wA2AI5jl0vQHPOLb7CnNy5Hy1VJtz/kf/mc0AGxGFFm/BsYAoQ7HLC8thFCtvFx2UF5D6DmPztnJHm0CDx4wEHFVoFWkjca9ePUcZXEr4oRyHHG8tiuK1eOLZnci+U1vXY1Wj9FSklx5GkZwkIqLQolb/VEudiVJtcqZHZTgkv8s6iO+QkjK1TVT1uyYjFR2Mn/Xevku8fs+kYPwU5XvJ8AOUysr3jU4NLOr7FyXHJV/fR2H0fWU7c7qZAhmDkH6XVh1PDD36rcXeZ2Rvpy2ZCICINLWg+dK+uTTgnltMz/DOx/IYogqx3iOwL37kw1DGYFxzEdU/X+qGNy8ajsvVYR42yEUaUXptHn6c9qqhrTjpwOu4y7GdNmhVVj/AQ8b5apVXIqJIYigtoEpFRjqUlyb9139Xask6tXSDVpLBWUpAIarU6iX65KBV5zEhXpDU9d4Hppi8IOmlEoiIKKQ4mj1wNF3gjfZjjgi+dVS+YzbnK98NJcrQvw8Gi+Cc8Ycdb98lXr9nREnp93FozIx67Zta+r4R1VJlYFHb9/vIk4s8EgE4OaoKl+8re20zBTJEG156T5OB6G0yBOgBECVNLWm2tG8uft5zf9IzrPOxfoxJ1tqK8zcfhjAG4/ylVie9Ab83BMhEm3EuHTNYZShh1+u2GW4l4wQRXHMLyHk4PhFRS9Fh7ES1TTS1+o4sWXCZ4yUjVe3goXFSMH6M3mi2PJ5e9dQT5YXm4/zeGDS1Lwbm7zBUbxXVeUZihvsLkBnlpcf5MiSuS44ayVKBNzoa9ZbnV7LWvCoUEREFQR/l+6fMpVqmL+LHHPSfiMvSd2Kz+AwvVv5V9nNZfxmcE7x9l1j6ntmJRQ+6BeSsfN/oDKXbOozNcZaMq3dst+/fcPu+EoGMmhNq+1LUQKJtLpGG/gZAmPaeNSQ9mZYNz4chisE4RWWlPxnaGSDTq4M+cyH8r7a6/EW8A2d109/jc7eScTrleDe/DojjqdVO6x+/Xi+tgSSCf+xNlYgaIV15idCr4NwrXnYcpQ60NmrgWD4R2LZLXdJwu/Bafl/X4/lobFpULRqY1R4rco0vYc4XIH1fXnusKzmMDlP09bRGr+tXcVKud8H7yMu62rFPtTFsP17+iIioCYiqpeiNGx2f9/rg5XNfDb6lGErBidJyynee8v2hBudU3r5LrH7PKOs9K78rRY+mlr5vFCKgBmc12BnKfpwl4wz7VJcr37+ijVK5NFy/r0T7Uraa47CdqQDqzigv9JFUhdJPIm2UNBJppaZZI9vmivi0D2B6RlRaBjgfhpqw6U31vMH9MfmKMUhI8K+nERGIW/K/XHy9Sfn2JCKiFszYcykRERFZ5tJDbNMKVm+qREShLGyCcUREFOkYjCMiIvKf+P4UPcj66rgiMPjuR0TEaqpEREREREQRJBUTZutVXcUQvEAcERFpWDKOiIiIiIiIgoLvfkREDMYRERERERFRkDTru5/NpgyxsEfFKv9GaQNpDeUrg62uRvlXDAEIEYRrWgc6rZgn/dcU+bUZ8E4TERERERFRWLNHJ8Ae2wb2mETlLTiGQQ8jkRZKmoi0UdNISavGCOu0DmBaMU82UIDza3Ph3SYiIiIiIqLwZItWXthbA9Hxcgb5pKSVmmZK2vklEtO6IWnFPBlYDc2vzYzBOCIiIiIiIgo/IugRk6T8y9devylppqWdxQBHJKe1P2nFPNk0/M2vIYA5gIiIiIiIiMIOgx6NpAc4LIj4tLaYVsyTTciP/BoKmAuIiIiIiIgorKjtSDHo0XgiwOGjTS6mteQjrZhOQWAhv4YK5gQiIiIiIiIKH6KHSrbHFTgiLUWaesK0dmWWVkyn4PGWX0MIg3FEREREREQUPmyxciSIMuagz7ylSM+Q05ZNRqa+ncs+DPNDgVmaBjWtg5kmxmP5eVxPadKodGqu6/bEsLwl5tcQwmAcERERERERhQ17VDACH27rFc/HzrmTUFIspxsiEPtoImZp2ri0Dk+e0iQs06kF5tdQwmAcERERERERhQ+2yxV4ZmnKtK7PU5ownYKrBaS3Lal1sl2ON5vbb5oox4iIiIiIiCic/ePVZXKsadjj2soxXwYh/a6F6JSmTZW//Shw3QNI0SaB7Y9i8xtL0GbqRvToZ5wHZM5zX0/Mm47K5/SSQu77HoaCrdq4K1HCTt/Ow/jba5B83TQkKmtWrJqFnSu3OLbBdiCl337snftroN45LlFGjOsdQVnpANhWGc5jwNPIHl2A756Zjyo5yxtb9TE55mQ9rQWTNBHVHe/QrlFwSSvDsopVi1ExepQzjV22W6umw3GPx/CWlgqP+/FwLxz31jf3tGp4nvR9/vXzp/u91/LIcY/XqfCWxvWYpYu3c6x/Ls2VX0NJyATjmvoDmYiIiIiIiJpXMN79LAc+xMt91ioZCNAZAwxyloOH4INjPeO0FlBJzjcEfEyZ7VOMP4CU0sVa8EENmIzCEcOyRGNAyaH+PhzruV2vCOK0yzcEO3xoXDDOLE20c4RLYM71OvVl8WOX4tzRwMF6aaVsp1xbn7SXsbN0psk99ZaWHvazsodhvts6FjQ4GGeaJw3nL9a5Ds5gmoPxPLVtnHnE23WapbG6Uzfux3A9Xqjn11DCspJEREREREQUPux1csSHkgJU9HsAfcYOkjNMiKDAvI3KYCgN503GpUhOW4si98CDCFCo+xHD02gjZ5srxMG3ZCmg4vko2t4FCenqAkUhjuQb9m96job1tq5Ceb/R8riT0S5tMYotBjZM09RqWpumSQ8kYi2O6udhvE6xrNR5jlUrX0G5Niq364JOd8j0vC4Hiek9vNxTk7Q0209jeEqTRudJw/mL+4huSNDbK7Ry782u02sah2F+DSEMxhEREREREVH4sPoirjZAPwz78LAaGMgcIOcbiYCEWgppGDbPnYWDpXJ+Q8jjbVYH91JNvgxCgqy6WI/lc1yC4lXd0HHsIMSPnY7E/E8tVfdTmaVpswY9RFVLPT2VQZSgsnJP66Wlh/00hqc0CWSeNPIrf/p5neGYX0MIg3FEREREREQUNmx1NXLMmqqVk/DdqkIkpnkoIZeeicTSAi0IoJbuUud6V/wpjpTmqEGExumC5Cy5D1myzFGCzMiPc6zKXwNkzURGFlxLKvlglqaW09osTYr3ogI5aKcHnTLmoGM/eZ1iWdo0ZMhlIiDjKEUltzNL4/r31CQtfeynITylSUDzpJHVe292nd7S2G+hn19DCYNxREREREREFD7sFl/EHVXlNuLc0ftlFcolOLpdVuebOhnY+jIOYhrOFetNyUSFoxSP23outqDkmUdRMXqhY/8+Szh5VIiKdK2EVPYd01DxtknpJNNz9KB4PopKc5BS+opJm2AmzNLUalqbpskSFDy3GInXafOy1XbG9OtUlr29FilyWXescVahlNvBsD/1Pni8p4JZWprspzE8pUmj8qQXlu+92XV6S2N/tYD8GkLYgQMREREREREFRbDe/ezRCUB0vJwiI38bwkdtFWy1lXKivtBPa2MnAXJWU/GSVsyTDRPo/BoqWDKOiIiIiIiIwor6Mt4C2o0KOlEN1M+G8H0FNpjWko+0Yjo1QBPk11DBYBwRERERERGFHduZ0wx+OAxC+l2i+uAoHNF7vPRFBDZEGloQ8WltMa2YJ61q2vwaClhNlYiIiIiIiIIi6O9+tmjYY5KUf1kOxS96YMNeK2dYEKlp7W9aMU8GXkPyazPj3SciIiIiIqLwpLyc22pOqO1IkUWizS2RZv4GNiIxrRuSVsyTgdXQ/NrMGIwjIiIiIiKisCbakbLV/H/27gQuyjr/A/gHq1VJM5WzFNNAWEGFDg3xCEzFEi0z0X9qqNmmebRqZm64pp2mbqlpm6nksR6Z5VGCmeSBrrotXhgIpnkkcliZ57Zb/+f3zG9mnhnmZhhg+Lx9PfI8z++5r5nnO7/jEnz+ew347b/KizuLChqIY6EcE3Fs1GNUzjq3vPpYu/FY8Zp0kZuv18rCYqpERERERETkEXz3IyJizjgiIiIiIiIiIiKP8ZqccffHROHRhx9E3Tp15Bjg4k8/Y+k/NuDc+SI5hoiIiIiIiCoLc8YREXlRzrjHHo43CcQJjW5vgFHD+ivja8sxRERERERERERElcdrcsbNmTFR9jnn2vXr+OyLr3Eg+6gcQ0RERERERBWBOeOIiFhnnJqbThRvdVwEhq9ch+Et5aDbVfTyiYg8xQ+JYycipbUc1GrdB3MGhMsBFwTGYfLYOATJQc8S+zUMiYFysKoTx3pGNdped6vI/a/Rx9bZ+6Ci75tqdl9S9aDe4xONXXk+t4iIiDTYgIPCvHgrERF5kfIG/so7f2U7sgHjU5cg/YIcrgoq8piaL7si978qHlsichM/JMYDy1NnKfe56NKwNSDJ8g9MRERETmIwjoiIiIiIyEQJ0uduQLYcUocz89EmkrnjiIio/Gp8nXF64hcvx4hipK8Cr6Sh6YdT0V4dtwuzO0/ANrVfENMsQ7+mcvDMCox5ci4K5KDtdP3y+2HxcWUwcTa2TOmEs6uGYMTCXISOXId5A0PUKcuul4ioKhHFxlIQlDkLaUfkKD2ReykyF+NX5ykD4UiZEYFDqbloOyMJbdQJLmLrfG2OIzGNPg04nLkXQVFA2twsFIoRYnn9w9Q07bxBCcMwKb6RHK/Mt1a/LWbLM4w3ZXl+sV+9gTVZCBqtX0Y+lqdqX9ocW37MgInoUZSGN7eXyDFynVF5mKnum7XlyG3IzEN0/1gEyPWfN9le/Tbpj69++3Tnpbu/OgAU75XrEhzZN3OWt9F0P+RwQBZmFsVZP6Zm+5Nt5bzqmO2HMs/GzMboXWbZFbn/2mW7Oq+1697KMbF6TVhjbz3mx0dhcn+a3wf67XB2fx2ZXkxj7dwIttL1y5f7Ja+dokzT+4uoPMS9kIKNFq8pS89z9TqML5HXqY171+qzTl7XDj3rLbD5DDXbHvPPVbv3o+tYZxwREXDTLbXrTpP9leb+tuE4cEj3hc9VPRI6yD7XZGTukX32+OGex1PQb3AtrOn8BGYsXYQLLV/FhIfOY+VXInomA22np6PnoBewUknfF/gC5v05CPvW71M+Bu2li+UnADvWIrvxWCx6uy22Pt0Nr2QoH+wtx+KtvwCL5HpXnv8DWhQcx3e6DSMiqmJ8Edo+GvVO7cHBIjlKLzACPQJKkHG0VBnwQ3RCLLon1MLW1KX4SHkeZ5SEYNTQCOVFOk/54i9eCJIRuj8NqUu2qc9rn/bJ6HDrWWTtO4PLyhJiovyQsWQNPtHP28sPh5S0wpPZyrA/emAPxs/bJLfDfHmliB7TB0HHslFwRaQbXbY4v9gvZXvjjdtbFJiEwVGlhv1xdPmFPv7o2ytE7qfgh45JsbiSuQa7i2wtR25D87N4702x38r8gXEYneyD9YZjCAQXlarHLzrBDxcMx1J5uSrapO6POJaHbu2GSUm+6vG6bHffzFnfxoNHs1HUPBkdfZTz76NsW0Ip3lucbeWcWNgfZay183rZ0n74+OGW7RvxkYXzXZH7b1y2K/Mq01u97i0dE1vXhFxsGfbvL+M+SNr70+p15ez+2pve3rlx5NyFAznKsagXh8lDmyJr/ntIO3pVt3qicgtHv2EhKPg8y+L9Zul5njigqwPPc1vPOgvPAav3ZFm2n6Ha7TmOoCQRmNN/rtq738rHHe9+RETVHYupuuQ01j1tzJG2bekKnA1pgVAx0LI7Hmi6C7Nf2qymCQULX8Y6dEYX0SiDvXS9FmOx6MPO+OfTMoecQTM000+Xvpm54ojIS4hf7DW/7B/JwtbiMLQVdfMEhiPaPx8ZmtwG2Zl7oY3vZW/X/Fp/JBeH/f0QLAfLaB2H7tiLNMPy8nAopxGiI/3ksCNMt1fdngA/XYMSzixfu5+C2Fdl3nSRW8KB5RzONM+l0BiB+grsj+SVzSkhj+VymeNJKNy+EVuVl8xoQ8X3NvbNnJ1tFPMGxcchMT4cB9fYz1Fhvj9Wz6tYb5n9yLKcM0TL3ftfhrPz2rjuJZNj4vK1a389tlm7rsq3vybT2zs3Dp07RUAcJo9WrjeTHEBE5SQaDZqRBKy1cV1Zep4r1+whB57n9j7DnH7WS1aXK7fN+LlagvQ1yv0ohxy+34iIyGUMxrlbi2ZocuZ7nJKDZdhLV4Wg35RBwKqXTQNxx+dixNM78cCH+7Fl535MS5TjiYiqpBJcUL7ZBylf/s0F+TdGUZE290wpLpi84GjmVV7WA4pLcF6mWKS+KE2ULd4Zi91Y5R+LSYbpJ2JwpBzvLg4vvwQHj1401EEUEx8LHNXkULK5nIso1EYkL2Thzfl5iB6tm9ZiJeOOHEtn2dpGZZvSjiovb0UbHQiMmO2PYOu8urIfFbH/5WLjuldZOCZWj7cocmYcP8ektWF767HBkevKHeydG4fOXSN076/cQ5mOXG9EjhFFU+eM9kNGqr0i4abP8yDxN1PzI4GtZ6XNzzAXnvV61pbrlvuNiIjKg8G4itC0Ge6SvRbZS1dz3k3HuYHLsGhkhBwniYBc53bo2Xk6MIUBOSKq+gICGss+o+CARihUvugbaX7lV/khMADGafS/5uuJFwXZq9aJI1+UdC3ebcJhmWSVqPvGML2uc2u9Uk4svzAnD0WREYhBONpGmuYAdHo7xUuaOt0moL+VlzTzY1leNrcxHIlRpSiM6o1EZ3NTuHJeHeHu/S8XO9e9JVaPdx7StONN6nZyYT1ajlxX7mDv3Ng9dyLn3SYUxqdgcoIDgUYiO/R1XY63WheiKZFD97B8nouWWA/maO4xa/euK886R+5JZ5er/VwVqtSzkojI+zAY527pi7DuTCdMeKOXHAGEjnwV/U6n6XK52Us32Ixpnc0CcomzNcG3Apw5I3uJiKootRhaZJLpi4LygjA4UhbdMWiE7vHGFuqCEnqrRXrU4pqiaA3C0MPwcu2nvOToK6SWNL/gByXE2c4ZpxbViUVKRb2sO7t85aUqIycMbQdEoE1OrvGFz9nlKMfVeJxLUVgse7VkMarBA8yOdVGWazmJbG6jqHMoCcjcgLQ1eYhO1ubUcpC182phvSI9RvZb5e79Lzcb170lLl+7ttYjrhUb95cj15U72Ds3Dp87EZRkQI7cQQTUSk2Katonip/qn+eaa9PevevMZ5gz96TDz1Cz+77KPSuJiLwPG3BQXL9+A1/t2i+H7NE0sKAvYdW4PXo/CGSpDTCUIHv9eYT9dSpeHDoCg5Tu4ds3Ycyo5UqaYC9du/zj+DqrLnr/5a8Y9VBd7PvsZ/R8ex5GqfM9hlZHp2PE300ieEREVcuVM9h9zAeJQ5PRV3lOi2d1j8iLZVpQjBaVy3/th0ljktRp4pqfxfI3v5StTJfioLKMjslJchkhOPH5QdRvDhwUFUkXlcKnfRKG9NItP+zUQZxo7muskL4ICFbmHaKkBZeIxiSU5WWWInRYsjpO3aYEf02l22bKzK+pKF5fiXe9EHSMktsjtteZ5StExd9D4htj69ptmorBbS3Hwjb4KC9ThuMcjbtPbcJb23UV4xsr6L+Kgn2lhv1Rj3W9g5i5OFtWyG1v38xZ38bgAaPQ94rcBuU6uNI8GaP0lfU7ckxtntey642rdxYZ6vVgvuyK3H/tsl2Z19Z1b2F5Llxb9tejHJNTZvfX/rO4+1bZgIPV68rZ/bU3vb1z48y5U46T/pnR2sctFc5TDRQYgcR2bdFBXm/GzpHneRgOf61vREawce/afNZZuG+s3pNm7D1DbX2u2r3fyocNOBARKY9z3/oNf5f9lcYdzVvfHxOFxx6OR506teUYx4hA3KdfZOJA9lE5hoiIPEvUdRWBQw4WAyLyDp667nl/EXmUKB4aX4KZJkXFqwGx3ZG5GO9UTkDXuOPdj4iouvOaYBwREVVXDBZQTcRgHJH38UPi2BREH02zXb9nlSOeE6K1WHuNVLgH3/2IiFhnHBERERERUbnEDBAtlqage9GmahCIE0FDfSurovNcII6IiHSYM46IiIiIiIg8gu9+RETMGUdEREREREREROQxDMYRERERERERERF5CINxREREREREREREHsJgHBERERERERERkYcwGEdEREREREREROQhDMYRERERERERERF5iI9v/Ya/y/5Kw+atiYiIiIiIvJ8n3v0mjhqCO4ID5JDRgeyjyNi+V+3v8/CDaP3HMLVf69r16/jLa/PlEBFRxWAwjoiIiIiIiDzCE+9+c2ZMRMHJMzihdHp169ZGu5go/K78E3yUf0e+zcfFHy+pw8LdzZsiVOnGp86SYxzlh8SxKejuLweF4r2YOTcLhXLQbQLjMDkZSKuIZRORx7CYKhEREREREXkVEYjLyNxj6D77IhPvLVmDunXqqJ3oX7U+3WQabfDOFYfXzlIDeeNT07AVsZg0IFymEBGZYjCOiIiIiIiIvN6580VqjrkflL+iv+KUID0zHwjwQ5AcQ0SkVWWKqRIREREREZH380Qx1Yztutxu5kYNS1b/LliyRv2r1SO+A3okdHC5mGpQ5iykHZGjWvfBnPgSTVHVcKTMSEIbtV+Xi85k2v76+usuYuv8JUi/IAfN58vci6AofTFVsV7lXTozD9H9Y6HWkpezCeNXQzNPPpanbkC22i/Y2A4i8hjWGUdEREREREQe4ak64yo3GKcLeMEQ6NKlRx9Nw5vbS2R6HApl0C0mIQ7nt8ugnUkQz3w+ZdoBEzE4QF8fnS69O/TD+kCbMaAXlDAMkwKyMH51njK37e0gIs9hMVUiIiIiIiKicmrTf6IaCJyjBri0Od/i1IBZmgyoAXk4lNMI0ZF+6lC2PhAnHMnFYX8/BIv+wHBE++cjwzCfMm3mXpgWsL2IrWv08+chPfMiijI3GoJrhTl5KNIXl7WzHUTkOQzGEREREREREZWTvgGH5TmN0D3erPEG/1hMUgN1um5wpBwviBZSDWnGIqSizrmA4hKcl4NuYWs7iMhjGIwjIiIiIiIicpPs1ZtwODIJKa3lCKF4L2aqLa0aO7WoqCiWOtoPGYbxyrxyFpU+l5yeCNDJXpdY2w4i8igG44iIiIiIiIjcJg9pa/PRpn8fxIhBtehpLFISrBQH1eR+C0qIM+aME/MhDD0M8/khMV7f0IML7G0HEXnMTbfUrjtN9lea+9uG48AhUaEkEREREREReStPvPuJRhh88DsaNWyA0OZNDZ2g/3vxp0tod0+USXpo8ybqPJYafrDNF6Hto1Hv1B4c1FfoVpSHosAkDE7wwaF92didWYrQYckYomyb2L4eCf4oysxDYVEpfNonYUgv3fiwUwdxorkvLog0lOLgMR90TE5CX3WeEJz4/CDqNwcO7juDy+p6w4GcbBRc0a22XvMYRCMPu09elSNC0DFKP72yPGvboZuaiDyErakSERERERGRR3ji3W/iqCG4I9i1wpw/nC/CrAXL5BARUcVgMI6IiIiIiIg8ojLf/brE3os+D8er/Ru+yMSOvd+o/UREnsY644iIiIiIiMjrieDb0n9sUDsG4oioMjEYR0RERERERDXCkW/z1Y6IqDIxGEdEREREREREROQhDMYRERERERERERF5CINxREREREREREREHuI1raneHxOFRx9+EHXr1JFjgIs//axWznnufJEcQ0RERERERJWlMltTJSKqKrwmZ9xjD8ebBOKERrc3wKhh/ZXxteUYIiIiIiIiIiKiyuM1OePmzJgo+5xz7fp1fPbF1ziQfVSOISIiIiIioorAnHFERKwzTs1NJ4q3Vq4IDF+5DsNbykEiIi8RlDAMcwaEyyE7WvfBnBnDkBgohz3GD4ljK2O9FSEcKTP6IEYOeT2Ta8ZD+15p1ykRVW817PlMREQ2sQEHhXnxViIiqgRHNmB86hKkX5DDrhCBEnvBP0emKY+KXr67VJfttMUd14yzKmOdQmAcJs+YiJTWcrgm8YZrlcgdeC8QEXkNBuOIiIiIiIiIiIg8pMbXGac3PnWW7LOnF6btjMfuzpnouHMq2qvjTmPd0/2w+Lg6ACTOxpYpneSAWZpaJHUZ+jWVg9iF2Z0XodnKV4FX5HRy/rOrhmDEwlw7yxPbo98OYN+qFbizI/DWk3NRoI4xS3+9HaalywEiogomiqlOCsjC+NV5ypAoDtobWJOFoNFJaKNOkY/lqRuQrfaLIjwROGQyrJ8OOLx2FtKOyAF1WSno7i8HleVsymyMpPhGcth8eh11e8pMY2+7BFvbYmR5+aLP2vxy3Zl5iO4fiwAxKmeTcrygmd7SMcpFW0P6RWydr8+pZXYMRS6K/mGiT2GczvnttKTsOdBtp9n44r2YOTcLhepARe6v2b5b3RfzbTA/10DMgInoUZSGN7eXyDHymEXlKftSgkQHjnHVY+9YKqzui5Vj5vD0CpvnWbB8vsp/T5U9v0SVw+wZZePZYXrd667h81bvBSNLzy51PfEl8jls7b5ROHv/q9O5hnXGEREBN91Su+402V9p7m8bjgOHxIua63okdJB9rsnI3CP77GmJB4cOwRNDa2FN5ycwY+kirDzfHq+/3QMXlm7Fd8oUD3WLwKrnnsY8fdrYCOxbv0/5WJOBuNPT0XPQC1ippO+rE4Hb/3UCtz+eAOxYi+zGY7Ho7bbY+nQ3vJKh+yC1vbx30OqLIUh+7g1lebtw95//igdwGFsspp/Hg0tex91ZynpK1UUTEVWoes1jEHfrGWQcFQ8dX4S2j0X3+FrYmroUHynP3aLAJAyOKpXpfohO8MMF5Qt/ofrlPxmh+9OQumSb8owuRfSYPgg6lo2CKyItBd2LlJf7eZvU5/chHz/csn0jPirxRw/sUccfLFI3wcTlk9nIKDON/e2yvi1ifiPLy7c1v1x387N47801+ERJC05OwpAEfxya/x7e2yT2LQ6j2l/VHCNl+gTjtmaUhGDU0AgUyeNmPIbKi1mUHzKWiOXK6Xr54dC+Myh0ejtFupblc1D/5DVEm4+/tRsmJfmq672sP9YVsr+OXj/m26A7VlqFPv7o2ytErkPwQ8ekWFzJXIPdRY4d48vqfBrKi+7khAh0VPa3b2sf+DRPxqjkDggu2aMef/ESPUkZFt9nRKcfrzvWo5TlivH+mm0SxIt1RwSJYzasqzpfjM9x7D55VaZr2TuWtvbF8jFzfHr759na+Tp4tLz3lPZ4EVUmB58dgXEYneyD9Yb7FAguKkWBxee2KUvPrsQBXQ3PLlvPeGfv//Jwx7sfEVF1x2KqLhG50yZgmxxC+iKsO9MJHRN1g9sW6nOlKdIzsa9pM9wl+hNHoF/TXZj90mY1SShQpjUsp8VYLPqwM/5pkvPNxvJadscDyvLWiNxzqlwsfmUFzsohdX1YgbcM6ZuxOysED3SNkMNERJ4mfm03/qKenbkXRQF+CJLDBq3j0B17kWb4dT8Ph3IaITrST5fmn4/lam47ncLtWeXM+WJju2xtiyPszq+se40+51ie8pi/qLxIbTTkkCjMyTM7RqbbiiNZ2FochrYW6hLLVo6L4aXpSC4O+/shWA6W4cx+WjsHgeGILjN+I7ZCGW9o8KDi9tfAgX05nKk5NubM1yH2S1leulkuFMGZYxwQCWSkblKmiUV0URpmKvsepEwvZK+epebSV7v5exHUX1/RewnS54rxynzqsLkwdBe5T+V8iAovez8Z2D6W9vbF/JjZnt6J8+zsPVbe80tUBdi+fxojUP/MPJLn+OebpWeX8kw+JJ5ddu4bZ+9/IiIqHwbjXPI9vtcEy0QQ7PvTwJ3NZZCr5Vgs2rkfW9TOWERUdeZ7nJK9pkLQb8ogYNXLJoE4lbXltWiGJlaXJzUdhHmGefdjQpwcT0RU1fnHYtKMiWo1BKIbHCnHC8UlOC97PcLWtjiivPObKMUFGdDQKcGFIhiCOiZkpf+69RqLJlnlzHZaOgcBfghw+7lxYn+1bO7LRRRayFViVIKDRy+iTaSuovSY+FjgqJXcIM4c45xc+VKdjwzDC7EkiojplzNaFu10iCb4eaEEhWYv0KbsHEub+2LhmDl7fdni7D1SrvNLVAVYu38uZOHN+XmIHq1Lc67RFtNnV5D4m6n5scrWfePs/U9EROXCYJxLmqFZS9mrikCzEODcSVm/24fNsKZzO/RUu+nYJ6eyTeS2m45zA5dh0UhNzjVnlycCdLJXdWYFxhjm1XVqPXRERFWdqGtMn1NIdib14HhSebfFrfuiyTGh8kNgAFBYbCG4M9oPGYZ1WstZpeGO7bQZDHKFg/trrpz7oubcioxADMLRNtJC8Exw5RhbFI6U/o2xdX55l2OPjWPp7L64bd8lZ8+XW+8pIg+zd/+IgJwcj/7OBeRELuXD8tmVGA8czNHcF9buG3ffz1Xcow/Hqx0RUWViMM4lIeg3tJfsB0JHvqoWB12hbxhBk1stdGSKMSebWsR0EF7UBNtCR47FQ7JfFCOd1tlCQM7h5UVg+GB9Qw8KC+sjIqoW1CIysUhJsJD7yUJaUEKcLNJXAWxtiyPKO38ZjdA9XpfrQQhK6K0WPbJUhFKbe00cI5s5l5zZTmvnQBaRGjzAbPuKsgzFE53nxP7queOYKy/DGTlhaDsgAm0MOdoscOYYOyhmQDlzmVll51g6uy/u2ndnz5fb7ymiSmDt/mndRxN8K0Vhsex1mCh+qn92aZ699u6bCniWVVV3BAWoHRFRZWIwTnH9+g3Z56hdmL0j3lD0c97A7zFb33qpqD8OxqKhL2KnJiebMdhmmLcjzIqZKtM8vQIQ06wci1B7y9NPq6a/CizX1BlnYX1bds7WBP+IiKqqPKSlbkJhfIqhOM2cGfo6tMqmTYqC7iVCvGxEJqnjrOYkcGQaE7a2xYIyy3dyfrvysTwnwrCsSfGlWG5orVRDBMZgLJKUomyHSU6Hcm2ntXMg6jfbZFiubnweZmrqkHOeg/trwj3HPDsnH20iG2NrppXtt3eMHaaru6m7LJbWo2ivZjmikQYxXgTowjBY9I+Ns1EvnC02jqWz++K2fRfsnK8Kv6eIPMzW/VNUgqD++uta1yCOocVTBz+/dM+uMBzO0T67bNw3br2fq6a7mzfFc8P6q/sXqvSLTvSLcSLNnURruMZjrOsma4KgosEe0/RhSNTkWhbza6d3hPk67c1vsg2aH9DKEp9B8joROSjNtpWIXOfjW7/h77K/0rijeev7Y6Lw2MPxqFOnthzjGBGI+/SLTBzIPirH2NML03bGY3dnTQMOVYko1tolEz01jUQQEVUP4gtfBA6laiqYJzM17RjxmnAfHkuiGkMETeJLMNPuDxeVwx3vfo6YOGoI7gg25oC7+NPPOPDvHNx/j66yPH1/o9sbqMPCufNFmL1gmRxylnjOJqFNziaM1/4IJerjU87Hm3KcCIT1KEozFq0X50utqmCJmpNRBNZSsNGpovcxCXE4b2iEQ7Scm4KgzFnGQK6GWP4k0fCPte0xwc8OooriNTnjRDBtymvzDPUfONqJeRwPxFV1vTBtSifs28FAHBFVP2qxGFvFAYmIiMgOPyTGh6HIWqMzNUhG5l7ZB6xan45XZy9Sxu3BxR8vqZ3oF+NEmt5WzTzOUqsYMA/ECaIOQFs5xEXOxGIbLUg7wKQ1XNmQh+WGjkRdgqUmrZ6LFuQRX4HVfRCRRSymWq1FYPhKffFT0U0FXm+HacbPEyKiKk9ftEItMmfryyoRERFZpSt6qCvaygZNgKvXr8s+Xa44a7Rp2nmcEhiHHpEXrVdr4AC7DRM5TBdws9jwUKAfgjT1A6ou5OFgsXkDP5aIXHLaKgFEDjxNcVdDmpjOON5YpFpML4q5atNNqxgwLW6rTbO2TKLqi8E4p4l62KpKEdVcLH7StKVUBuKIqLop3L5E5lZmEQj7RJ0/Nek41bT9rUg8lkTeLnu1LP3DH7ZUPeI7qIE20SXGx8qxZTk6nU0BfggozsNBFxorUhvT8c/HIVsNE9kjisIaglU2ipWK7SwqcUOuSV1RWBH41Zc4m5kpgn9ifBKCMtPkeNEisLaeOVE/qtg+3TzLczSNPin7kCJ+mJVp49fm6sbbXSZR9cRgHBEREREREXkNUQ+caKRB1Asnurubh5jUDafn6HSuMMnlZdbwToC2ASQ1AFXOH0tEUVh9ECs1F22V5VZo7rHWcWoAUVuioXB7FrLFeOxFmiFXnq6BImMR3IvYOt+4r6KIbFGAn+bYaHLoHcnTTWd3mUTVE4NxRERERERE5DV6JMSqDfXt3PuN2ol+Mc6co9PZVVSCIn8/BMtBwZDzf/5eFMlxekWGXF6iczQQZ1pU03rL2nlIW5uPNvEW0sV2mgS/ysG8uKuev7FlXtEN1rWXYZ8IKM7PQ7RsWdwkmOjqMomqMAbjiIiIiIiIyGvcHxOF35V/nTvci+4JsWr/3c2bylQjR6ezS613LQw9Eioyt5aobkAfwFM6V1rLvVCCQrOgIQLDEa0s25UithYV78VM7XYqncN1GBpy+ImiqJqAXHmWSVRFMRhHREREREREXuO9JWtw4uQZtT64LrH3qf3aVlP1HJ3OvhKkrxGtkqZgjr4ONE8Rda2ZBAHDkdJf06KuWp+cvo41UcRTU0+bIkbUk+ds67tHcnHYP9ZkvaJV/BgL4x3Wuo8mN1wpCotlb3mWSVSF+fjWb/i77K80o4b0xoJlG+UQEREREREReaPKfvcbNSxZ/btgyRr1r3vJhg385aBK1JO2BOky55lo9bZHUZrVnF2irrlJ8Y3kkCRyhlnNCSeKryahjRwSDq+dhTR9gxAiGDc6HAcN22C6jaLIrPVcZmLZ+gYhtP36NM16Ddtovj35sk48sd7ewBrjsVC3TTkdaWI+dTtjESCTkLNJ0xiJtWUSVV8MxhEREREREZFHeHcwjojIMQzGERERERERkUdUxrvfxFFDcEewIc+ViXPnizB7wTI5RETkGTfdUrvuNNlfae5vG44Dh4zNIhMREREREZH3qYx3v18uX0VR8UW1Tjjz7uDRPBSVXJRTEhF5BnPGERERERERkUfw3Y+IiK2pEhEREREREREReUyVyRlHRERERERE3o8544iopmMxVSIiIiIiIvIIvvsREbGYKhERERERERERkccwGEdEREREREREROQhDMYRERERERERERF5CINxREREREREREREHsJgHBERERERERERkYcwGEdEREREREREROQhDMYRERERERERERF5CINxREREREREREREHsJgHBERERERERERkYcwGEdEREREREREROQhDMYRERERERERERF5CINxREREREREREREHuI1wbj7Y6Lw2l9GY86MiYbu5QkjcGdwgJyCiIiIiIiIaqKBfRPVrsIFxmGy8i6a0loOu6J1H+V9dhgSA+WwNY5OR0RVjtcE4x57OB5169SRQzqNbm+AUcP6K+NryzFERERERERUk4j3QpF5Q3SivyLFxMeiMCcfbSLD5RgHiKDaAM30RzZgfOoSpF+Qw9aYT2e+HCKqsrwmGFfHSsBNBOhe+8sYkxxz2k7kphMPZSIiIiIiIvI+98dEyj7TfvcLR9vIfBxanYvDkRGIkWOJiMzddEvtutNkf6W5v204DhzKk0Ou6ZHQQfY555abb0Zo8ybYvmu/HFMZemHazj/h5qVb8Z0cQ0TkVUSRjcnJCC3Zg4NFcpw1YtrhISjYdwaX5SgT9tLL8EPi2AEIPZWNgityVGURv1iPiYPPsXJui7uWQ16uYq79oIRhmD6sq/rdS+1a++CQcj+GDZiISclynLaT6Y7dr05Q74MIFGXmoVCO0u3zKPS79Th2n7yqDIcjZcZQDLGwLWI/Rjc/I6fTifH0PlANIq7FjvAxuV5rJne8+zlr4OOJOHHyDIpKLiKiZXPs3PtvmeJmrTtiCHLx0dE8+AQmoUeA/lmkp3tGjeqlf7744z8+cRjbqwkQEK6OC1a/Kxmvl2DluZRithz1OZzkqzyXfNFPTgcxzmw5Pgll59XlnvPjM42okrEBB4V58Va7Emdjyxu95AAREdnjUpENV1XlIhqOFjsxZ75Pri6HKocj16Q7rtsKv/bFy+FETIrKw8zUWco1KLtM5eWyNZC9Wj9uEw4jH8v16XOzXAs+2Nsf5T5YnhOGwdppWsehO/YibXuJMiC2NwlBmWmGbZ151A/RNupWcvs+ELlThd/j3qn1H8PUoqkHso+pnegX4ypCTGQYDufoAo3ZyveegKhwBKlDggjEpaB70SbjMymzBD9tX4Lxa/OBHN34tCNyckldTnycJped8hyLaoTDmabPpUILy7E0b2K8so1m8xKR5zEYR0REFYxFNoi8QcyAJLQRL3nmgakjG8q8PHpKduZeFEXGycrLw5HSvzG2rpHbF+invATnI0MNzOkUbt/AIDZRDTBx1BBDtURD/68PLv70M458m692ov/+mFZySl3DDtpqjCYo87okMA49xPcd/fPwiPK9xz/c+AOA+LHAPx/LVxtzBRZuz0K27LfqSBa2Foehrb5BiEBlmdiLdEeeu5bmVbbBsI1EVGlqfDFVvYzMPbLPttCR67ByVBsgpAsGDR2BsPOL8HWBSInA8JVf4PXnR6jjBz1UF/vW78NFdS7BVnpLPDi0OU7LYqrqOuZM1E03NAIXWHyViKozu0U2RO4VYzGy4CtnUS8AOGgoPmEv3UgttlGmqIcvQtuHAzlX0XGyfjn+ZkXbzNZhtTitmM6smJHIqZCgfI4cLVUGxK/eoligtXUZ51eLk6hFTIxF5qa3vyqXY2R5n7TbIdd51Rf9xiSjr1hnYKmyHD/NPrm6vwqxf2OU86ZOG2FSNFbdNkNxRfN1aNhYRllif0yL8OiWazbepNigs8fAncdMLsvKObd8/sR8RtansbXPpiwvw43XvvKSmdLrVmSt3eZAkVc/RCf44YKD67F0HVkqbmVxu66cQYFPDIZEXcWhgDj0vZqF9/bJe+iKsv8JsYj2MX/m6NRrHqO80OZZTLO8D0TlYXZNOflsdeSeEMWsbRdJtHG/W90e8+el+TPEeZ4opvrL5asoKr6oFk0VnSiW+uNPl9Q0USqqQ7toHMjOUfsH9u2Jo9/mI/tInjrtQeX7iijO6qyg9t3QvXkTtJXHt0dCOAJRF3ffKj5flOdSYITyHagEGZae4/o0w3cA7fVyFZdvjUDf5rrvCDFJyQg9+RXS1fNsdl2VWY7pvGIbo09twzqLzz0i8iQG4yRHg3EX/7UWK89HYFCtj9Bz0AuaQNwy9Ds9XR23cuki7At8AfP+HCQDbvbSNcG4lmPx1l+ARZ2fwAxlupXn/4AWBccZjCOiaismIQk+OZvUL/yFPv7o294YgNJ9yVe+VO5PQ+qSbeqz2Kd9MjrcehZZ6jT20k1dPpmNjBJ/9MAejJ+nWycgAhKx6B5fC1tTl+IjZRlFgUkYHCW/HJdZRymix/RBkMWAkYUXdJMvvvbXpZ+/QNnWoubJ6OijvAz5xGF0QineW5zt4D5pt0Ous/lZvPfmGnyibH9wcpLysuWPQ/Pfw3ub9uCQsvxRhkCfM/urnL8oP2QsEcvdo2xHCEb1ki91gco2J/tgvdzPjBIguKjU4gua1WXIdCOxbbIIj7Kv4nwf8vFD/ZPXEG0+/tZumGQIZjp7DNx5zGyfc8vnz5S1c1zmWJjss6kKv/Zb3IO+AWfwyXZL582c+X1iYz31LF9H4v6wd9z0Lisvzz4JyRgSeRbL52lz7ZXi4DEfdFTOraUAAoNx5Fmm15Szz1ZH7gn1M7ZXiOZaV+69AV1xJXMNdhfZvt+tP6fNn5flvyc8EYwTwbQTp84YOn0gThD9nTvci2vXb+DO4ACENm+KD5atx9HcAnVaVwJx4lh3TIrFlc9n4a3VyjEUx1E9lso5i/fTnRPxfaH5VYvfX2wH45Tn3FVfxCjn9kom0Da5FrKWZBvOscmzqsxyxDPyqvIZFwEfZd6Ow0JQ8HmWxc97IvIsFlN1h5bd8UDTXZj90mY5AihY+DLWoTO6tFQG7KWX0QzN9OPTN2Ob7CUiqnbsFdmQxSW0xcjUYmey3266wy5i6/wNhqIg6jICRBE2hUkdU0IeDuU0QnSknxx2lo11mRFpQfFxSIwPx0F90TqXKOs0zJ+H9MyLyhf/jYbieIU5eS7vb/Z2zXap588PwXIQaIxA/bk8kme1qI3tZWhYK8IjrwPT8RuxFZpryZljoHLnMXP8nDvMoX12hI1tc/u1b4Xd9Th2HVnXGEH+ur+G5ehdyMKbqbN0dcvNmIjJyksrUVXgjmdrGbaKJNq5D+09p72pjjFRTFXkhLv/nki1E/1iXLloj7WW9pyoxzUWKZrnUFCCtj43G5RnWYbyHGs7IAJtcnKdfE6Kc62fN4tF9YmqCAbj3KFFMzQ58z1OycEy7KVrHZ+LEU/vxAMf7seWnfsxLVGOJyKqhoIiwxEA3Uuwri6WJLRBI3SPlxVQB/ghoLgE53VDZdlLdxfly/EkwzZOxOBIOb6iKV+u044qX+CLjEEgj3BmfwPjMNkwrTh/kghyzM9D9GhdWor+5c8Sa8uwxNL59tR1YIunr5Gqdu0XlaDIWhDVEdbW48x1ZIW+LruZmTA+W8yoDTPM3wvEp7i0DiK3c8eztYwSHDx60dBYkvgMRqamTjJb97vN5/RFFDr/K1iVpm/IQd+wQ3mJhqoCLAbJtOckD2mpm1CoPIf052BSFHTPeRGoi0xSx1k756IxhjaRjbE100auQivL0c1rbFyCiCofg3Hu0rQZ7pK9FtlL1xIBuc7t0LPzdGAKA3JEVF356Vr7WitbI9R3oqUvbUMO5i/4Igghe1X20t2heK9p65BK96Yh90BFCkdiVCkKo3rLCug9xNH9FXUIjfZDhmE60cKkhnhplOPR38oLhL1lOKo8gSB3qIxrxBP77Oh+XcjDweIw9HA1Z5mt9ThyHVkjc9+KHIQiF6V4CbU6v7oPQJByXIkqlTuerVbo7gPxGat8vsQDB3M097O1+9Bdz+lqRN+Qg75hh/JSA/6anMxaaiunhjQRkDMef2ODOMbxugZxxLAxV7PKYkvq5tOZL0dDOf8ONfpARB7BYJw7pC/CujOdMOGNXnKEaIThVfQ7nYbFx5UBe+laibM1wbcCnDkje4mIqhtHi2xA+4Lvpza5b2Av3R0sFBuxrhSFJgGJ8myPqL8nCcjcgLQ1eYhOjitfsUZHObW/Ck3uLFGcxpBbQnl5M74giuMiey2xtgxzFrZNLcIjr5nBA4y5noISeqN7kYeK2zh7zNzBE/vs1H6VIH2NLmfZHM02qUyuBQtsrceZ66gM5R5KjtXk/FFeQtfmo028vJcC40zXqT6TLpoGJ4gqizuerRZZKZJo73539DntRVatT1c776f7rlJ0tPz1/RGR+zAYp7h+/Ybsc1B6JvbFTdUUI83F4ienG8aJbl7HnRhjqCPOXrrGd9/jzim6abbs1DX6MK0mfEYQkddxuMiGLDqmK7LRW3mx1tYJZy/dAvHCYaeohynxK7JpsZE5M/pYqcNFE5DQb89R135Rjxmgq5xf/eX6QhYyimIxyTzIoef0PtnixP6KgBCMxZpSlHkNuSWKShDUXz+/Zl/M2VpGGWW3TVeERznuczcZjoFufB5mWsmF4H7OXCMWOHL+ykzjwj5X6LWvUHPrpGFrgHGb1C4y1/K5N7CxHlvXkZ39Ue8hkzqwFPrrTdxLF5Tx2nWOjkXhWtNcJQEm26R0Yz0UFKeazdVnq4P3uOUiiTbuQ6ee095D39KqNxMt7OqvowrPzU1ETvHxrd/wd9lfaUYN6Y0FyzbKIdfcHxOFxx6OR506teUYx4hA3KdfZOJA9lE5hoiIiIiIqJoSxU7jSzDTUASyanHHux8RUXXnNcE4IiIiIiKimk1UgZCC6KNpVTYnFN/9iIhYTJWIiIiIiKjaY5FEIqLqg8E4IiIiIiKiak5t0VO0pOmx+jSJiMhVDMYRERERERERERF5CINxREREREREREREHsJgHBERERERERERkYcwGEdEREREREREROQhDMYRERERERERERF5CINxREREREREREREHsJgHBERERERERERkYcwGEdEREREREREROQhDMYRERERERERERF5CINxREREREREREREHuLjW7/h77K/0owa0lv2ERERERERkTdbsGyj7PO8HvEd1L8ZmXvUv0RElaHKBOMq84FMREREREREFa8y3/0a3d4AL08Yofa/OnsRLv70s9pPRORpLKZKREREREREXq9HQqzsM+13Hz8kjp2IyQl+cthM6z6YM2OiaTcgXCaGI8VkmIi8GYNxRERERERE5NVErrj7Y6JwIPuo2ol+Mc5t1EBbCrr7y2ELgvwbK//nY3nqLIzXd6vzdInuIraDAT2iKo/BOCIiIiIiIvI6devURmjzprg/JhID+/ZQx2Vs36t2ghgn0sQ0YlpXBSUMw5z+wPL5e1EkxxER2XLTLbXrTpP9leb+tuE4cMjNvwgQERERERFRleKJd7+7mzfFxOeGoEdCnJoDrvUfw9CoYQPs3PsNso/k4tr1G6hbtzZiWv9RTRPTdO3cHp073IPvz57Hjz9dkktyzOWT2cjIzENhvRB0bNcUOHUQu09elalG9ZrHIK75NRwW08pxRn6ITghHYPFxZBwtBQLjMHlyMvom+KPIwvQiADh9WFdlHzsonW4aiHG9mgAB4er44JI9OCiigyK33JgkOW0EfI5lo+CKWIooVjsAoVd90W+McV3qcsyWXXZ7iag8GIwjIiIiIiIij/DEu5+P8i+uXTRuvvlmbPgiE+s2bsNnWzKRm39KTgG1X7SoeiA7Rw2+RYQ1x//++z9s37lfDda5xE4wLqx9V7QNaIy2apBL6Vr74NC+M7ispmqDcX5ImdwVLYr3YuabX6JATdcIjMPoZB+sT12Kj5R9yCgBgotKUSCCgiX+6IE9GD9vky4Qp4iJ8kPGkjX4RJ02BKN6+cn1+iK0fSy6Nz+L994U6XkotLJsBuOI3IvFVImIiIiIiMhriFZS31uyBtev30D3hFg1F5w1Ik1MI6YV81RkC6vZqzV1xYkirf6xmDQ2DkEyXUfkVktCG1G33NwsG0GwxggMlL1H8pAtey3J3q5ZzpFcHPb3Q7AcFA5nmq/H8WUTkWsYjCMiIiIiIiKvcu58kRpc+/HHSxg1rD/uDA6QKUZinEgT04hpxTwecyELGTnKX7PAGCJj1UYgDq/dYD0Ipsz75vw8RI/Wtcia0lqOt0YUeTW04CoCfVoXUajdbWeXTUQuYTCOiIiIiIiIvI4Irn26JRN169TBHUFlg3FinEgT03g0EGdLziYszwHa9B+GRH3uNEtE0EzNZbcJ6G8jaCbqixvthwx9jjxl+sMyySpHl01ELmMwjoiIiIiIiLySb5066t8fZPavRrc3UDtBXyRVP43biUCYIXeZHxITwtXRKiVtcKTyNye3TA647NVp2FrcCN1H90GMHGdCmdcYICtFYbHstaa4BOdlb1BCnFnOODPOLpuIXMJgHBEREREREXmlO4L81b8Xf/wZfR5+EC9PGKF2ogGFH2RuOP00FS4qSRYVVbr+YSjKTMP41ZYasyhB+lyRgy0Mg2dYyCFXVIKg/vpipynoXrQJaUdkmqgTLlK3HjWodiQLWxGLSXK9KciznTPO1rKJyG18fOs3/F32V5pRQ3pjwbKNcoiIiIiIiIi8kaff/Yb9Xx9E/TEM165fV4ukHsg+qo6/PybKMO7ot/lY8o8N6ngiIk/wumCceKg++vCD6kPVGtGEdcb2PXKIiIiIiIiIPMHTwbhRw5IR2rypGoTL2L7XUDRVFFXtkRCrvj8WnDyDBUvWqOOJiDzB64Jxr/9lDM6eL8IJ5YFqTmRFFk1W16lTW30Yr1qfLlOIiIiIiIioonk6GHd386Zqa6n6IJw5EZRr2PA2i++PREQVxevqjBOBNvEgVXO/mXXCjj3fqIE48QvIwL6J6jgiIiIiIiLyPuLd0FogThBpDMQRkafVyAYcRI44fUCuR3wHOZaIiIiIiIiIiKhi1bhgXGjzJmpx1Ys/XVIr7BT9FSZxNrbsXIfhLeWwOXvpRETeIjAOk/Wtetkjph0bhyA5WIad9JgB+hbA9J2FVsissDdvUMIwzBkQLoc8wQ+JYx3ffoe17uPUcalU9q6HcglHyow+iJFDZWnSHTpmds5XdTruRCTvWc1ngkef/0RE5M1qVDBO5Ii7MzhQzQ0nOluNPLhF+gT07NwPi4/LYRF8e6OXHFCYpxMReamY+FgU5uSjTaRnXmSKMtMwPnWWrltbiu6jHQ+AlGfeauPIBmX/liD9ghwm+9xxzHjciaoRPyTGA8v1nwepadgakOTYj0pERER21KhgnCiaOuW1efIDdRZbVCUi8ohwtI3Mx6HVuTgcGWEjF1IFOZKFrcWNEB3pJ0c4oTzzEhFRNVaC9LkbkC2H1OFMz/2oRERE3u2mW2rXnSb7K839bcNx4FCeHCofUexUVMB54pT9SjhFE9ei0zfu4JpemLZzBV4cOgKDlC6sTl08+ef2+Hb9PlxU0/6Em5duRa2R67ByVBsgpItuuvOL8HWBMf07u8uKwPCV7+Oeo1fR51P9NBG4YJhXENN8gdef180/6KG62KfOq09T5r8ahFFL5mGUYV6zdarbpc5AROQerTtiCHLx0dE8+AQmoUfAcew+eVUmCqIo4FAMUZ7f4hkefOUs6gUAB/edwWWH0k0FR3VA6JWDmnX4IrR9NJCzDT4JE5Fivn5RDGmAHw4py6tvY96DRUC95jGIu/UMMo6WynQtsZ0d4ZMJJBq2NwI+x7JRcEVOItY1RjkGltLUIo6jMKqXbj97JPijKPMM6rVXXvxy5HRy/hgfuQ82l2d23Hx8kJgUggL1uOm3NQ+F6noHIPTUVXScrJ9erFuk6dlalgVWt8uFddk83/aOuXY/JbFtCZDn0A/RCX64YHV+fbqY33RZosjy9GFd1W007oO4XsT5srZ/2mVUwHEnogoVFBWHMJPPCCNRzYGtzxfdc1dzP5fsUT9XDNPZemZe9UW/McnoK58RsPj8scDlzwjB7DOptY/cj/Jz57sfEVF1VSMbcHAfEeCaijtXDUHPzu2UbgjOdByEJjJVq2BhP/R8fReQNV2ddlq6TDBwZFkh6PdhPHar6e0wO6sTJhiKvYr5l6Hfad3yRTdmd2fMWzkWoXIKdf7BwFtq+gRsK7PO6cAU1mFHRO4VExmGwzm6L93ZOfkIiArX1P8lvuwnIUhTNPRQQCwCZKr9dPuCEnqju38+Dh2R64+P0+TOU5Yfr2xfZpbFFxntvI4Jw+AZETgkt1VXzNVYJ1mMfwlmatOS9XWhif1MQfeiTYb9nJlZoqYYiLrT+jfG1vmz8OZ2XZrt5WmPWxoKo2wdt0bKdhq3e3mOsh+GupGcXZat7RKcWZcj59v2MbfPhfmVc5ESX2osvrY2VyYItvbPnHuPOxFVpHC12OrBHLNns2T788X8ft4E9DdWgWD3mamsN01N34Bsm88fU65/Roh0s8+ko+GYVGH1dxIR1TwMxpVHy+54oOkurFmo/xDMxeJXVuCsHHKKQ8s6jXVPiyCazralSnpIC12wTc4/+6XNappQsPBlrENndNEE1/YtnwtDxrfEEeiHFXjLsM7N2J0Vgge6RshhIqJyUl4aeogiqvpg1pFcHPYPR7S+DrZApd8/HxkyuCRkZ+6FPrOA3XQrAuJTDBVuT1JfWmRRI7XYaRja6uv8kcvXBtuszuuQi9g6XzO92fqyt2uCfuqx8EOw6G8dpwb9lq825hQoVKY1LCcgDpNHh+PgfNP6xqwur8xxK0H6GlvHzXS71WMc4Kd76XJ6WTa2S+XMumS67LfM9jG3z9X5GyNQfx0fyTPOb2v/ynDvcSeiCiJ+DJmRBKy1Ueejrc8X8YzHXqQZ7uc8HMoxVoFg+5kJCz8YWXv+mHL5M0Kmm34mbcRWKOO9rQ5VIqJKwmBcebRohiZnvscpOVgu5V2WQ/OfxhljmVadpoMwb+d+bJHdhDg5nojIDYIiwxGg5jzSBbfmKC8zbdRf+WXunwA/BBSX4LxuqCx76VaYNMJgEkwrwcGjFw11/ojtg/KSo32RsT6vI0pxweRFrQQXlLebIOUFSKW+0GmPhYbV/VSOV/9YZTs3ln0JtLY8F4+bRa4sy9Z+2uLSdts55na5MP+FLLw5Pw/Ro3X7WCEVurvzHBKRy9RWtEf7IUP5TEizmUvazueLfywmGZ6LEzE4Uo4XbD4zL6JQG4V35vnj6mcEnz9ERBWOwTh3E0Ex2Vtuzi6raTPcJXsddmYFxshirfpuhCGnHBFRefghOqoRDq/VB7ZktzYf0DbkYJYDQH0JkL0qe+lOEjnOdA1J2C5y5BpNbgWVHwKVjS1UXmrUunvkC53uWGzCYTmVbSL31CYUxqdgcoImQOTs8sp53EzYWpbL+yk5fb5tHHOHuDi/eCGW+4f+FRSQM+fOc0hEdolA3KSALOU+d+yHGZufL8V7jUVGZadWOeDKM9OR5095PyPMn8VERORWDMY5q+VYLNop61VLz8S+poPw4kh9sc4IDB/cSfY7qbzLSl+EdWe0dcgBoSNfRb/TaVh8XI4wV2adRERupC2io6UtyiOKzSAMPQxBJl0dOwb20l0iigcp6x8QgTY5WdaLHLlEk+tPodY5h71I1x8DTU6DoIQ4Yy4FtfhQLFI0wTaRbqx7KA9pyotUmYCcw8srx3FzZVnWtssel863rWNeikLlWrO9PDvnzBLlJdf48ivWIXvdyZ3nkIhcIAJqpSZFNe2z8vli4RlvwplnpjPPH1c/I+TntLa+S/XZWOTuz0wiopqLwbhy2YxpT68ABi6TxTxfBZbbqDNOBL/ipqrTTkuU4wycXFYZuVj85HTD8kU3r+NOjNHUIVeWss7O03HOsE7RzcZDMpWIqDxi4mMRkJNrITeBtihPHtLm7wUM9bT1BkzqCLOX7hpR0XYbTcMS7pOP5TkRcltlnXNzZZ094uUGxmJKKcq+GXMpGINthnmjYHiJ0tEcC1GJtr3lue24Obksm9tljyvbbeOYK9eaqAfJZHlH89UUI1vzW1FUgqD+uunnzNBVcm67+Jor3HkOichpgaL+Rm01C/rOdgMvlj9flPvZ7BlvWI6zz0xHnz/l+oxQnp1zN+FwZJJMF59JeZjpVGCSiIhs8fGt3/B32V9pRg3pjQXLNsqh8hEfFidOnkbBKfthrNC7muDO4EBMeW2eHOMGibOxpUsmetoMgjnIncsiIiIjUXwnvgQz7QVdnBKOFLVVTmfrmfMQsc+RuRjvjpcpdy6rXKr4MXe3KnPciciqCvl88QAPPl/c+e5HRFRdeV3OuFXr09UAW4/4DnY7Md2nX2TKOd2hF6ZN6YR9O9wRPHPnsoiIyEhXHKfoaF71elEql3Ck9HdXTkB3Loscx+NOVPVV188XPl+IiDzN63LGeVYEhq9chn5N5aBi3+vtMC1dDjjFncsiIiJLYgbIFuxyNlXAr/9VKZeW8kI4NgXd/eWgQjSk4VpRSncuy92q0jF3t6p83InIXMV+vrhb5T5fmDOOiIjBOCIiIiIiIvIQvvsRETEYR0RERERERB5SGe9+devUxv0xUWj9x7txd/MQdZyoZ/zItydwIPsorl2/oY4rF1HvXn9Nq7TFew11BwYlDMOk+Ea68SbysbzK5KjvDaxZYrnFXHXfGmPrfCvpROS0m26pXXea7K8097cNx4FDrKOAiIiIiIjIm3n63e/u5k3xzFOPI6Z1BK5fv4E9Bw7hxMkzuDM4APffE4WYNhE4V1iMH3+6JOdwhR8SB8TgxNL38N6mPcg45qO2Kt89sBQZR0tx+WQ2MjKV8YauFMEJ4fDJ3IR1J6/KZVQAEURLgLoNtvkitH04kJONgitylFZRnrLNVtKIyCVe14ADERERERERkcgN99ywZFy/dgPvLVmDWQuWGQJiol+ME2liGjGt60qQPleTa+xCHg4WK38D/BCkG2MiKCEObZCPjO0lcgwR1TTMGUdEREREREQe4al3PxFcG9g3EUe/zceSf2xAUclFmWIkcsNlH8lFoH8jdO3cHheV4R8Ki2RqeYicZtG4G2eRte8MLsuxOuHoNyzaZq440SBISsBx7Jbpopjr9CRfHNIvS5vjTfSPSUKPhA5KFwGfY7ocbOo8vZoAAeFqWnDJHhxUd00USR2FUb3E9KLzR1HmGdRTc8ZdRcfJQzHEMF7fMrBoMKmjss1iWMw/AKGnrE0riOn1acq6fXyQmBSCgjLHgqjmYs44IiIiIiIi8hqiCOqjDz+IH84XqYE4fZ1wIkD38oQRaieKrwoiTUwjphXziHnLrXWc2lpt0VFtgEpHlyvuIg7mWM8Vl52Tj4CAxnLID9FRyrKUv8FyTExkGA7n6AKaMf4lmJk6C+NFt7YU3ZPj1Nx4hduXKMP5uhZ+lTRda7myJd0i3TjRzczUb0cjdB8tWijXjV+eE4bBA8Jlmjlb04p1JCEoM02uIw2FUbFww1El8ioMxhEREREREZHX6BEfCx/lnyiGqvXYw/FodHsDtXu0Z7wcqyOmFfOIectF35BD8V6klSmGKgJrjZS0PBy01RDCkVwcjoxAjOgPDEd0URYyisLQtrUYEY62kfk4pAbXgOztukYiVGI+f2PQrgw1SJiP5auNORMLlfl1DUhcxNb5xsYksjP3oshKMVub04rtVdZhLIJbgvQ1SrocIiIdBuOIiIiIiIjIq/yu/LPFR/7VsjePPaJoqBqIE7nRZEuqJtRAleUcc6ZKUVisC74FRYYrM5SqueWC/P2UZfghqLgE5+WUCIzD5BkTMUftktBGjrZKO29FCPBDQEWvg8gLMBhHREREREREXiMjc6+ay23UsGQ5RufTLzJx8aef1e7TLZlyrI5oxEHMI+Z1hQjETYpvhMNrZ2G8JueZlgisBdgpoqpTgoNHL6rBN1FqVp2+SOmiwhEjgnP6YJ7IhTfaDxmyuOj41E04rM5fxYgAnewlIh0G44iIiIiIiMhrnDtfpAbeRP1vQ/+vD+rWqa2OP5B9FK/OXqR2J06eUceJNDHNHcq0Yh4xr/PCkRjfCEWZabJuNkscLKIqFYo64aJ6o0eAnF600Kqsp0eUDM7paXKh6eqjs0EtxhqLlAQ/OUI3j1oc1l3KrMNPOTZhsp+I9BiMIyIiIiIiIq8iAm+r1qej9R/D1Bxy+gYbtMQ4kSamEdOKeVzSOkINggXEp8jiovqujybQ1RhB/sqfohI7RVQlNfjWyJgLTs0tp6wDmmDekSxsRSwmyfWlKGkmOePUuueSdGlqfXN5SEvdhELNdk6KgpuLlCrrmL8XMKyjNyDqlJOpRKTj41u/YfkKxrvBqCHKDUpEREREREReb8GyjbKv4omA28C+iWqjDSLX29HcAnV8VESomnNOFFkVgTh9TjmqAKI4bWSu1eK7RDVRlQnGefKBTERERERERJ5XGe9+oihqu5goRP4xFKEyh1zByTPI+bYA+7OP4tr1G+o4qgjhSJmRBKydZaMIL1HNw2AcEREREREReQTf/bydHxLHpqC7KJIriUYtGIgjMsVgHBEREREREXkE3/2IiNiAAxERERERERERkccwGEdEREREREREROQhDMYRERERERERERF5CINxREREREREREREHsJgHBERERERERERkYcwGEdEREREREREROQhDMYRERERERERERF5CINxREREREREREREHsJgHBERERERERERkYf4+NZv+LvsrzSjhvTGgmUb5VD53B8ThUcffhB169SRY8rKyNyDjO175BARERERERF5gjvf/YiIqiuvyxn32MPxOHe+WA22mXfC9es30CO+Awb2TVSHiYiIiIiIiIiIPMXrgnF16tTGiZNndLnfzDphx55vcCD7qJqDjgE5IiIiIiIiIiLypBpZZ9yq9emGgJzIJUdEREREREREROQJNS4YF9q8CXokdMDFny7h2vXrar+rQkeuw5ad+43dyrEIlWk6ERi+UpNucRrgoTfMptm5DsNbatLe6KUb0FDXLZel9hum0a9zNh6SYwwSZ1tflsn692PRyAiZSkTkuqCEYZgzIFwO2dG6D+bMGIbEQDlszl66QThSZvRBjByqFhzeNyIi8hj12TzR2Dn6eUZERGRHjQrGiRxxdwYHqrnhRGerkQfbemHazv2Y13EnxnRuh576bnkzDNKXfG05Fot2LkO/09ON6Uo3ZndnzNME2/TOrhpinO7179HvQ900216ajn1xKabTK8t+ceD3mP3kXBTIUWV1wgQLgTdTcj9C0ky2sefTK4AQ85AhEVEFO7IB41OXIP2CHBYvQdoXH/N0b2Jv34mIyMP8kBgPLE+dpTyfRZeGrQFJSGktk6lauDM4AC9PGKEGU/s8/KAca/Tow/FqmphGTEtE5Ck1KhgniqZOeW2e/ECdZWjUwVkPvTEV7bOmo6d5MCx9Aqali54IDP/rIEAE2F7arCbpFSzshzGrgH5/LZtDziB9EdadCcEDXUXutM1YIaYfagysPTRULHsRtslhS/a9biGIZ8awH2bbiONzMcJ8HBERERFRjVGC9LkbkC2H1OHMfLSJ5A8l1cnQ/+sD3zp1cPTbfHSJvU+tpkhP9HeOvVdNE9OIactP5M7X5KYcG4cgmSLEDLCeVpYfEsfqpp2c4CfHOUPMz1z3RFVVjawzrlxajkVy3GmsW2ojWNWyOx5oehr//CpXjjBVsDAN+5p2RhcbgTLh3End/Or0+sCaWH/ICry10PKyjWQQz1rQz5H9ICJyK/2XQu0XVW1xUmPxUrV4a/8wIDJJnU6XE8Gs+KlJ8SFnvmwav9yaboPZeJMvyXLbW8dhsj5dzblmbV+cnd7evhMRUWUL8m+MoqJSOWRKBFnKBEzE55Ths0T7/Dd7tlv9PDP/LNF8Thim136WmLH5OWm2PQnKOsp87hnT7QeOqqZGtzdA/snTyMjcK4dvU/8K+n6RVqBMI6Ytl0BxnpLQJmeTIfPHzMwSmai7RgZH5svclptw2D8Wk2wc16CE3uhepFvWm9uNyyEi78BgnLNaNEOTMzux47gctsTuNAU4cyYETVvIQTOhI19Fv6a7sFvNZSdsxjRRdHXoWDXH3bnltoqnGhUsfBnrMMhYdFbLkf0gInK7Rug+OgKH5JfU5TlhGGyhOGbh9iUYvzYfkF9o047IBI0Y/xLMlMsZv7YU3ZMdeVEQLxcphi+3otN9UbYw/mi42ZdkZdvjgTQ1XfkSrQbL4lA4X7+cxmb74uz0Oo7sOxEReVq4Wmz1YI7loEh2Tj4C4uNMf5SJD8PhzCwUqp8xSQjKTFOf6+IzAf2NwTHbn2faz5INyA6MQ0p8qbH47FrrP9BbX6759qShMCoWxkKajnwmVg87936D1n8Mw4RRQ3D9+g0cyM6RKaLUVI46TqRFKdOIacsjJl45hsV7MXN1nhyjfKYfyVPOvxCOtpFAkXI96HJb5iE98yLgH45oGz8mWgv+ElH1x2BcFdFk4DJD4wnzRH1wnSeYFkMVRVdDBql10OmKwjoiF4uX70L7KRYac7DApCEHCw1NEBGV30VsnW8s9pOduRdFAX4ufbnP3i5ecKQjuTjs74dgOWhV6zh098/Hcu0XZWU52YHKl+Ey4zdiq/Ll2fglWdn2Nfp16r5EF2VuNNTzVpiTZ7Yvzk5PRERVkszxhLU26i09koWtxWFoq8/xJj9XDokfVMRnD/YizZC7KQ+HchohOlKXk87e55kuoKfVGIH6z6YjeZqitKasLlduW4Zhe0qQvkb5PJZD+nTbn4nVw2dfZKpVFQmz3luGiz/9rPYLol+ME8Q0YlrXyWDbUX3wzUzrCLRR/hQWG4O5hcUi0NYIQWWqqhPB0ImYFN8IAfEpupyL6nWlG285t6JIK5uL0oTMKanPwelwDksiqhAMxjnru+9xtmkz3CUHLbI7TSiaNj2NM9/JQYVJAw7mgThVLnbsPo2zpx3JE6eRPgGzszoh2bx1VAvbKOqz0zfgcFaOIyKqstSXI/2XyCT1S65DlC/C52WvQYAfAiyNJyKiGk0NWIz2Q0aqvZzKJTh49KKhTrkg8deQC0ohiiQaPrNEcUU5XrD5eXYRhYYomeJCFt6cn4fo0brpbVZlYG259j7zvOwz8eKPl9S/devWVv9q6cf9cL5Y/euyQN2Pa4UI1xxz8/Njdi6LStQAaJC/eX1wor5CkYNe/Iiny72YdsSR3IpmuSjlWJW4Fvo3xtb5ssirMuxoDksiqhgMxjnr+Fb884yF4JaWnWlCR6agvQeLiIoWWc8NfBXDm8sRgiP7QURUVYlfd+XLke5L6SYclkkucyRnHRER1RgiEDcpIKtsYMMKkdP6cGQEYmChSKsovmj4zNJ1alDElc8zEZCT06K/lYCcs8sVATjZq/Kiz0RtcVR9kEzf6YuvHvnWyQwP5uTxaxOlD4aJqjiUYU1x5HJxMLdi2VyUioA4TB4djoPzzXN2OpbDkogqBoNxTsvF4ldWAKJY6RvGFk5VibMxTa2fzTjNIrNglygKOm8gsO4Vx+p9cw/ZmEPHZpocbzb2g4ioOtD8ah+UEOdYzji1mE4sUjSVbIt5Y2TxIm0dbrqKk7OsF0kiIiIvJgJqpSbBD/tE8dMwtB0QgTY5ms8PC589Jpz5PGvdRxN8K0WhrQxd1pZbZnv81PrtDLzsM1FfHHXDF5nI2L5HHRad6BfjzIuvukTmctMGw9SqOGAsjlymSKoM4GmLrlrlUG5Fs5x3qkbo3j8W0FSToXImhyURVQgG41xxfC5GdB6CdSFTjXWsia5LprE+NznNPzsa64IT3byOOzGmcz8s9nDDCbrGHELQRA6rrO3Hh53xT48GC4mILBAvC9ZaFBUvCjAW+UlRXoAcyxmXh7TUTSiUdbCIblIUlC+3okiIvpEF/fg8k0qYPcrWvhMRUcVTix2GYbD8TDB2tuvWEg05tIkMw+Ec7edH2c8ew3Kc/TwrKkFQf/0ydMUWLRaftblcZXvm7wUM29MbUANHelXsM9ENRLBtx95vkJG5Ry22KjrRL8aVOxAnXChRg3Bli5zKYJuFIqmidV7LATQrXMqtKOrq1V17ZVr7dSSHJRFVGB/f+g1/l/2VZtSQ3liwbKMcKh/xYXHi5GkUnLJf61noXU1wZ3Agprw2T44hIiIiIiJykSgeGl+CmXMtFBesysR2R+ZivAcCbu5893NW3Tq1MWpYstq/YMkaXLt+Q+13h5gBoi7AfCyXxZptD4cjRdTjJ1pOt3LMRTHpFGzUFWfWtnArpzcUo1aHRXpvYI22KKp2nG59ogVdffHoFGyQgVzdsoMy2YI7kSd5XTDu/pgoPPZwPOooD1p7RP0An2pa2CEiIiIiInKNLqgRfVQGPKoNXaAGaz0TjKnMYNzEUUNwR7CurOi580WYvUDXmqq76AJucgDGQJyODKj5y0EbgTjBNBgnyACeHFLrITQEfe0F45RB0YjD6FgEiPnWACmiXzeh3W0hIvfzumAcERERERGRJxmCMNUiqGEWFFIc9lAgTqisd7+7mzfFc8OS1XrihD4Px+O9JWtw4uQZdZiIyJMYjCMiIiIiIiKPqKx3v0a3N8DLE0aoOeKEO4MD8OrsRe6pM46IyElswIGIiIiIiIi8mgi6rVqfjsYNG6id6GcgjogqC4NxRERERERE5PVEXeGi8T7Rsd5wIqpMDMYRERERERERERF5CINxREREREREREREHsJgHBERERERERERkYcwGEdEREREREREROQhDMYRERERERERERF5CINxREREREREREREHsJgHBERERERERERkYcwGEdEREREREREROQhPr71G/4u+yvNqCG9ZR8RERERERF5swXLNso+IqKaqcoE4/hAJiIiIiIi8m589yMiYjFVIiIiIiIiIiIij2EwjoiIiIiIiIiIyEMYjCMiIiIiIiIiIvIQBuOIiIiIiIiIiIg8hME4IiIiIiIiIiIiD2EwjoiIiIiIiLyIHxLHTsScGZpubByCZCrZ0LqPcryGITFQDhNRhWAwjoiIiIiIiLzO4bWzMD5VdGnYilhMGhAuUyqBCHJV5voddWSDcryWIP2CHK4u201UzTAYR0RERERERF6sBOmZ+UCAH3PHEVGV4ONbv+Hvsr/SjBrSGwuWbZRDRERERERE5I088+4niqmmIChzFtKOyFEih1d8CWbOzUKhOiIcKTOS0Ebt1+Wi000rxkfgUGou2hrSL2LrfE1uMbn87v5ysHivZrkirTeQmYfo/rEIQD42ZTZGUnwjNVUwrkur7HzLUzcgu8K2EwhKGIZJhu3Srk8sdwPOm6Rr1+3c/u/KCUN4URre3F6iTqEqcz6Iapabbqldd5rsrzT3tw3HgUN5coiIiIiIiIi8kWfe/XwR2j4a9U7twcEiMRyOlDGxuPD5GuxWh0XAKBmh+9OQumQbMjJLET2mD4KOZaPgih+iE2LRPaEWtqYuxUeZe5BREoJRQyNQlJmHQn0gqmgTxs/bpMy7B4du7YZJSb44tO8MLqvrVuZvfhbvvbkGnyjznDqZrSzDHz2wR51Ht03mys6nW1cFbWdgHEYn+2C9YV4guKhUnS86wQ8XlGUUWNxu5/c/18cffXuFyO2SyxjQFVcy9eeDqOZhMVUiIiIiIiLyOm366xtwiEPhfG0uuTh0x16kGXJq5eFQTiNER/rJYZHDTOQSk45kYWtxGNq2VvoDwxHtn4/lq40BxcLtG7EVynhNoweHM13L8WUyX4VvZ2ME6vuP5BmXY4sr+6/dLkEu41CZ3IFENYfXBePuj4nCa38ZbWw1x0LXI6GDnJqIiIiIiIi8kb4Bh+U5jdA93qwRAv9YTNK8Iw6OlONVpbhgKOoplOBCERDk76fWOxdQXILzMsWyiyh0KceXhfkqajsvZOHN+XmIHq1bboo+UGaPS/tfgoNHL6JNpO4cBIm/mVmOBf+IvJTXBeMeezge584XI2P7njKdcP36DfSI74CBfRPVYSIiIiIiIvJe2as34XBkkmnASdRzpra0auyMdZppcoyp/BAYABQWy3R/PwTr+ipeRW6nCMipy9wE9HciIOfC/hduz1LOQQRiEI7EeOBgjn4fiGomrwvG1alTGydOnlHLrpt3wo493+BA9lE1Bx0DckRERERERN4uD2lr89Gmfx/EiMEjuTjsH4uUBH1xT3OmOemCEnqrxUXTRbFKWeRy8ACz9KIsTcMJblKR29m6jyb4VorCYtlrj8v7L4rYhqHtgAi0yamAY0VUzXhdAw6iCKoIxp04dUaOMdKnfbYlE40a3qYG5ARL0xIREREREZF7VU4DDoqiPBQFJmFwgg8O7cvG7sxShA5LxhDlHVG8J/ZI8Dc0fBAtGkX42g+TxiSpaXHNz2L5m1+iQF3QVRTsK0VwcpJh3rh6BzFzcTYuq+li3eFAjmhkQR2ho2yHfp7gEs12GViarxQHK2o7ffyQODQZfdW0aNx9ahPe2l6qJBgbcFDrfCuz3S7uv6LQxx9D4sNw+GtrjVgQ1Rw+vvUb/i77K407m7cW5d3VYqkyJ5yWSDtx8jQKTp1VhzvH3oO6deqoWX0dF4HhK5ehX1M5KJxZgTFPzpUPPeChN/ZjQpwckPa93g7T0uWA0HIsFn04COfMxysszQ/swuzOE7BNDgm66cqON+qFaTun4s5VQzBiYa46xqFtcwexf38F3tIcFyKqaWRrW/pm7wWzJvWphgiMw+RkII3nnoiqtXCkzIjAoVRNhfleSXx+9wbWLKmQ3EvufPerGNXlPFfD67F1H8yJL+F3QSJFjWpNddX6dNwZHKjWGSc6EYhzlQhg9ewsuiFYh0GY90YvmaJzdtUQma7rygTchg7CuaxdaN/FdD498/nHrGqGCTv3Y1qZkrWdkDwyQvabCh2ZgvayX8vethERuZO+8uTxqWnYilhM0hRrICIiqlFEMKKqfQ5WxW0iL+SHxPgwFB2VOe6IargaFYwTdcVNeW2efCmcZWjUoXxysXj5LiCkBULlGPt6oWPcLux+KRP74uLxkBxrS8HCfhiz6jTaT5ltMv2+rF1o0rG7hXX3wqCBIv20HCYiqmwlSM/MV1vhCpJjqDxEzoVhSDSpuJmIiIioaiTFbXIAAFbCSURBVIkZIFpsTUH3ok2axieIarYaFYyrMhLj0T4rE9uwGbuzrOdsM1ewMA370AzNWsoRwo5Fas68QWY55tRccVlpWOFSLE4UxV2H4YljsWjnfmwRnZrzTxR7lcM7TYOCpmn7Ma2rHE1EZJMoYmFsrt9YkbAMNLWOw2R9uvqrvXZ6WQmzgZhHn6Z0Y+MMQT/xJXCyWeXHQQnDNNNY246awL3HWsfseEbK0QY1+XgTkdcQOcoMzzLTH0fUzxhDmu4Zqo7rHwZEJqnjLT/73P1MlssLtDy/7W2ytU5vloe0alH0s7psp2jNVpaSWF3RdQUSVR8MxpVbL0yb0gn7lpvWjdZk4DJDYMo8cPVQF2X6HZvV/m07rOVss6QAZ86EoGkLOajS5cxrP3isZhkR6NIRWLdUtw5ztrbNKAT9BgNvqUVZp2Nf3FRl2hSceVpTbNZQNFcE73R10+mLvu4OGYQmMpWISEf5Uq984T+cqa8nRLwgJCEoM03mWBbN6mtfZkQLYVC+aOrSDqsvCnEonK/7Qjczs7GmJS+xLN0vrvrczzOPhmOSfCHJzslHQHyc5kXCD9FRjeS22NsONxB1ppm8yOhenLQvPbpfjWVn2C/xItQHiZqXOvOgop7uxU+z3eo6Ncu0Ma87j3XZ8zoLhwJiEaCmCR443kREHhDjX4KZ8jk3fm0puifL56Dy/E2JL8VyQ5qu7ubC7UuU/nwgR/f8TBMtXlrkzmeyoCxvtKhbTJe+PMfYEqb1bbI+DxERlR+DcS5qP0UfzNIFqMzrXTOtl03TwELLsUgWRVT106dnYl/Tzuiize3mrHSz3HGJI9APO7HjuBw2Y3XbTJzGulf0AcbNWLHqtDLfy1gsl1nw1U6c1RfNbdkdDzTdhTWykQhh29IV0DWTQUQ1XZv++mCQ7kXC8EW/dZza/H6aobiCaPK+EaIj9QGji9i6Rh+4y1MelxdRlLnRUJl0YU4eivRFXgPDEe2fj+WaX1wLt2/EVijjRZBHNsPfVh/8EtPrm/63ux1ucCEPB4sbI9AQKNOsXyECcYNhfJEy/eU4DN0DsmTaJhTG9y4TuBKBuElRecpLob6y7XCkjA7HQfnipn/Rsl40xI3HWqZnaNaVnblXNMam44njTUTkAdnbNZXQH8nFYX8/BMtBQPPMP5LnZO4lNz6TVcry5htzUKnPZLtVRrgyDxEROYrBOBfpG3CYnRWCfkP1OcTsC+3aGU3QSW2MQRfMm4r2IheaI8tQg16nceY7OWyQix27T8vGICIwfHDZnHoVqkUzNDnzPU7JQSIiLX0DDstzxC/9Zr+q+8dikibn1uAyxRkdpLwgBBSX4LwcLKsEB49eRJtI3fpj4mMBbQXCTmyHpaJHetbTxPphCDgFie0wrD8cbSOVl55Ma0U3tC9ZpSgsboQgQzYzkXNhoi4Q56mWyewda7vnQuGu805EVJlMciAnoY0cjQtZeHN+HqKV57NIq9Ci+I48c4mIqMphMK6ctr2kK8JZtpVTS0Tx0RBNS6yye30X4EBDDqIF1iZZaYbcaVpqfXJxKRg+UuSKW4EVnm4htWkz3CV7VSJAJ3uJiITs1bqiNiYvJcV7jUV8ZOdyxb4mORLKUnMSREYgRg1+mebccmY71CI9hulM62qxnZaFwqhwBEEUkS01XT9KcUHmeLDvIgoN2cxEEC/fwr7rcpuJQJ36ktgfJrkmys3OsS6TLl4WZa/KneediKgyiPriRvshw/AcUz7jZJJKBOTkePSv4ICcvWcyERFVOQzGldtmTHt9V5lWTi2SxTkNRVT1RDHTM53Q0UZA76E39mNC3C7MfslyPXC6oqRAv4Eu5oprKRprWIfhrhSXFUVtoW2IQpc7j4jIVB7S1uajTX+ZY0wt0hOLFKv1mDlBFkPV1mcTlNAb3YuyDMV6xItRRk4Y2g6IQJucXGOgzJ3bYVMeDhWFI7q10hVp1q8GzsLQw5H1iyKe/maBu5wNGL8WGKzNiRcYhx4B2oCXGyt4tnesxfGEdn/8kBgfJvsVHjveREQVTJMjLSghzpgzrnUfTfBN5GiWvRXBkc8/IiKqchiMc4f0CZid1QkTVhobUTBtJGE/Fo2MkDnbRCuq5rTFTHXM508+Lep5s1a/m45ajxssBPvMWNq28tmMaU+vAAzLfRVYzjrjiMiCIxt0lUCrFUuLVsBEHWgpsoiP6EyLfTquBOlz9ZVc65alFt00yw0mGnJoE9nYrEioO7fDtuycUnTvH6vm0tMSuQZN1m9SSbZyvPTjRQ43S4E15bjqAnIy94UIPBaZFgU1b+nPdfaOtXI85+8FDPvTG9DWGefB401EVGFEEAzG52yK8mwz5IwrKkGQob5UXeMKhvpSxQ8S8vnpntxyjn3+2eT2bSIiInt8fOs3/F32V5pRQ3pjwbKNcqh8xIfIiZOnUXDKfigo9K4muDM4EFNemyfHEBERVSWiNVXRmp2TOdtE8an4EpN65EQjET2K0lgclIiIKpU73/2IiKorrwvG3R8ThccejkedOrXlGOuuX7+BT7/IxIHso3IMERFRVeJiME6dT1OZuJCzyayVViIiIs9jMI6IyAuDcURERERERFQ18d2PiIh1xhEREREREREREXkMg3FEREREREREREQewmAcERERERERERGRhzAYR0RERERERERE5CEMxhEREREREREREXkIg3FEREREREREREQewmAcERERERERERGRh1SJYFxJ6c8IDmgkh4iIiIiIiMjbiHc+8e5HRFTT+fjWb/i77K800ZGh8G90G77c9W85hoiIiIiIiLxJt073oPjiJRzMKZBjKsa44X1lHxFR1fLu4vXq3yoRjBP6P9IFeSfP4tCxE3IMEREREREReYO2re5GePMmWPv5DjmGiKjmqjLBuNtvq4fune7Fj5d+wdG8UzhfdFGmEBERERERUXUkiqZGhd+FhrfVx9Zd3+CnS5dlChFRzVVlgnF6oshqy7vuhF/jBnIMERERERERVUeijrjjp85VeNFUIqLqpMoF44iIiIiIiIiIiLxVlWhNlYiIiIiIiIiIqCZgMI6IiIiIiIiIiMhDGIwjIiIiIiIiIiLyEAbjiIiIiIiIiIiIPITBOCIiIiIiIiIiIg9hMI6IiIiIiIiIiMhDGIwjIiIiIiIiIiLyEAbjiIiIiIiIiIiIPITBOCIiIiIiIiIiIg9hMI6IiIiIiIiIiMhDGIwjIiIiIiIiIiLyEAbjiIiIiIiIiIiIPITBOCIiIiIiIiIiIg9hMI6IiIiIiIiIiMhDGIwjIiIiIiIiIiLyEB/f+g1/l/1VQnRkKFredSf8GjeQY4iIiIiIiKg6Kin9GcdPncPBnAI5hoiIqkww7vbb6qF7p3vx46VfsC87F5cuX5UpREREREREVB3dVs8X7WMi0PC2+ti66xv8dOmyTCEiqrmqTDCu/yNdcDjvO+QWnJFjiIiIiIiIyBtEhDZFm/AWWPv5DjmGiKjmqhJ1xomiqSJHHANxRERERERE3ke864l3PvHuR0RU01WJYJyoI04UTSUiIiIiIiLvJN75xLtf9dERkz7Zjy07P8RAOYaIyB2qRDBONNbAOuKIiIiIiIi8l3jn81RDfQMXiCCattuLzzZ8jJf/LwJ15TRERJWlSgTjiIiIiIiIiNzrBory/o3DB5Xu2A/4b4NmiHv2fUx/8g6ZTkRUORiMIyIiIiIiIi90CTlLn8WLY5Xu2ccxfv13yjhfRMUl6pKJiCoJg3FERERERETk9U7/fFn2GdVt+TgmLU7HZ1+LoqxZWL9mIQbf4ytTLWvQbiRmrtmBjaL469e7sGrxdCTeJRMVkU9Mx9/06Wrx2BWYlNRcpgIhSVM06WKdr+JBmQY0xL0jFmJpRpZavPbzL9PxXuqjCJGp8L0Pg9/+GKu+3GtInzW8lUwkouqCwTgiIiIiIiLycr54KFwX0rpUelb9i7uG4dW5L6JL8EUc+GQJVn28G8UN7sX/vf4OngjWTWKubufpmDtzKCJuOYavPlLm+fxb4O5EjHl7KtrLadp0jsNthTuwWaRvOoJrDVoifsIrGCqW2fZFpE54FC3rnMTuj8U6v8LZOgHQrc4XHVLTMH1wG9yS+zlWKfNvzVU2s9uLmDGlo5re+9VZ+L/2/rh+cJMu/eB11L+jkTo3EVUfDMYRERERERGRF7oNkUPfx1tzlW7JOozteDt+/WEz3n1jq5r64PABaOV7Fltf+j+8Nu99LJv3Iv66MR/wjcaDj1mqV+4ODBjSDQG/HkDaoJF4d7Eyz9vPYPGeS6gV2Bk9ZOnXz15MwvBxU/GBJh21miMsVkmMuht3KG/hV/M34e/qOqdi7MDn8ZmYMXgoBnYNxq/fzMeIca9jmTL/u2PmY98vNyEgrg8eQmuENRW59gpxYNE7uvQXHsXzs/8t5iaiaoTBOCIiIiIiIvJCtREQfg/aRCtdqB9+zX4XTw+Yjj1XRVp73Btxu/K3CRLnieKium7pgDCRiAaNW6h/TT2EVqE3KYu9HyPSjfNM6HibknYbGgTqpvpDVDImzVqKRZ9uw9qMLJleG7XrK38+3Yi9P/4P9dq9iOUZn+FvqUNx7x+u4pqYMaEtWihv6LXv/TPWy2Vv2TkVsWK++g3hj33I2JanTNsCSR9kYNWKd/CnbhHAVXWHiKga8fGt3/B32V9pRg3pjQXLNsohIiIiIiIi8kaeevcbuGA/hkQVI3PyI5h5rA1SXp+L5KjaKPpyCp6dkYlr6IhJn8xBvP+3+PTZmdgp59P7tfQkTly4R05zGMs6P41VGIbZO59Fq4s7MH9KGk7IafUu/5CDs62m4qPXe8Hv52PYse2fOHXiIK50/CtGd2yMY4vbYcJHyoS+wYh9fCT6945Hy8DaqHVVWf6zyvK7fIgtw9vgx91vYvqKPN1CDS7j/LHv8bPS1yAqCQOeGoKu9zRD/Vv+p9knIqoumDOOiIiIiIiIvNdPh5E28RVkXgACuv0V058URVB3I/f7G8rfFmj1wFXkHssx6U5csJTb7J84eUb506gVovxOlpnn7E9A+67tEaC8ZeeuT8HMee9j7ReHcdvtIgeedHtDNLh6HnuXT8Wfn+iBv2w5C/i2QULfVsD+fIja7BqG34NGp0yXnasG4nzR4HZf/Hx0E/7+whPo//g8HLlxEwI6P45uuqUTUTVx0y21606T/ZXm/rbhOHDIPPJPRERERERE3sRT736tHxmBtgFXcWrbP5AlAmi/nkLWuTvRPSESzSNb4bfdG/HJmabKcCs0a5uIhMgmuD0kEu17DcezT0WjaOMunEMI4pJ7oPmtF3Bo6UYcRTFO170fPe67G2GdeuG+ZgEIDIvGg33/jOeS6uHTjEOod19fJEY0wO1BrVC/QXN0TJmC7mF/QO1bbkZx9iJsjZiLlZO7Ivj2uxB+Tzwe6novAupex/HP30bm7pOoc09vxLSIQIfEWDQNCMbdrbsjacwk9Ky3Cl8daY9xafPQ74+69bZ/uAfa3d0QN53djX98uhelul0nomqAOeOIiIiIiIjI++2ZjgVbz+M33zZIfukZhCjDY2esQe6Fm+Hf/lEMfGoYenW8CzhbgO/lLOYKVz6PSe9n4uzl+mjZbaAyz1OIv+9WlOZ9p6bnvf8mPsm5iN+C4vDY4Cdx73/+gSVZl9Q01bnT+NH3XnRX1jXwqSSE4Sz+lTYRr28QiT/g4xefxeId3+NK/T8i/gllmsE9EXNrMfJPivSLOPXDf9DsQbHeYXisQxB+PvYZ5k2dDWZtIapeWGccEREREREReQTf/YiImDOOiIiIiIiIiIjIYxiMo0qVlNhJ7YiIiIiIapI7gvwxeVwKZv51LJJ68PswEVFN4jXFVJ//00D1A83cvw4ew7Yd+9X+XsqHXFTE3Wq/1rXrN/DXt/4uh8iT/vRUX/Xv3z9ar/4lIiIiIvJ24r1FfA/2UfpPnDqLSOUdZde+bGxK36WboAL9+dn/A5Q3wL/9/R/qsHg/CrbwHqV1vrAYR3NPyKHyYTFVIiIvCsaJX5TEB9l3SqdXp25t3N+2lfisUYkPu5y8E7j4o7ECzRZ3NcHdSjfplblyDFU0ccy7d2mn/tUS527rjv0m55CIiIiIyJvoA3F169TGO39fhR8Ki/FU8iNqQM4T7yRqME7xt/d1wTgxbClTg5bYRv305cVgHBGRlwXjvvz6n/hS5oLTEx8sItecoP+w0+rWpR26PfiAAx98ERi+chn6NZWDelnT0fOlzXLA8jT7Xm+HaelyQBE6ch3mDQzB2VVDMGJhrhwrWFnHmRUY8+RcFMhBk+nKpOk89MZ+TIhTegzpjm1bRTHPufjjz5fwr+xjuC+mlTqs72/Y4DZ1WPjhfDHe+WCVHHKO/hhraY+34fgYnMa6p/th8XHdkJj/Rbxsdn5sM19n2fNrymQbTK4jc70wbWc8dneegG2Js7FlSjOTbSUiIiKi6kEbiBNEKZ7d+w6p467fuIE33klTx3szBuOIiGpAnXEi+CZyzIm/5oE4l4jgVud26Cm6p1fgbNxUbHmjl0yUtNMonWmwKwJdOoZgX9YuNBk4Ag/JsSZM5h+CdRiEeTv3Y1qiTNdq2hldWsp+g17oaBJo0rC5bRVHGyRdu2Gb+kVDjBO5FEUn+sU4kab3pbLPzhOBq/2YF5Jm2Ee1U84VQkLlNDoiWGZIf/179PtwHYaXOZaOuws7Tc7bPzsus3zOFCJwNwHTDeufjalYNDJCptqQPkGZnoE4IiIioupGH4gTpXVEJoFvDh3DfdGt1B+txbiPVn+uTkdERN6vxjTgIOqFc7vjc7EmS/kb0gKmYR4bWnbHA01P48zSTOxDJ3S0EqwxysXiJ4dg3Rmg/eCxpus5cxpnEYIHupoFcRLj0R5KmjJPVaE9/hd/MhYTNqdNc+WcPfTGVLS3lMtMOVcjrOY8U6QvUo6xhWPphG0LtTkUc7Fj92nc2dzS8nph0MDvMVuzPduWrgCsBWeJiIiIqFrTBuLe/2i9mklg1z8PqWnXle+8+nFERFQzsDXVcolAM9OSkHaFdu2MJmd2YsfxzdidBbTvYparziJdYKdsLrid+KeyDNMcdhEYPrgTkKWkyTFVgSgOLIqmik7UF2eNo9NZ1HIskuNOY91SG0E3O86ddLxYqm26gNsaS8VUW7bAnWe+xyk5qDq+Ff880wzN7ObMEzn/Zpue75X7sWWnvtOn6XII6scbc+iJ6UUOQG26dnm6XHtllydYWyYRERERWWMpEKcfVxmBOFFH3J//pKs3ThANOIhqe2x1lhrBIyIi1zEYVx6JI9Q62PYtN6uzramuWKmlYMYgUVfc7q3q9Nt27ALi4k0CIdYUnPxe+T8ETVvohvV2LF2Bs9ocdjLn3bqlW+UIM1a3reI0uv02tZEMUS+c6ETDDWKcOUens6pFMxnolMNOCB35qnIud2F3eYrtthyLRYZjK+t4k0kmxHae/q5MPX/Ok/UAnjYWdx2zSlwnYvxU3GkohjsdmKItghuCfh+K7ZNFZLM6YYK+qLWyDy+KXHsyrefrmbrxdpdJREREROZsBeK04zxOrFzq9mB7dLfTiWmIiMh9GIxzljaYNQVq0KJMvWsm9bJpAjKy+Og/v5K5pdIdLapqg5qjypjDzpjzTh0sy9q2VaBuD7ZTf/Xbte+Q2ol+Mc6co9M5wySX10rTYr5NBi4zpM1TA1DlPB6iKKzh2Gaio7LcCs09pgaDd5kUdy1YOBfbxHiswFuGXHkiF6a2CK5orMK4r6KI7FmTotaaHHrpm3XT2V0mEREREWlV1UCcaBVV2zKq6H9h2rs2O3e1pEpERDoMxjnLEMyargbSDDmKHPBQl07K/yJXkgwO7ZwK8RuTI0VVQ5s3U/4/jTPf6YaNZBHWuBS16KE2511VcW/bVhBN9nZ6IFothir6Ra43c45OZ9V33+Ns02a4Sw4KBQv76YJjorENOU7PpAEHhwNxpkU1zQN8Rpsx7fVdZev5E8R2OlPPoC3mxV31THJAmrcca4MIKD69Ew/Ia9QkmOjqMomIiIhqoKcGPFL1csQREVGVwGCcy3TBFsQ52AomdC2cmgaAlE5dhr2iqroWWJGVZrEVzYKFadgnGnL4awraY5flesoqkfiy8d2ps+jWpT06PRCj9q/5rGzoy9HprFJzCXZCskPnw1XKedeevyfNiig74vh3OGcWNFSLF8O1IrYWmbWaK7oRjl4Xhhx+oiiqJiBXnmUSERER1SDiB+WGDW7Dmg3bGIgjIqIyvCoYJ+obE/UZaDttzirRb54u5nFZ+gTMVhtQeNV+3VlqEVULDQTYLaoqcmItK1Mc0ZSuMYgmTUXALtMjRU+dIYJqH635HJNemat2ol+MM+fodNblYvErolXSZdjiRI5Ft2g5FtNMgoDKeZvSyZhLUa1PTl/HmjhfprkqHxo6CHA2R6O4dpoOwoua9YaOHIuHLIx3WOJsTW64ApzRt8hbnmUSERER1TCREc3Vv+cLixEZ3qJKBeLYgAMRUeXzmmCc+FBTg21d2pt0zyoffCLgJjrRb54u5inPB6Ja35Za9FTTGIJZcT6Rc05XRNVSAwEWWlU1mV9fab7tYpS67QD27bDTkqiFbfMqaq6uIVgXMtWwj2r3YWf88xXncrFp65RTO6tFUhXHv9MFAQ3TTwVet55zbNtLptuYfHqIC7nMRC696TinrfuuI3DKwniHG+v47nvcOUU/j65xCF2diOVYJhEREVENc3ezJrh2/QYmj0vBUwN64foNz7eaapOIDEoig4KlRhu0nZiGiIjcx8e3fkNRNVelGjWkNxYs2yiH3KtT+xgkJYpAGLApfRd27ctW+6nyPP+ngWpWfUt+OF+Mdz5YJYeIiIiIiKqfl55PwbVrN3Di+7PIyT3pZGkP71aR735ERNWF1wfjhEiZrTon94T6lyqXOB93BDaWQ6Z+uFDK80RERERE5KUYjCMiqiHBOCIiIiIiIqp8fPcjImJrqkRERERERERERB7DYBwREREREREREZGHMBhHRERERERERETkIQzGEREREREREREReQiDcURERERERERERB7CYBwREREREREREZGHMBhHRERERERERETkIQzGEREREREREREReQiDcURERERERORVuvXshY+/+Apbdu4v081fvBwtwlrKKYmIPM/Ht37D32V/pRk1pDcWLNsoh4iIiIiIiMgbeerdb90X23Gi4DiOZH8jxxg9+sRA/K78e3HcSHyXf1yOtS505DrMGxgih7R2YXbnCdim9kdg+Mpl6NdUHQDOrMCYJ+eiQA4SEWkxZxwRERERERF5lVvr1VMDcSuWLirTTRr3LHyUf2+9u9ChHHIFC/uhZ+d2mm469injz65aZBaIE8E5md50EOatHItQNd2C1n0wZ0C4HCCimobBOCIiIiIiIqoxRG44ZwNyWqEjU9Aeu7BmYa5+DJqKHHFZmTI4txkrVp0GmjbDXeowEZEpBuOIiIiIiIjIq723eIVaV5ye6wG5Xhg0MESTK07YjN1Zyp+4eDykDuumMQbnTAUlDMOc/mFAZBLmzJiIlNYyQeSWU4Z13TAkBsrxqnCkGNKUeRLiMHlsHIJkqrpMQ3ofxMjxRFQ1MRhHREREREREXk8E3rRcCcjpcsWdxj+/0ueK09n2UjvMzuqECWojEVPRPms6er60WaaaKty+BOPX5gM5mzA+dRbSjujGx/iXYKYyLMaNX1uK7sn6YJsfEscmISgzTZeWmobCqFgEqGmKwDikxJdiuWFe020joqqnWjXg8JeGV2UfedprP/rKPiIiIiIiItd4qgEH0WrqSllHnD0iCDfz3ffVRh1GDxuMC4U/yBRzsm44mDfOUHb8Q2/sx4Q4bQMPZkQuuMhcjF+dJ0eYEznhInAodQOyA+MwebQfMkS/TBUBuMnJQNrcLBSq6eE4OH8J0i/IdCKq0qpMMM4RDTetln3kaT8mDZB9RERERERErvNEME4USw0IDna4xVR9QO7wwW8wfcoLcqyZlmOx6MNBwKohGGGoL06ROBtbpnTCvtfbYVq6HCenPacdp2UpGKcG1TQ53pCP5SIAJ6aNL8FMEXiTKSbBOP2wnPfwWmNuOyKqmqpVzjgiIiIiIiKqvjz17ndrvfqY+e5ChwNyIhgniqoeOfhvq8G40JHrMG8gsO7pflisXZw7gnFiuD90wTd1hCZnnKVgnKVxKjFfEsCAHFGVxjrjiIiIiIiIyKtcufwLJo0biaLz5+3WB6cPxIm64/4+929yrLkIdOkYApzZiR3mcb30TOxT/rQfPBahujF4aOggNMEu7LYUiLOmuATnZW9QQhzayH4cycVh/1ikJPjJEX5IjA+T/YrWfYyNQKAUhcWyl4iqLAbjiIiIiIiIyOs4EpDTBuJEYw7W64sLRdOmyp/T32nqitPbjGmdp2Nf00GYpzbgYKe+OEEE2LStqR7JwlbEYpK+tVTk4bBuSkUe0ubvBeJTZGupvYHMvSiSqSgqQVB/fUuqKehetIm54oiqOBZTJSIiIiIiIo+ojHc/a0VWzQNxjtQtV2WYF3MlomqFOeOIiIiIiIjIa1nKIVetA3GiXrj+YTicw0AcUXXFnHFERERERETkEZX57qfNISdUn0CcHxLHpqC7vxxUsMVUouqNwTgiIiIiIiLyiMp+9xMBuQlTpqr9orEG63XEERFVHBZTJSIiIiIiohpBFFmdPuUFtWMgjogqC4NxREREREREREREHsJgHBERERERERERkYcwGEdEREREREREROQhDMYRERERERERERF5CINxREREREREREREHsJgHBERERERERERkYcwGEdEREREREREROQhDMYRERERERERERF5CINxREREREREREREHsJgHBERERERERERkYcwGEdEREREREREROQhDMYRERERERERERF5CINxREREREREREREHsJgHBERERERERERkYcwGEdEREREREREROQhDMYRERERERERERF5iI9v/Ya/y/5KM2pIbyxYtlEOERERERERkTfyxLvfuOF9ZR8RUdXy7uL16l8G44iIiIiIiMgj+O5HRMRiqkRERERERERERB7DYBwREREREREREZGHMBhHRERERERERETkIQzGEREREREREREReQiDcURERERERERERB7CYBwREREREREREZGHMBhHRERERERERETkIQzGEREREREREREReQiDcURERERERERERB7CYBwREREREREREZGHMBhHRERERERERETkIT6+9Rv+LvsrzaghvbFg2UY5VPl869bFH+rUwc031VKOkI8cS1RN/f47/vu/3/Cf69dx9do1OZKIiIiIyPOq2rsfEVFlYM44jZtuugm3N2wI33q34uabb2IgjryDch2L61lc1+L6Ftc5EREREREREVUOBuM06t92my4IR+SlxPUtrnMiIiIiIiIiqhwMxkmiaCoDcVQTqLnklOudiIiIiIiIiDyPwThJ1BFHVFPweiciIiIiIiKqHAzGSWpjDUQ1hDdd7wMX7MeWnfruQwyU48nM7c3Q5HbZXxVUte0ht+J9WQl8g9Ek0FcO1BCefI64e10Vuu0dMekTzT34yXS0lymmfBEQEgzmlSciIvI8tqYq+fn7yT6imqGkuET2eViH6VjxZiIay0FXlH45HoNm7Fb7xUv/kCi1V3EYyzo/jVVyiARfdJiyEpMT78Qt+BWl++ZjygurcFqmel5V2x5PaIhWDyejV0In/DEiGA3r1UNtfTz8txu4erkUhbmHsX/7Onz2xWH8LJOE9qmfY1o3fzkk/ZaLtQOHYOl5OewQX/T9WwZG3FtbDktH30fPUUvkgPvwvvSskKc+wJyh0bi11v9w5cRnmPPcW9hzVSZ6JU8+R9y9Lk9suwjGzUG8/tFRnI5pj0/FPjmoumsY3l4wAlH1bsJvlwuw5c2nMX+nV180VIWwNdWaq169W1Gnri/+ULu2oYqo//73f/jPjRu4fu0qLl++oo4jqgmYHawm6zcLyz/5wtDNHddOJniRuqF45OWPsPhjZR8//hTvzXoO91baT8B1cdej0/HOqk3K8d6ExUvmI6U9f4+mCvbHMRiqvvQJt6Bx+wF44n51oHJUte2pUL4IVe759zZvxuzJwxDfLgxBt2kCcUKt2vC97Q60aJeIAZPfwJ86yPG21ArDPb3vkAMO8u2DdlFmgTjyEsl4dpAIxIn+m3Dr3Y/iscfUBO/lyeeIu9dVRZ6BvccOVQNxQq16oej5RD+1n4ioIogg3B1NmqCRnx98b/U1qatdrc9aGSfSxDRiWqKagME48mp3/99E9I/xxx/Ela689N7W/BEMH91Fl+hpYU/h2SfvQ+M/iA+fm/CHBi3QdeR4xOpSHVLHvw06PzYW4974APNWvok+cjyR437Fjcuyt0qoatvjJr4R6DdnPd4dn4gWt+leu93nJoTGp8CQ8cwBQYN7ojVjcTXEf/HrNdlbxTQI6Yo+L7yF99bswMyn5Ei38ORzxPq6XNu/qvEM/PXXG7KPiMi9GjVqpAbaHGksUUwjphXzEHk7BuOIqo0BmPT+mxgxKBH3tWyC2+vcLMdXMwcX4q/PDsWfLXSfHpfTqEqxd7bl6f76wb/lNGTXt/Ow9LPj+OVXpf/Xn/HdZ+9h8be6pEpR1banQjTHwFnvY/h9jUw/ZH+7geKCTKR/tATv/1Vcyy/h/Y9WITP7e93xsOc//1Fe26U74vCwI7noVNFIjo+Q2/I//Pab2kNeYw3eX7QHxTf+p7vG9i3A++tlUlXy1IdYveINPJsUjxbBdWH/lcwGTz5HHF2Xo/tXRZ6BG+cuwL8u3MBvyjPhxoU9WDZ3jUwhInIfEVSrd1t9OeQ4MQ8DcuTtvDoY16HTg5i/eLlaea342ybmXplCNcWJf8zC2uxi/Ee8fCovKZdOfo7F83foEj0t/yO8v/JfKP2P8sKkfPn9z8/f4auFc7BXl1pzXD2PE8dykGuh++U/chrVb7hebHm6ExdYr43jrmLPnEHo37UdenbthufmZKJyM81Ute1xN190SH0Hg6K0Fen/itLspXj50U4YMuxFvLv4fWzIFNfyV9iw+G+YOe4J9E8agvlf5uOSnMOiP/yCyxdlP/xxb8/ust+OrgPRQV+q9ZfvceYn2U9e4/Ta5zGkWyx6PqhcY15fB6PgyeeIu9dVRZ6Bp1Yh9YlOeKRzLB594nmsPyXHExG5iShu6kogTk/MyyKr5M28NhjXrWcvpL42E/Xq34aVSxepf996dyEDcjXNtQJ8/upTGP7Ewxj8xGN4buJ7+KbS3vyv4dRnU/H8wCQMfjwJw4eNRto+7wpDENV0dRNfwbhuwZoP16soWD0OI8YtxDe2gmBXc/H5jOfx/h45bNE5nPrOWJTstgf6oK8DjWc++GAMbpP9N/JKcIU/NBMREVW6oCc/wPqde/GPv+p/XBuG2TZbQK5ebru9oexznTuWQVRVeWUwTgTcxr80FdvSNyOlfx+sWLoIzw0bhAuF5/Hk0BFyKiIiIne6AwP6dTQEvoRLu2dh0oJ/uS3ny5HP9xhzz9Vug3a97ETjfAci8YHb5cBPOPA5i3gTEVFN4ovQbuMxY8UWrP9qv1piasvOLKz/dBGG/FFOUmlE1RG/qa2IehuRo81mHXEdX8Tfl32sdtMHtJAjyxLLYO448lY+vvUb/i77K427m7e+tV59dO/ZC59+vEqO0Rk0dIQajOvZuWyroX7+frLPQXVD0WHgADxyXxv4N6yLumql/Ir/Xsfl0vPI/dc6bFiViVP6N7D7XsDcl+KhxvbzlmHwjG/x+Evj8fAfReMC/8X1Cwex/vWp2HI2BA+Om4TkDi1Q72ZRlPF7/GvVTCz80qzQyW1N0K5jX8Q+EI5mIf6oX7cejFWIKcv7pRRFJ45h36YPsPHgz3K8GdGa6sBWcgD4cec0jH13vxzSuVOZZpoyTR05LHJ35a/6M6avs1wI5rboZDyZnIg2IY1RT27Qb/+5gtIfDuHfG1Zj3c4CXFfHVhDtcbYif9XDyvbLAUtMjssxrHt8IjYo57vrU6PwSFxzNPatrUax/3v9Ar7ftQ5pH31uPM8m2mHkomnoYCsXirgWpqyWA2Yc2BfLSrHnjcFY+C85aEVJcYnsqzoGLtiPIYZa6YuROfkRzLSZU8h8nsNY1vlprFKO2r2D/4xBvbrg7uC6aqt1v924rNwT27Buzjv4/LidLz2+EYh/eij6xd2LYL/bUFetf/9XXLtUjPPZGVgx/yPsdbWo7FMfYsvwNnJAucIWt8OEj8QXxWfx1FPdEBncWF3fbzcu4oeDG/D+a9ocVaJ1zufx3MCH0DxQ1yqn/f3qiEmfzEG8vxwsTse0x6dinxw08A1G7OMj8ViP+3F34O3wrS2fab9ewy+XinDq3+vx0YxVyNGNNbq9DboNeRKPmhwr3XZduXgeh3cswocLvkahbrTC/vZUyDlVtvPRESPxSIdWCGxsaf57HDtOtvzxRSz6++NoIgdx4wAW9XkO68vxHbt96ueY1k2/UeJYpKGpZjt/O/4Rhj/9nub4mgr60zIsflLWF/dzJt5KykPSzmdhePIffR89Ry2RA6YaRCVhQHJf3BfVFI1vMz23P104jJ0fvY9lX+ZaDDRaPodaojjvKvxFk4vwtwvpeO2pqdhjfrxuj0XymCF46J5w5fNWtkb72w1c/bEQJ/Z8grRFq3HMxaK3lrdTd589068TQuX9KO6Di+ePYf+6d/HBZ5b32fK9rVy3I17H6H5tEKQs6DflmljcTbkm5DR6DdolIyWpN6JjmijHWnd9ipe0G1d+QvHxA9j28UJs3H3ealDX/vHWcMvxbIhWDw9F336d0eZO8R3EcHHolvPvDVgxewUOXxW5PDTXm1WOPe+NPPkcsbUuV/bPwWey/hj3jsUfmwSgvvl1cfRL/GPR+8h09blv8XqVAx2mY8WbiWgsBx1i7Vni6vVWjvuJqj53v/tZ1xx95yyUdbgq3+POn0L+hV+APzRGk2Y++PeMfpjt8HPHMeFPzsHEfvfix8+6YJL+nnKYfKa48h3EgvJtS/n4+furLaRadNdgTJ9+B7YMeQt78SCeW/YYzk8dZ7W4/NUrV5X3lmI5ROQ99N+BvUJg0B14tN8AdEt8BHt2la0X7KGevXD4YHlzBdTFXY9Ox9y0uRj5SAeEKC/EhkCccHMd1AtsjvseeQHjnykb9FM1CsMzqVPxaKRs5RM3o07gfRgwbjgeHPcKhnYWgTgxXtfiZodnJqJ/oBg2ihn6BsYMT8R9kc3hX18biBOU5dUPREh0PJ5IXY7ZYzpogmmOq9P+BbyQrA3E/Q+lO2djpqVAXN1QPDL1H5iX+hQ6tAw0BOKEWn+4Ff53dUCPcX/Du3Oew711ZUI1cXPUcLzy978hpVsE/GUgTh1fJxB3K18C/zp7HGLkOKoCfO/D0x+sw/QRiYiQL1tCrdr1ENTqUYxeuBITOlvPTdSg6xQsXLcUk/qJSriNAQgoS6p72x1o0WUopq5Zj9f7N5fjy8sXHaasxJzUAbgvRL74K2rVboQm7Ydi+j8+wMC7xJjmGDhvE94d/6iyX/KFRmHYrw9WYZKN/bKlbucXlX1ej6nKMWutbIMhECfcUhf1GzdD625dYXwt0gnp/w5WfPIhxpc5Vrrtqh8chriuCWgmx7lMnNMPP8WrLp5TsX9/X/0h/pR0L5rIQJxgPHbifDr5g4wFQfFtjIE4xeUDW8oViLNsN77451nZr+xDy3j0s/rL/h3o1V7fcANwfucqfC37beuB51d9hX8sSMWjXSKVY1b23DYK6YBHU5diyZyBCJHjnVG370xM1BbnvXoYK14wD8T5IvT/xDX2rvL8FefOeN0rGwFfcV0mjcfs1Wsw2sVrvyzx4iZawX1UvRcM+63cB41C7kXi+KVYPm+Yg/vsi24zVmH64HvVwIFQq3ZtmDRqe3ss/vSBcqxnTUBilzAEGQIuwk2ofavywhiTiJTX12P50hfRoVy76Z7jWfeeZzBz/WbMnjwAcaF3GANxgn453QYiMVqOqyrK+RzxqIdexuIvvtAd41bN0MjSddF+ACapzy53fRaVz7UrP8o+PXffvw7cT0Rmosa/rQbicGEH5j/dDX2Tn8SLY5/Fi88+gSd7uj8QJ9zeIlz9rmEjT5jHVOa2/EG5P60JeeA+4IuPZb3ZX2PTF0D0A9Zzx9laFlF1ZvgeXN2JOuLS1n6GP40dr3aiXzTgoDdhylQEBgWr9ceVx539ZuAvg+9DQ5Pgl5P8Y9EpvGxEqtZdj2Jo58CyJ6VWKO7r01IOOOtmBDw4AeN6OhkBa6J8yRsTj8aGjfkfSrNmYeq7eyzkbAtBn9S3MKDt7XYuqJvg2+wRPJs6AHfKMVVfcyROfhwtbrX+MXZz4EMY+EykHKLKdTNavzoLj0fUV6/FX69dxg3zliNvuRMPjZtssS6Oup2nY27qo7irnv58/4prpd8j92A+Ci9dM7ZkWasRYka943LwS+vW9nMxMfFO9UXrtxs3jOuQatWLRvKkZ5AoGgVoq9sv/Hqj7H7VCka8lf2y6a5heHXK45p91uUU+eV8PnJPl+IX7X5riGM1Y1QHNNa8h/967RIuns7Bd+cv4ZcropU+d5DntKXuWIt1XDPfIOWcJvxpDAyZYLTavoi50x9HiPmp+u0GronWJwVxPkeMQBtXfrXQaBeqDdH8D6dyNst+9zq64isUGA5uCO7pZSXq0TYFHUJl/2+52LXioByw5040vVNeawr1eriknFPRmRz8m3D7faMw7il96xAOEtfcM+1g+FT67TwyXx+LVWa/iIc8NRczn9VcYyI3jXJdHj72PS5qry/f5nhkylwZtC6PmxGi3GeGVnC114jBTbi17QjMSI03br8VN4W/gqe7mLWoq+Ubj0mL5uBR+bwyUp47Ze4fZb13P46/fDTd5YCcO46nuO/fn/M0WvtpbnyVyK1l6VmhHEOL147uXjZcV0p31dKDxm3K+RyxqoL27867cIfhmSyOrXE5JqtRn11/wcBgOewuv17FZc22l+nMD97Vw/j4vU/lgI6771+79xNRGcn4v54hqHXjGFa/8IKdHPQi1+U7WLRhFz7XF2NdswTjkjTBbpFbU0lboXxPTExdgbVqkdcsrF2s/6FE5Ejdb8jN3mq4rkjs7KeUAf28b03BjI916zAZn9pRnUerbtcpeG9zlpr++ZebMHPYfYbPHZHzd8vOzzFJ26q6ybJsbIuiQbuRmLEiHZ99rRu/MeMz/O2FRzU/NOnm37IzDS+Ol/sq67ELSZqCv63ZgY3KfLrj9CqMb9xGNouoOsmdyyKqSrziM00E4kQdcXt370C/h7uqnagv7tZ69dR0EYh7KLEX5rwxHYezv1HHueS+8WY5xYDrF/6FjbOfwXOPP4zBSjfi2TF4+73V2JPzAy6bfpM2I3KZvYoR4z7Baf10tW5ST8j1vGWYPOhV7DW0mgcENm0r+6T/XEPxqT34esXf8PZLY/D8IN36Bz/+OJ6f+nfsOastzFIXrTr0kv0OqNsBI19+EmGaN43reSvx9pwdFlv68+83Fr01wcXffs4xHpNBQ/Hakkyc02xOnfBkDEmy9xrjon+9jbHyXOi7dXkyzSV1UUfd1P/hasEGvPPs48oyB2JB1gXNi9JNCG79IO6WQ0b7sXCE6bYMXnVMpjmgzL4sQ75M0hFFaLXp+s5+EVXv1Qox9/ni1x8yMf/pB9G7RwIefbAHXl5nVqzM/wE81FX26/kmI3VKIgLkU/E3/a+ojz2BP499EkN7dcHgiatRoP8uJ4Jfo5538sWtrGZRbVD7x/34aFQPPNKtE3p3Lru9taOGYkzXYNT69Rx2zxmCvl07Kfv1IMYo92SR9jnj3wE9EmW/g+75vz5oZXi5v4Hv1o/D/3VLQP/kJ/HnQT3RX9nv3r2fxpx1e3BeTiX0eqKb4ViJIlj7le1K7vEQnlTu+eeSH0L/np3Q74kXkPZVDlwsQSjpzum146sx/QlxTh9S9r/svtdqqpyrMvveHE+PexRNNJ90106l4+/KsRatTvYVrU/2Hoe0f57Dr7X90dj1Br8Uvmhwq/aX24soPil73e38UmRmGxtyCO480OIX4Qf7PQj9O/pvBfuwRXsC7fofrpzIRNqUPugnrodeyjkVXY9ueHG19vqsjVbdByNcDtklAlBvj9Bcc1dxbOnzmLnT7CWp7YtIHdrG8OIhzr9ojfZxkatBzdHQA+O014BvGySPG2g3QGZbODor9xl+PIg1yn73NVwjT+PvO5RrRE4lnvkBXZ/DcLOPZXNhHTritt9+wfFNMzChdzv0TOyD6euyoas44g488dZfER9ofMH4teQb3Xo7x6Gvcv88ojwLJsxNx2nNoakV2A1/er7sS5td7jieauDe+IwUrp3SXSN9RYucPZVnRecH8dS4Gfgs+4LyNBFW4mX9tfOPb9Uxevn/kOPVbiDmH5AJFaI8zxFbKnD/lGvn1I6FyvZ2VY6tcVl9k0bhE21QoXYbJGiqHHGLA2/iWcO2m3cjsOmU9oOnGF+bB9Mr4P61fT8RWdC5Ne5SPpZvHNmC5VaKP+qIahPSMH1wBwT+Lx87Pl6CT7/Mw1W/KCROKPvDa724MRjW4hy2fZaO/B9roX7Y4xj3kmiA4TvsVubNOKZ7Wzq/ZwlWfaQMZ6uDqsax3eG7ZQT6ddYUC7ekzgMYOaEdLu5YrmzLUfxYKxCtU2Yh1ZFWm1TWt0X94XnmUNwX/BtOfrUKqz5Ox4kr/ohIetHCD02t0Dn2FBY8rtxzotisuLcnPIqWdU6qy1/18Vc4WyfA8F3DUafP/oDAh59ArDrUAvfd4+SPekReQvOVqnrSB+JE8G36lBfQoVMX/GnM83h/7t/UoqqiRVV9IO7LLeXJpRCovJxqc4rpgmbTRk3Fx3vOGoJU14tP4PD2ZVg49WlMmWda/5qJC19iochldvYIzmrfVP9zDJvfXY1z1/bgnKZofK2bTH8RyF74DMZPeBWLP/0Sh4+fQKnhzegaSnM2YOHrX0BbmLRW0F0OFqUUudwmoIO/cX2/FWfi/RnKNslhU10wsFcr/EEO4T/HsXHqC8Zjcu0Ccj9/G9PWHMJ/1AmE2oiI7eNS0dnKIoKR01/8O74pFgf6Z+yd8ymOGXcIUI5vpdcBSzrFW/HmsBc1v4D+iG/mPosV3xiDF8DtuKut6ctL1HPJiNF/x7HyK+rP++fgtU9zjYHYO+LwsPZXSVf8lo9Px43G6qP6Ij5ieyfj46Pa7b0JtWpdxdElz+E1Q31VV1Hw2Qt4+3NjkUXgNjRt5dxLWXgT7VeoPOx+Z2/Zl5ufDuPLuUs0RRw7ovkdmmdS8Tf4wkI9Wtcu7MCaBWuUpZbPb2c+wdSn52jq6bO873ffY5YvsOuz6BaqeZZdSMesZ6fiM8OxVvy0F2smPYk3vypvXST3ILj8JV0ddBVb9h6WwQ5Fg3vRuUwAIRndDQ033MCRrUut1itX1jlkvT8Ug4e+iDVl6im7isMLJuOLAjkoNA1T9t4RzTFwljYA9T8UffkKXv7IPGrpi74pvYxBVOWenjV2jllrtLprYOku48jaMV3xqKPvKRYp91npVrw28Bmkafdbuf4/S30Sc3drNqBWCNp2tX2v1ar1X+Qtexrj3t6kqxPr6nnsnfsevhCJXcehX1vjxopr881BI03XqzwLjq2bij89+yHyDCf7JgTED3SoFV0j9xzPB4cP0ARRgUvf/A3PDzG/Rq6iKHsT/j5uGJSvOFWKy8+RynDuKyx+JgkjU5eWrZ/06r/wYep65VXbqEnoA7KvoomgxTsY8Ef9Dw/iHp6FuSbB9Iq5f23eT0SWNA+CqHf58o+W32AMgodioPjB8+cdmDtoGGbOex8fzBiGEX8/gBu1gtFlwACTANUtP2zAROXz8YN5UzH2rS9Rqoy7rUUMwvED9qx+H3vP6R7YP377PpYtfh9bD6uDOgXr8faSst+Xyqh/GXteehSpb2u2Rbm3WnVMkhPYY21b7sCAIeLH1J+w9+1++POMv2GZsh9/HjQfh26IH5qeNLsPL2Hf4pfxtf5Wjbobdyj39tV85TmvHCcx79iBz+Mzmaz13/+a5yzX2P0WXvviDqSoDTiMQ/D5H2SCZTaXRVSNaUJL1Y8ohqoPxM1+fbo67srly+jWMwnrvvhK7cQ05Q/EKQJ7oW0LzcvnbwX4UgTN5KBzbuDYlkUWX1CvHErHhgtyoDwuXDG+qDnsZtw77hX01eZyK96Lpa++jW+sfWrc1w6hmtwk//l2Oz7Rfq+Vrm86hO9lv1CreWt0kv1VneVgZCEuXZa9Qi0f5RWJKt//ULB1QdkK4JUv/ut3HTK5J+reqm1ZoyMefsBY29flA+us/opauDNH+Yqj54+wB8qXI+FG9masLLOuH/DZv07IfumHrfhoZdkvK0f3HVNe2Y1M98u+7y+Ir5F6kUj8a3c0kEPW/Rvnte1/+HdG/2ERNnM1uO4GDn3yFo7KIS3zfW/gZ1rOqX2HKE3Lppfwr2VvWrg2hKvY8/YnOKbN7FHFXVu7AQcMUdPbcE8P01wldft3Riv9+/LPe5C+1uKOW5GB9f+w9bLwA459r71ubsbNdoNDupf4QVH6Cf+nfN4tQuqMzLLr8R2AuBhjLsPvvrJ0T+t8nX3ceF/XCkdrJ3OGmlKutTWvW71Gts3bbBoACe9o+5r/YQs+XGI5e6Tj16bi1Af47J+aSEbtNrjPmf10y/HUBncVykvror+sMvnRr2pz/TlSKbatwjpbRerOH8FpTekJ3HRzBT1/TdXtPAWjNHU93vh2adl7uKLuXxv3E5FFv1xXr6/adTXPLksS2qKFclH/+K8vsE1zrV5b+w3EN7FagXeZ1Jn748l/G599e05BfW2rcyvsrEVVqszr0A9jxUfxz0OyX3Ft8yGIr4q1m4Y7+OOXNQ+hlfiR8uJ+5f1Zs7NXV+GQKH5TKxhNTWq+OIX8dNkrfLoRe3/8H+q1exHLRdHW1KG49w9XLX5f+M8N7bfusk6vHoc/DXlC6cYp3yrvwIWz2k9YU/aWRVRdVetg3JMpT+O7/OOGQJywZ9fXSOn/KD6Y9ze1E/3lDsQJHSJMKubG6UPIdDlodhk/nbf8mvOfa5YKglpTF43vT8bI1PcwJ+1jLP74Cyz/RN8NQZicylG1gvticEdNnXXXjmH9qzPwtYXgmp5/q7vUX530/tD2Wc022NieP9RWXs3Kihm33MK85t1yjLxPzuABP3+7w3owsiaQdVDY6vR1UFS+c8jbaeXXtTNF1ouzBN+DZvpW5xT1Ok61uJ9qp20tU+Fs8MvcufwdFr/EXMs9rf7aqvfjt3stvkgiv8jkRbJeQ+dqZNzz5V5NMS3xq+irWL75Y8xUvmDFBlqLsFzFlzsParbbF61SlmLVxyvx8tgktHLkG6nDTuBb7RdBrZ3fmRSdra18GTbyRcsmmpN6IxffbLLxcnv1OEzikk7bjTMmnwm1UccYbakAW7Fhp/HhbJqr5A4M6H6PoWLzSwe/crDhhrIahESi0+PPYsgLb+GtuUux6NNtWJuRhdSu2nYW/RFsp7L+256aa9Jgw7WjizB+zBLLwZzOf0SI5ttJiwGfWb4XRfd8O00F7rVRu1xFjU8gZ7OtAMi/8b02A6VfkzKNmmhZvWeV89O6uRPXpuLrrEPKNwe92vC/y4kfAdxxPGVxL73S/RtMXlqrPlefI5WtIZq06oo+w5/FuBnv4633P8bKzduw/qu38KD2o8fOtegWajHl7sYWVq8expo3Pih7D1fQ/Wv9fiKyYu9x9Yf0evckorfdH4yquGYNoT6ZfvlJ84NwJbi6Ga8O7Ivpi9Jx4lJjtOw2Eq+u/tBinY/Xrzn4IdHxRaQEb8Sm3XLYAoeXRVTNaD4uq58WYS3VeuLMiaKqW7dsxqcfr8KFQvc8su72N22c4Erx96jMBpbrtOiHFxatwTuTn0KHaNGi6q2yZVbXNQhrZVIM9+eDm5BhIxAnNGlYoW+bRE76CaWm1fYYHTgLbWYuE839HMgNVjGuX3HsGfXbb1Zq/z5/2aRRFadfJPdMR+rSg7iiyRV2y22iNcSRmPrxl1i74h2ktNOG3HUKVz6PWemm9WjVDgxDXL9UzP5sF5a9PwWPyMrSy+e/+K9L38HMio1euqj79boCFf+k/THF+SLDzjq6eR8Mj+hakegwWNa50jYFnVrq8+qexZ51W2W/o3wR+uh0teLo1SuWYsq4YRiYFI820bqWVU1az3RIOHoOMtYfhYvbMXeilUCcENgQuhpfPc3Va82y86cyZZ+5FmikfeA4cm1eumbMQaRw6kcAdxxPWdxL78JpG29NVZJ7z22F843AI2oF8RlY9P4bePapYUjscg/aqC2rmrZu7BnNMfiloZpiyj9h7ztlG11RVdD9a/1+IrLi/IfI+Jdy4/u2Q8rc8bjX2g+F/z6hBrgatulq0kBO3aTWaoMGN05/C21JU49ofDdaawJcIfFtID7hL53LVXPW6Uo1+KNZtLGutfYhjtTc9i98LyKUjWLQSVsXnu+jiBBN3984hQJbbT3d3hANRBHx5VPx5yd64C9blG8hvm2Q0Lfs953Ll6/YKF76IJ5Ti6gq3TNA2qTlVr8TiGWIZRF5o2odjBO54h7o2FkO6YjGGp4Z82fcHeZq66OW+dYuT/Opbhb4BCZOH4Y2jdy7TT+fOolfZL/QIHYsJvXTtg5INZLywX/44L9tdgWuldeusm4UHbO4n5a6Y99pywpVT6c/egaDn5mqq3TdpKjmLagf0gHJszZjyRTzSn2vYs/rj2HwxIXYnf+zaSuKtWrDv9WjGP3BJrz9lKYlMi+XlXfKpAXMJu0eLXcDHzZ9uxx7juu/6N6E0PgUdX3te8cZG244/hXWaIq6OKL9uKWYOT4RLW4zvvHrWlT9Ad+J637HZ4ZKoR1zCT//pPlC3ugBJD3h+HVx6XTZ+85a523PoorA41nVdcSz77+P0d1aor7hFpQtqorWSJXzkrVpI3K1X9gqlKV64t7A29oibjbweqPKcxUbX34FmRf+h7otB+DVz3Zh1YqleGvu+3hryWdYu2UdJoh6f7+dh037fsFv/t0xecUSTBrzLJ5JXYJFz8eh3q8nkZ62ymIJBmu+L9VVKxDR9wOMGzMXE55UB53UAr0XfIIZLzyLcW9/gjn9w1Drt3x8uVj341r2t9+pP9C06L1ATvMZXuha9keasttyDIs/2YMrv/njwb+uw99S/4whY6bjbyteQLv6v+L05kVYb+vW7vMWFq96B+OGP4shw5/Hkw+IbxtXUXjCcgN1l37Slt3Q+hrvqUVURfcW9sqxllhfBlH1V62DcSvTPsTdYeGYv3g5nhw6Qv3rllZTLThy3rT80q3+zaApZOJRsUMeh6ZaN+C/hTj0jzfwstrSp75FTfOWN+377fRKLN6pbSW0LsKSX8EzThQJ/XHnNM022OomYoOcRyv73cEWpjXvanJroZVg2yy8OPZZm93/t3cvcDGl/x/AP2ptinJbLNv2Z5fNxrLW7YddhMjfRl5qla3IPfzkV7K2VV6Kdil20xKiUFYu9UtuUalltavNPXd/klTkmszIpf2fM52ZeU5NMdPUFN+317ycuTVznnnOmXO+8zzfb2iS8Ni66sET0YGW5Owmleup6hKwRY0KubWY9HIC1rrbwNbWHgFhCbh4u5jZF9RHa+uFKqt4PUqPwJJJVhhr7yaruJpTyITl9IzR2TUQs15RdbJG6Ou9Iq9jEzSoYlUZ6cGTuMZG49oMx+SJ1RmMzEX0wRPKEVNtemBw16EY0kv+7fQS1/7+rxqFGzitZ8JpdDtF4FVefXaErKKqLWby/d4nQJEU+vXkIcErDOcVB/hGsHAtX6FOQcjzI5d3yEPltqfqUr37og/QhB0M/uiuKBfq67sPCTuctYEhXjm71sSQmc7HvfS9inPrlKON9nxRIgo0N2hIle+qy/vTpsKmrXzbkCA7cQU8R/LVaofIqlzzn8viwFTksX2oGhn2n49pg5VTzEtuxiFQVa5HuVq7/ZK3kiQFy8a74tfdmcjnOq2JWSd0+fwLdP7QBM/vXcEVWRpCCeK9JiOEe8y9huawtJ+I0YM7QD8vDb95uWKNmj9o5XPnp3uvPMLLpp/D2vZTGLE5pl/XvWRs3nkH/zN0PKx7t8E7BZnY5T8L64XRqNLtQViTeBmP67dBDxtn9Gt2Butjz5XeyVD1XqSxc+CxPA4X7zbEx1aOcLS3Qjv9XGRsdMec4MqGxXFuZeOBUXcMHT8RjuNt0AE53PPmIkDVSR2HH9FWVKj5Lwf8c2lUHHmT1elgHJ8fzv+HeajH/XNynSL7/zt3N+3kiCvrZoE435TZFxgiSiJXUz6BuRl7NlCM81EzERRzBDdklT6r4gWOBwchJZcZwaDXCv0me6F7BZmBT2bniw7QG5ta6CxISYjGLmShgDl7aPppn+od0VSbPbyBI8L0A/eNZ0R54bpa2gnL5UlvH0fiyjmY8vXXWJqcp9wv6Jmh5whdVCcsk8OtmQV6VhYU7NoFbauUb4yTF4HEE+xPygYwd6kk6KQF4kIOpug82Q5d5FMgi08gJVK9VA2Gw3uiveLIIBuHfvQVV58VtFI3RUFWOBYEJCjzE+q1hqXfVtVtc+GmKA1E289GlRmVWV1a48PKqiNb90AHJiJWlH9NvUCnwnlcvMGMLDTuit6DheUK9O5pwUz9K8CNU2p8rtpoT2Eal1zbHnay6VtE24xg9UVH5cH5zf1Y4R9dWj1UpExguLrI8sRZo6X8DUnOIOoH1YUwFHS2/RJSAclF7A2cCNfhX2FE/14Yzl34H5i+dfoe8YqEkdeRwD9mWD/Z/cMHfgVHpzmIZL/TN02W3efkz07TD4cn//gxvjgm3MIHAH+dZIWR/O2DreDPB6pUPpdT7nb531uAneFucLHqw93fB7b2E7Emmf0u5t6vvxO+GcyvTz98M8kXCStVvIaq98LJ3h2A/4wdUHo7//dH2cMnPIM55vsDy8bw903GVuEWmaTFmDJK3o6qnlfe/fv3NQrI8c/hn0vIm6xOB+N4fEBu5iQn2c6H/1/bI+IUjv2Fy+x+RK8dBs1w4A6HaloTGIpGbzyD9HHZXaAZBs4fho+Fa+o5h41Lt+AK8yf1Wlhiuk8F65p2DtlMNE7vI2vui0NX2bfedC9RwkY+8SHaDRQWSRXtRkYmE42r9hFNtUdvG9sKTqoluBq+BceY4yA9ffnUeAsMselRwQnWA6QG7hWNzNXXr/EERzInrrIZSExhOWNqBevaDs4zhiumdmpOgviVm5kRYBxZ0CkWgVP6VJ6XsEkX2Pr8gumVBYNUOoijp5Rn6qZdP1dU6Sz8a1fl001U6PIB+3NKER6pGvrVdioGfcaO03o90sO+8IlgArx823ivLJ/4+cIBZDKRH4PuTphdjQFNpRb4l9PECvvI5G++ZAJiD3EqWfMf/pKOZTInL03Qd7qfKFeRCNfejv2Zz+VRJtLThOXXoY32LPM39Nrbw2NK1Soov+mj6zRbvzK5LoseqMyjZDZxuLJacrVpB8d5LkyeOAkyI31V54lj6Wz7JYTUVnxQ7f7du5XkkFPiH8M/lgJx5G1Q54NxNed3HEi7JZ6mYe6CxWE/wb7vx2guHJE2aPExugxygZvfOixx61V6o1al42Y+uyMzxmdjPND/A/40r7S66uzgnzGpJ1MVVV050Vi25aQoKXwD82/h5d4X5WZx3d6Gw2fZYKAJPp8ahgCvsejVrpXi8Xy7tO87EnbTF2DJ2jC1pr4SudPIEQ3DMEY3Bx8MMxdO8U1Mub43DV6rVlP7qk2C2D1pUI5VMYD5hAis9XFQURnUCC272WBa8G78qFEekNrlo+He+GXzUoxVUaSh8eBh+IxJQVL8VD5VoBm+mBCC8BAPWJYr0mCE9t/2BRtfkT7RzQHVpa0puMrstA0+dcWKdR6iKrGNOztg3uYIjFPkQ6qirHAEbxUXxIBeM3R2Dhaq1P4HLmMGo6NFJ3TsZYNvJnljQXgcYmPWY5pVB0UgTR2pO1NF1SBLPcSZVHULNyjzy5Qyx5AF4mBt484TERDsCnMNmyt702wEJTIjJ426wCmwbCDqFLalXGS+b1tgoCygOQAty53TN4WppSt+2BAF7iuqygw7T8HSEDdRom/DVgMwbd16jG6vnOhccjMZu5KFK5rYFYx9V5Xf5XqtrDE/KhQTvmzNBLiawsLOD6Gr2faWIDM6WM3quNpoz1NYtz2dCSBy+0jnDQgLdsNXZuy+g98/OsB9TXj5z+P2A6YiLNDWcgYGarXyso5pZf2u4T47DcN8BLxs2B+GuD7h8iuWuliIpi1rX2meOKfO8g7C54lbBN8t7PjIiuhu+yWE1F78dNPcnBxZoE3yRCIKzPHL/G38ffxjaGoqeVtQME4Nl9aFISmHDTwB7zTrgpGeIfglah8iY/YhbE0IvGY6oG8nUxi/KzxIy46dvoRnwjLv3TZDMGXlVu71Y2TVVXuaVn1CwNP9i7FGlD9OH837e6oo6CBF4tpoXGKbRa8RPvzXePw7KAJhXJvI22Wh53SMsuoLs/cavCJ3k6Z6wS2s9PXYi525cLegg2OZx4R5oZtwnzZ1c48Uvw5/cSxTbcjcpcxjIuFWYSDtMv48Kw4I67XoA6cA/rPnnhuxDl4zR6HL+8bV1L5vuORFCGaDBNzJiJmVB5bHH0XsniRsl10OIS41FZuCfWDbrRXerUV1XarCsK0lJgQdQPyBJGyJisCqbdy6HjiK6IWD0Fx4DErycGTnNuEKTx9Nujpg3vpkxO1PQkQ4t73/NwkxickIcWZOFCWncHCrjvLq5a3C2vhs0X6sYUcH+O5Ixd7EQ4hNTkf0ag9YtjWCNDMB6Voqkc0XxPBYnY6H7MbKKa1S6whH9x/x85oI/BzkA9fxtujXvk3VqiOe3ogjikIOgtxUjYJF+UfPIEfxvvXR8ktvhHJtJev/+4/gt9XT0a3xHZy/IM6j+vokSPOfg+gLypGofCBqbpB4RFr+2oWIymSG9ckCmoHYtO8IYhTb4++IP3wAYYvc8GWHploIThTgzm1w/doVi+XbPbfOO3cEwrajsfKAidsWDq16xVS9V7qO9X5sHj2uf7zXHWMDdiE2lV/H0nVbPtsabRvJ9+jqBETEtNGe0th54kAq6qN5N1d4Rx3AfsV75vePHrC2aFX+8zh8QTySvtVQfBf/p2z/EZu8F/PqejBGK+uXi78ymX2WXmv08fpN9jf4zygmcR+WT+4Fk4IzuFSNv3GUzRPHa9z3B2xS9BUVlyDlr1O62X4JIXUBH2i7W1AgC7plZ92QXfhl/jYKwpG3DQXj1JKOyPl+iDt3Hy+EW3ShYOdKxIuiX+U9zUlA/J+anizxpDgeHIqjBewJXmlBB7feZYJ9t3dg8fyV+Pu2Llvl7XBp3S/Ye63yz55oig8STEDg7uvM6A9efRiamMBYdmkEA8Ve8zle1lAC7ZpS39AEzcw64aPW3Lqy0aHnt/DH8jlYrnJqnD4MGprg/fadYNrcBEYGzOihovOI8Z6DHeWHbdWYzBVTEJh4S1ztlaNn0EgRAHueuwdBcw9Cm4eA2dtnYeLUEGSICmG8wvNHeKBR0bBcRB85x7zOS1xN2ahZsOh0CCLixdsA31ay/t/QAHolj5EZMQfblRE7DVxH5I8RokAUPyLNf+FQZirvdWydOx0bMu6L20/PAEaK7dGQ2zoFJc9QXPZDVltpoYnMIv57T9ju+XUuvbMUty2kcPsJ1duCmrLC4Tk9AH/klnnjsnVk1o3HtXvW7oWYXVni/Eppoz3l+8ir4pGfPFXvuSxJNGLYfJIypfuPKgWjawstrV/mmlXYn8VsHMLf4D8jfv9aUnQKUV4bwab31a7R8GbzxMko30OFFyM2nKaL7ZcQQgipWygYpy7pacT4OsHdfw1S/7qOgsdPRYG5F0+L8PDWGaTt/BkhEenCrdqWjV3eExEYk4G8B8rXL3n2hHvtDBxYNRee7iuReodJEK2RdKxbLM4fxxd06Os2F1+VHXyXk4CVM5zht2oXMrJuo+ipqFXw9DHfLpeQkbgRYb5zEUHVUDV0Dtu9uM/+txRcvPUA0mfyo/GXeCZ5gLxzKdjxE7Wv5vh8Z2Px7WRfxP1+BfmFUlEQ57m0EI/zruB4Yij87K0wjx0oVkfFLfLCxsTjyLlXCCmzsiXFRbJ1PbrTH55jRmPJblnJMcEfWLvQX2ijIhQzZ1t8G93PPo6UMC+42k3AelFBA13gPlP/0XCeG4GjV3MhKRa2mZJiSPj1i3SHs4Mf0iT1UY8dUno3B2eERU1JL0fCx34YXL2XI0FFW8neQ+E95JxPQUKwF8bbjEPYBeE+NUl3JOOsfLBZyRWciFd/9FQpCdJWuGKefzQysu8p+8RzKfe5pmHbPDt4bWL7gobKFnTgTvZbDl6ElT6WymmakovY6WGNcXNDkXLyBu4/YQObL1H8hO9r50r7qO1oBP8t3FUV3PvyGueBbce411OuPKSFubjIbfcLuG1hmSiJdhVlxWGJw9fw/Cla1j8fizdCSO7dwFl+fzPWBm6BB8WFpNSllfbk95Hj4DxWvt9g+zT/N7j+fDIB0f6eCCkXsOSDeY74fmMa9zxm3yrbFrOQpcVm1Q0trR+fcH36dCzjq1Mzf+e5lGvbYxHwHTf11XnbqqQpjMpNJ9WALrZfQgghpA6pZ2Tc9B9hWWdmuIzE6s3xwjXdeK8FmzGXkDff3YK7whIhBK1nY9U2J3wkXC05/StG/HuzcI28qRxXp8NFUTr5DDaXrRxXJxjBeW0qxn0qXC1OR6jVLOj2qIoQQipWG879CCFE12hkHCGEkLee2ejeoqITWReShCVCartBaGcqLPIe3kGOsEgIIYQQQmonCsbJ/aPzAYKE1Bzq74QoGH4yFe4jOzBfiNm4kKLpNE9Capah9QB0MhaucIqunMAJYZkQQgghhNROFIwTvHipzGRByJuO+jt5W/SeF4WwYD+MtTRHyzJ5kAxbdYfV7FCEhU6GBXOfNGMHNmiYu42Q6mbvHYgRn5R22Mad3bB4zgCYyK7xHuJU8h5hmRBCCCGE1FYUjBM8e/qGlUUkpBLU38lbw6ApTLtZY8KiSGxKSMfexEPYvicJscnpiN0RCg+77mjOVDosuZ2AoAXbNKxYSUj1e8d0AGatT8X+w+mIXu0qDiSfjsKGZOEKIYQQQgiptSgYJ5BIpXjxotrqxBNSa/D9nO/vhLyN9AwawdjEBIZMAK7USzz5vzgETvFFmq4LwBKiAWlWDIK+24x84TohhBBCCKm9KBjHeFxYSAE58kbj+zffzwl5WxwL+R4rNifg+NVcru9L8Vy4Xea5FI/v3cDF36OxYsb/ws41AKkPhfsIqaWunc5EvlToySXFkORdwdFId7i6LKVAMiGEEEJIHVHPyLipzjO517by1kaGhni3QQO8o6/HtVA94VZC6qh//pHliOOnptKIOEIIIYQQoku17dyPEEJ0gYJxhBBCCCGEEEJqBJ37EUIITVMlhBBCCCGEEEIIIaTGUDCOEEIIIYQQQgghhJAaQsE4QgghhBBCCCGEEEJqCAXjCCGEEEIIIYQQQgipEcD/A5C3NvFP4Vg+AAAAAElFTkSuQmCC;" vertex="1" parent="1">
          <mxGeometry x="-3110" y="410" width="1251" height="702" as="geometry" />
        </mxCell>
      </root>
    </mxGraphModel>
  </diagram>
</mxfile>
